M48
;GenerationSoftware,Autodesk,EAGLE,9.5.2*%
;CreationDate,2019-12-31T10:36:29Z*%
FMAT,2
ICI,OFF
METRIC,TZ,000.000
T9C0.300
T8C0.350
T7C0.700
T6C0.900
T5C1.000
T4C1.016
T3C1.200
T2C1.400
T1C2.000
%
G90
M71
T1
X48500Y2100
X2500Y2100
X48500Y48100
X2500Y48100
T2
X15200Y2100
X5600Y2100
T3
X2000Y21600
X2000Y28600
T4
X19500Y48600
X16960Y48600
X14420Y48600
X11880Y48600
X9340Y48600
X6800Y48600
X46000Y1600
X30900Y45700
X33440Y45700
X44200Y45800
X41660Y45800
X36300Y45700
X38840Y45700
X6800Y42500
X6800Y45040
X9800Y45000
X9800Y42460
X32700Y27600
X35240Y27600
X19400Y4600
X21940Y4600
X29400Y4500
X12800Y42400
X12800Y44940
X9600Y6000
X12140Y6000
X21800Y17400
X21800Y14860
X6350Y6100
X3810Y6100
X31940Y4500
X18800Y17400
X18800Y14860
X43460Y1600
X40920Y1600
X38380Y1600
X35840Y1600
X33300Y1600
X30760Y1600
X28220Y1600
X25680Y1600
X23140Y1600
X20600Y1600
X18060Y1600
X44900Y48600
X42360Y48600
X39820Y48600
X37280Y48600
X34740Y48600
X32200Y48600
X29660Y48600
X27120Y48600
X24580Y48600
X22040Y48600
T5
X4200Y14200
X4200Y10700
T6
X4700Y22600
X4700Y27600
T7
X10400Y2100
X12400Y2100
X8500Y2100
T8
X35999Y34799
X32800Y40300
X44900Y37000
X32400Y33300
X48500Y33700
X32700Y35400
X42400Y35200
T9
X45250Y31500
X32800Y30550
X31700Y32450
X28700Y35350
X33400Y39550
X42650Y38300
X40350Y42400
X42850Y42500
X31200Y30700
X41700Y5900
X29500Y19500
X16000Y20000
X9900Y25800
X22100Y22400
X36600Y20500
X40500Y5900
X18700Y28900
X37000Y28500
X18700Y29800
X38100Y27700
X21200Y28100
X16200Y32600
X5000Y34300
X8400Y23200
X7600Y28000
X9100Y37600
X2600Y40300
X16200Y34300
X11200Y40900
X12900Y22400
X25500Y24500
X12100Y25100
X14000Y25100
X29750Y26350
X18000Y21000
X16900Y28100
X15100Y24400
X28500Y22300
X32800Y23000
X33500Y43500
X29800Y36000
X26900Y30700
X28600Y26500
X38493Y33200
X4500Y46100
X30400Y20800
X33800Y10000
X34100Y23000
X29600Y27500
X31600Y10900
X20300Y18300
X22300Y36800
X5250Y40600
X2250Y35350
X22200Y33300
X4000Y29600
X17250Y33600
X34100Y34600
X44800Y35900
X30700Y38702
X19200Y35500
X12800Y38500
X28400Y36900
X14750Y29600
X13250Y29600
X16500Y15600
X15900Y16800
X14200Y19600
X22500Y6900
X17300Y9400
X36000Y41300
X27100Y45700
X35600Y21900
X13250Y28100
X14750Y28100
X16000Y31600
X8750Y32100
X16000Y46600
X10500Y46850
X8250Y40850
X15250Y41350
X19000Y42100
X14500Y42850
X18500Y39600
X28750Y46350
X20750Y46600
X36000Y42850
X38250Y43100
X46500Y46350
X28750Y34350
X24750Y36600
X30750Y35100
X17750Y38600
X37000Y26350
X43250Y28600
X41500Y31550
X44750Y28100
X47000Y26100
X48000Y26100
X49000Y26100
X50000Y26100
X43000Y5850
X31500Y15850
X31500Y15100
X33500Y17100
X37500Y13100
X34750Y18350
X32500Y14850
X28000Y16100
X28500Y18350
X28000Y13350
X23500Y12850
X20250Y12850
X25500Y8600
X16700Y30700
X17250Y4600
X18750Y7850
X21250Y6600
X12250Y4100
X9250Y3850
X4250Y4100
X1850Y7750
X1500Y10350
X1500Y12350
X1500Y14350
X3000Y17100
X10250Y19600
X13000Y19600
X9500Y18350
X14250Y12850
X32500Y20850
X14000Y24100
X16250Y24350
X21000Y34350
X15000Y8950
X23750Y25350
X38050Y37400
X44350Y40500
X44850Y43000
X48550Y41600
X44450Y38200
X48050Y30000
M30