G04 EAGLE Gerber RS-274X export*
G75*
%MOMM*%
%FSLAX34Y34*%
%LPD*%
%INCopper Layer 2*%
%IPPOS*%
%AMOC8*
5,1,8,0,0,1.08239X$1,22.5*%
G01*
%ADD10C,1.508000*%
%ADD11C,1.524000*%
%ADD12C,1.208000*%
%ADD13C,2.100000*%
%ADD14C,1.408000*%
%ADD15C,1.800000*%
%ADD16C,0.706400*%
%ADD17C,0.203200*%
%ADD18C,0.406400*%
%ADD19C,0.756400*%
%ADD20C,0.200000*%

G36*
X177270Y4315D02*
X177270Y4315D01*
X177355Y4317D01*
X177410Y4335D01*
X177466Y4343D01*
X177544Y4378D01*
X177626Y4404D01*
X177673Y4436D01*
X177725Y4459D01*
X177791Y4514D01*
X177862Y4562D01*
X177899Y4606D01*
X177942Y4642D01*
X177990Y4714D01*
X178045Y4780D01*
X178068Y4832D01*
X178100Y4879D01*
X178126Y4961D01*
X178161Y5040D01*
X178169Y5096D01*
X178186Y5150D01*
X178188Y5236D01*
X178200Y5321D01*
X178192Y5377D01*
X178193Y5434D01*
X178171Y5517D01*
X178159Y5602D01*
X178136Y5654D01*
X178121Y5709D01*
X178077Y5783D01*
X178042Y5862D01*
X178005Y5905D01*
X177976Y5954D01*
X177913Y6013D01*
X177858Y6078D01*
X177816Y6104D01*
X177769Y6148D01*
X177639Y6214D01*
X177573Y6256D01*
X174844Y7386D01*
X171986Y10244D01*
X170439Y13979D01*
X170439Y18021D01*
X171986Y21756D01*
X174844Y24614D01*
X178579Y26161D01*
X182621Y26161D01*
X186356Y24614D01*
X189214Y21756D01*
X190761Y18021D01*
X190761Y13979D01*
X189214Y10244D01*
X186356Y7386D01*
X183627Y6256D01*
X183553Y6212D01*
X183475Y6177D01*
X183431Y6140D01*
X183382Y6111D01*
X183323Y6049D01*
X183258Y5993D01*
X183226Y5946D01*
X183187Y5905D01*
X183148Y5828D01*
X183100Y5757D01*
X183083Y5703D01*
X183057Y5652D01*
X183040Y5568D01*
X183014Y5486D01*
X183013Y5429D01*
X183002Y5373D01*
X183009Y5288D01*
X183007Y5202D01*
X183021Y5147D01*
X183026Y5090D01*
X183057Y5010D01*
X183079Y4927D01*
X183108Y4878D01*
X183128Y4825D01*
X183180Y4756D01*
X183224Y4682D01*
X183266Y4643D01*
X183300Y4598D01*
X183369Y4546D01*
X183431Y4488D01*
X183482Y4462D01*
X183528Y4428D01*
X183608Y4397D01*
X183684Y4358D01*
X183733Y4350D01*
X183794Y4327D01*
X183938Y4316D01*
X184016Y4303D01*
X202584Y4303D01*
X202670Y4315D01*
X202755Y4317D01*
X202810Y4335D01*
X202866Y4343D01*
X202944Y4378D01*
X203026Y4404D01*
X203073Y4436D01*
X203125Y4459D01*
X203191Y4514D01*
X203262Y4562D01*
X203299Y4606D01*
X203342Y4642D01*
X203390Y4714D01*
X203445Y4780D01*
X203468Y4832D01*
X203500Y4879D01*
X203526Y4961D01*
X203561Y5040D01*
X203569Y5096D01*
X203586Y5150D01*
X203588Y5236D01*
X203600Y5321D01*
X203592Y5377D01*
X203593Y5434D01*
X203571Y5517D01*
X203559Y5602D01*
X203536Y5654D01*
X203521Y5709D01*
X203477Y5783D01*
X203442Y5862D01*
X203405Y5905D01*
X203376Y5954D01*
X203313Y6013D01*
X203258Y6078D01*
X203216Y6104D01*
X203169Y6148D01*
X203039Y6214D01*
X202973Y6256D01*
X200244Y7386D01*
X197386Y10244D01*
X195839Y13979D01*
X195839Y18021D01*
X197386Y21756D01*
X200244Y24614D01*
X203979Y26161D01*
X208021Y26161D01*
X211756Y24614D01*
X214614Y21756D01*
X216161Y18021D01*
X216161Y13979D01*
X214614Y10244D01*
X211756Y7386D01*
X209027Y6256D01*
X208953Y6212D01*
X208875Y6177D01*
X208831Y6140D01*
X208782Y6111D01*
X208723Y6049D01*
X208658Y5993D01*
X208626Y5946D01*
X208587Y5905D01*
X208548Y5828D01*
X208500Y5757D01*
X208483Y5703D01*
X208457Y5652D01*
X208440Y5568D01*
X208414Y5486D01*
X208413Y5429D01*
X208402Y5373D01*
X208409Y5288D01*
X208407Y5202D01*
X208421Y5147D01*
X208426Y5090D01*
X208457Y5010D01*
X208479Y4927D01*
X208508Y4878D01*
X208528Y4825D01*
X208580Y4756D01*
X208624Y4682D01*
X208666Y4643D01*
X208700Y4598D01*
X208769Y4546D01*
X208831Y4488D01*
X208882Y4462D01*
X208928Y4428D01*
X209008Y4397D01*
X209084Y4358D01*
X209133Y4350D01*
X209194Y4327D01*
X209338Y4316D01*
X209416Y4303D01*
X227984Y4303D01*
X228070Y4315D01*
X228155Y4317D01*
X228210Y4335D01*
X228266Y4343D01*
X228344Y4378D01*
X228426Y4404D01*
X228473Y4436D01*
X228525Y4459D01*
X228591Y4514D01*
X228662Y4562D01*
X228699Y4606D01*
X228742Y4642D01*
X228790Y4714D01*
X228845Y4780D01*
X228868Y4832D01*
X228900Y4879D01*
X228926Y4961D01*
X228961Y5040D01*
X228969Y5096D01*
X228986Y5150D01*
X228988Y5236D01*
X229000Y5321D01*
X228992Y5377D01*
X228993Y5434D01*
X228971Y5517D01*
X228959Y5602D01*
X228936Y5654D01*
X228921Y5709D01*
X228877Y5783D01*
X228842Y5862D01*
X228805Y5905D01*
X228776Y5954D01*
X228713Y6013D01*
X228658Y6078D01*
X228616Y6104D01*
X228569Y6148D01*
X228439Y6214D01*
X228373Y6256D01*
X225644Y7386D01*
X222786Y10244D01*
X221239Y13979D01*
X221239Y18021D01*
X222786Y21756D01*
X225644Y24614D01*
X229379Y26161D01*
X233421Y26161D01*
X237156Y24614D01*
X240014Y21756D01*
X241561Y18021D01*
X241561Y13979D01*
X240014Y10244D01*
X237156Y7386D01*
X234427Y6256D01*
X234353Y6212D01*
X234275Y6177D01*
X234231Y6140D01*
X234182Y6111D01*
X234123Y6049D01*
X234058Y5993D01*
X234026Y5946D01*
X233987Y5905D01*
X233948Y5828D01*
X233900Y5757D01*
X233883Y5703D01*
X233857Y5652D01*
X233840Y5568D01*
X233814Y5486D01*
X233813Y5429D01*
X233802Y5373D01*
X233809Y5288D01*
X233807Y5202D01*
X233821Y5147D01*
X233826Y5090D01*
X233857Y5010D01*
X233879Y4927D01*
X233908Y4878D01*
X233928Y4825D01*
X233980Y4756D01*
X234024Y4682D01*
X234066Y4643D01*
X234100Y4598D01*
X234169Y4546D01*
X234231Y4488D01*
X234282Y4462D01*
X234328Y4428D01*
X234408Y4397D01*
X234484Y4358D01*
X234533Y4350D01*
X234594Y4327D01*
X234738Y4316D01*
X234816Y4303D01*
X253384Y4303D01*
X253470Y4315D01*
X253555Y4317D01*
X253610Y4335D01*
X253666Y4343D01*
X253744Y4378D01*
X253826Y4404D01*
X253873Y4436D01*
X253925Y4459D01*
X253991Y4514D01*
X254062Y4562D01*
X254099Y4606D01*
X254142Y4642D01*
X254190Y4714D01*
X254245Y4780D01*
X254268Y4832D01*
X254300Y4879D01*
X254326Y4961D01*
X254361Y5040D01*
X254369Y5096D01*
X254386Y5150D01*
X254388Y5236D01*
X254400Y5321D01*
X254392Y5377D01*
X254393Y5434D01*
X254371Y5517D01*
X254359Y5602D01*
X254336Y5654D01*
X254321Y5709D01*
X254277Y5783D01*
X254242Y5862D01*
X254205Y5905D01*
X254176Y5954D01*
X254113Y6013D01*
X254058Y6078D01*
X254016Y6104D01*
X253969Y6148D01*
X253839Y6214D01*
X253773Y6256D01*
X251044Y7386D01*
X248186Y10244D01*
X246639Y13979D01*
X246639Y18021D01*
X247290Y19593D01*
X247291Y19595D01*
X247292Y19596D01*
X247326Y19730D01*
X247361Y19869D01*
X247361Y19870D01*
X247362Y19872D01*
X247357Y20012D01*
X247353Y20153D01*
X247353Y20154D01*
X247353Y20156D01*
X247310Y20289D01*
X247267Y20423D01*
X247266Y20425D01*
X247265Y20426D01*
X247257Y20438D01*
X247108Y20660D01*
X247085Y20679D01*
X247070Y20700D01*
X228488Y39282D01*
X228441Y39318D01*
X228401Y39360D01*
X228328Y39403D01*
X228260Y39453D01*
X228206Y39474D01*
X228155Y39504D01*
X228074Y39524D01*
X227995Y39555D01*
X227936Y39559D01*
X227880Y39574D01*
X227796Y39571D01*
X227711Y39578D01*
X227654Y39567D01*
X227596Y39565D01*
X227515Y39539D01*
X227433Y39522D01*
X227381Y39495D01*
X227325Y39477D01*
X227269Y39437D01*
X227180Y39391D01*
X227108Y39322D01*
X227052Y39282D01*
X225156Y37386D01*
X221421Y35839D01*
X217379Y35839D01*
X213644Y37386D01*
X210786Y40244D01*
X209239Y43979D01*
X209239Y48021D01*
X210786Y51756D01*
X213644Y54614D01*
X217379Y56161D01*
X221421Y56161D01*
X225156Y54614D01*
X228014Y51756D01*
X229308Y48631D01*
X229324Y48605D01*
X229333Y48575D01*
X229379Y48511D01*
X229452Y48386D01*
X229496Y48345D01*
X229501Y48338D01*
X229506Y48333D01*
X229528Y48302D01*
X252100Y25730D01*
X252102Y25729D01*
X252103Y25727D01*
X252214Y25644D01*
X252328Y25559D01*
X252329Y25558D01*
X252330Y25557D01*
X252464Y25507D01*
X252593Y25458D01*
X252595Y25457D01*
X252596Y25457D01*
X252741Y25445D01*
X252877Y25434D01*
X252878Y25434D01*
X252880Y25434D01*
X252895Y25438D01*
X253155Y25490D01*
X253182Y25504D01*
X253207Y25510D01*
X254779Y26161D01*
X258821Y26161D01*
X262556Y24614D01*
X265414Y21756D01*
X266961Y18021D01*
X266961Y13979D01*
X265414Y10244D01*
X262556Y7386D01*
X259827Y6256D01*
X259753Y6212D01*
X259675Y6177D01*
X259631Y6140D01*
X259582Y6111D01*
X259523Y6049D01*
X259458Y5993D01*
X259426Y5946D01*
X259387Y5905D01*
X259348Y5828D01*
X259300Y5757D01*
X259283Y5703D01*
X259257Y5652D01*
X259240Y5568D01*
X259214Y5486D01*
X259213Y5429D01*
X259202Y5373D01*
X259209Y5288D01*
X259207Y5202D01*
X259221Y5147D01*
X259226Y5090D01*
X259257Y5010D01*
X259279Y4927D01*
X259308Y4878D01*
X259328Y4825D01*
X259380Y4756D01*
X259424Y4682D01*
X259466Y4643D01*
X259500Y4598D01*
X259569Y4546D01*
X259631Y4488D01*
X259682Y4462D01*
X259728Y4428D01*
X259808Y4397D01*
X259884Y4358D01*
X259933Y4350D01*
X259994Y4327D01*
X260138Y4316D01*
X260216Y4303D01*
X278784Y4303D01*
X278870Y4315D01*
X278955Y4317D01*
X279010Y4335D01*
X279066Y4343D01*
X279144Y4378D01*
X279226Y4404D01*
X279273Y4436D01*
X279325Y4459D01*
X279391Y4514D01*
X279462Y4562D01*
X279499Y4606D01*
X279542Y4642D01*
X279590Y4714D01*
X279645Y4780D01*
X279668Y4832D01*
X279700Y4879D01*
X279726Y4961D01*
X279761Y5040D01*
X279769Y5096D01*
X279786Y5150D01*
X279788Y5236D01*
X279800Y5321D01*
X279792Y5377D01*
X279793Y5434D01*
X279771Y5517D01*
X279759Y5602D01*
X279736Y5654D01*
X279721Y5709D01*
X279677Y5783D01*
X279642Y5862D01*
X279605Y5905D01*
X279576Y5954D01*
X279513Y6013D01*
X279458Y6078D01*
X279416Y6104D01*
X279369Y6148D01*
X279239Y6214D01*
X279173Y6256D01*
X276444Y7386D01*
X273586Y10244D01*
X272039Y13979D01*
X272039Y18021D01*
X273586Y21756D01*
X276444Y24614D01*
X280179Y26161D01*
X284221Y26161D01*
X287956Y24614D01*
X290814Y21756D01*
X292361Y18021D01*
X292361Y13979D01*
X290814Y10244D01*
X287956Y7386D01*
X285227Y6256D01*
X285153Y6212D01*
X285075Y6177D01*
X285031Y6140D01*
X284982Y6111D01*
X284923Y6049D01*
X284858Y5993D01*
X284826Y5946D01*
X284787Y5905D01*
X284748Y5828D01*
X284700Y5757D01*
X284683Y5703D01*
X284657Y5652D01*
X284640Y5568D01*
X284614Y5486D01*
X284613Y5429D01*
X284602Y5373D01*
X284609Y5288D01*
X284607Y5202D01*
X284621Y5147D01*
X284626Y5090D01*
X284657Y5010D01*
X284679Y4927D01*
X284708Y4878D01*
X284728Y4825D01*
X284780Y4756D01*
X284824Y4682D01*
X284866Y4643D01*
X284900Y4598D01*
X284969Y4546D01*
X285031Y4488D01*
X285082Y4462D01*
X285128Y4428D01*
X285208Y4397D01*
X285284Y4358D01*
X285333Y4350D01*
X285394Y4327D01*
X285538Y4316D01*
X285616Y4303D01*
X304184Y4303D01*
X304270Y4315D01*
X304355Y4317D01*
X304410Y4335D01*
X304466Y4343D01*
X304544Y4378D01*
X304626Y4404D01*
X304673Y4436D01*
X304725Y4459D01*
X304791Y4514D01*
X304862Y4562D01*
X304899Y4606D01*
X304942Y4642D01*
X304990Y4714D01*
X305045Y4780D01*
X305068Y4832D01*
X305100Y4879D01*
X305126Y4961D01*
X305161Y5040D01*
X305169Y5096D01*
X305186Y5150D01*
X305188Y5236D01*
X305200Y5321D01*
X305192Y5377D01*
X305193Y5434D01*
X305171Y5517D01*
X305159Y5602D01*
X305136Y5654D01*
X305121Y5709D01*
X305077Y5783D01*
X305042Y5862D01*
X305005Y5905D01*
X304976Y5954D01*
X304913Y6013D01*
X304858Y6078D01*
X304816Y6104D01*
X304769Y6148D01*
X304639Y6214D01*
X304573Y6256D01*
X301844Y7386D01*
X298986Y10244D01*
X297439Y13979D01*
X297439Y18021D01*
X298986Y21756D01*
X301844Y24614D01*
X305579Y26161D01*
X309621Y26161D01*
X313356Y24614D01*
X316214Y21756D01*
X317761Y18021D01*
X317761Y13979D01*
X316214Y10244D01*
X313356Y7386D01*
X310627Y6256D01*
X310553Y6212D01*
X310475Y6177D01*
X310431Y6140D01*
X310382Y6111D01*
X310323Y6049D01*
X310258Y5993D01*
X310226Y5946D01*
X310187Y5905D01*
X310148Y5828D01*
X310100Y5757D01*
X310083Y5703D01*
X310057Y5652D01*
X310040Y5568D01*
X310014Y5486D01*
X310013Y5429D01*
X310002Y5373D01*
X310009Y5288D01*
X310007Y5202D01*
X310021Y5147D01*
X310026Y5090D01*
X310057Y5010D01*
X310079Y4927D01*
X310108Y4878D01*
X310128Y4825D01*
X310180Y4756D01*
X310224Y4682D01*
X310266Y4643D01*
X310300Y4598D01*
X310369Y4546D01*
X310431Y4488D01*
X310482Y4462D01*
X310528Y4428D01*
X310608Y4397D01*
X310684Y4358D01*
X310733Y4350D01*
X310794Y4327D01*
X310938Y4316D01*
X311016Y4303D01*
X329584Y4303D01*
X329670Y4315D01*
X329755Y4317D01*
X329810Y4335D01*
X329866Y4343D01*
X329944Y4378D01*
X330026Y4404D01*
X330073Y4436D01*
X330125Y4459D01*
X330191Y4514D01*
X330262Y4562D01*
X330299Y4606D01*
X330342Y4642D01*
X330390Y4714D01*
X330445Y4780D01*
X330468Y4832D01*
X330500Y4879D01*
X330526Y4961D01*
X330561Y5040D01*
X330569Y5096D01*
X330586Y5150D01*
X330588Y5236D01*
X330600Y5321D01*
X330592Y5377D01*
X330593Y5434D01*
X330571Y5517D01*
X330559Y5602D01*
X330536Y5654D01*
X330521Y5709D01*
X330477Y5783D01*
X330442Y5862D01*
X330405Y5905D01*
X330376Y5954D01*
X330313Y6013D01*
X330258Y6078D01*
X330216Y6104D01*
X330169Y6148D01*
X330039Y6214D01*
X329973Y6256D01*
X327244Y7386D01*
X324386Y10244D01*
X322839Y13979D01*
X322839Y18021D01*
X324386Y21756D01*
X327244Y24614D01*
X330979Y26161D01*
X335021Y26161D01*
X338756Y24614D01*
X341614Y21756D01*
X343161Y18021D01*
X343161Y13979D01*
X341614Y10244D01*
X338756Y7386D01*
X336027Y6256D01*
X335953Y6212D01*
X335875Y6177D01*
X335831Y6140D01*
X335782Y6111D01*
X335723Y6049D01*
X335658Y5993D01*
X335626Y5946D01*
X335587Y5905D01*
X335548Y5828D01*
X335500Y5757D01*
X335483Y5703D01*
X335457Y5652D01*
X335440Y5568D01*
X335414Y5486D01*
X335413Y5429D01*
X335402Y5373D01*
X335409Y5288D01*
X335407Y5202D01*
X335421Y5147D01*
X335426Y5090D01*
X335457Y5010D01*
X335479Y4927D01*
X335508Y4878D01*
X335528Y4825D01*
X335580Y4756D01*
X335624Y4682D01*
X335666Y4643D01*
X335700Y4598D01*
X335769Y4546D01*
X335831Y4488D01*
X335882Y4462D01*
X335928Y4428D01*
X336008Y4397D01*
X336084Y4358D01*
X336133Y4350D01*
X336194Y4327D01*
X336338Y4316D01*
X336416Y4303D01*
X354984Y4303D01*
X355070Y4315D01*
X355155Y4317D01*
X355210Y4335D01*
X355266Y4343D01*
X355344Y4378D01*
X355426Y4404D01*
X355473Y4436D01*
X355525Y4459D01*
X355591Y4514D01*
X355662Y4562D01*
X355699Y4606D01*
X355742Y4642D01*
X355790Y4714D01*
X355845Y4780D01*
X355868Y4832D01*
X355900Y4879D01*
X355926Y4961D01*
X355961Y5040D01*
X355969Y5096D01*
X355986Y5150D01*
X355988Y5236D01*
X356000Y5321D01*
X355992Y5377D01*
X355993Y5434D01*
X355971Y5517D01*
X355959Y5602D01*
X355936Y5654D01*
X355921Y5709D01*
X355877Y5783D01*
X355842Y5862D01*
X355805Y5905D01*
X355776Y5954D01*
X355713Y6013D01*
X355658Y6078D01*
X355616Y6104D01*
X355569Y6148D01*
X355439Y6214D01*
X355373Y6256D01*
X352644Y7386D01*
X349786Y10244D01*
X348239Y13979D01*
X348239Y18021D01*
X349786Y21756D01*
X352644Y24614D01*
X356379Y26161D01*
X360421Y26161D01*
X364156Y24614D01*
X367014Y21756D01*
X368561Y18021D01*
X368561Y13979D01*
X367014Y10244D01*
X364156Y7386D01*
X361427Y6256D01*
X361353Y6212D01*
X361275Y6177D01*
X361231Y6140D01*
X361182Y6111D01*
X361123Y6049D01*
X361058Y5993D01*
X361026Y5946D01*
X360987Y5905D01*
X360948Y5828D01*
X360900Y5757D01*
X360883Y5703D01*
X360857Y5652D01*
X360840Y5568D01*
X360814Y5486D01*
X360813Y5429D01*
X360802Y5373D01*
X360809Y5288D01*
X360807Y5202D01*
X360821Y5147D01*
X360826Y5090D01*
X360857Y5010D01*
X360879Y4927D01*
X360908Y4878D01*
X360928Y4825D01*
X360980Y4756D01*
X361024Y4682D01*
X361066Y4643D01*
X361100Y4598D01*
X361169Y4546D01*
X361231Y4488D01*
X361282Y4462D01*
X361328Y4428D01*
X361408Y4397D01*
X361484Y4358D01*
X361533Y4350D01*
X361594Y4327D01*
X361738Y4316D01*
X361816Y4303D01*
X380384Y4303D01*
X380470Y4315D01*
X380555Y4317D01*
X380610Y4335D01*
X380666Y4343D01*
X380744Y4378D01*
X380826Y4404D01*
X380873Y4436D01*
X380925Y4459D01*
X380991Y4514D01*
X381062Y4562D01*
X381099Y4606D01*
X381142Y4642D01*
X381190Y4714D01*
X381245Y4780D01*
X381268Y4832D01*
X381300Y4879D01*
X381326Y4961D01*
X381361Y5040D01*
X381369Y5096D01*
X381386Y5150D01*
X381388Y5236D01*
X381400Y5321D01*
X381392Y5377D01*
X381393Y5434D01*
X381371Y5517D01*
X381359Y5602D01*
X381336Y5654D01*
X381321Y5709D01*
X381277Y5783D01*
X381242Y5862D01*
X381205Y5905D01*
X381176Y5954D01*
X381113Y6013D01*
X381058Y6078D01*
X381016Y6104D01*
X380969Y6148D01*
X380839Y6214D01*
X380773Y6256D01*
X378044Y7386D01*
X375186Y10244D01*
X373639Y13979D01*
X373639Y18021D01*
X375186Y21756D01*
X378044Y24614D01*
X381779Y26161D01*
X385821Y26161D01*
X389556Y24614D01*
X392414Y21756D01*
X393961Y18021D01*
X393961Y13979D01*
X392414Y10244D01*
X389556Y7386D01*
X386827Y6256D01*
X386753Y6212D01*
X386675Y6177D01*
X386631Y6140D01*
X386582Y6111D01*
X386523Y6049D01*
X386458Y5993D01*
X386426Y5946D01*
X386387Y5905D01*
X386348Y5828D01*
X386300Y5757D01*
X386283Y5703D01*
X386257Y5652D01*
X386240Y5568D01*
X386214Y5486D01*
X386213Y5429D01*
X386202Y5373D01*
X386209Y5288D01*
X386207Y5202D01*
X386221Y5147D01*
X386226Y5090D01*
X386257Y5010D01*
X386279Y4927D01*
X386308Y4878D01*
X386328Y4825D01*
X386380Y4756D01*
X386424Y4682D01*
X386466Y4643D01*
X386500Y4598D01*
X386569Y4546D01*
X386631Y4488D01*
X386682Y4462D01*
X386728Y4428D01*
X386808Y4397D01*
X386884Y4358D01*
X386933Y4350D01*
X386994Y4327D01*
X387138Y4316D01*
X387216Y4303D01*
X405784Y4303D01*
X405870Y4315D01*
X405955Y4317D01*
X406010Y4335D01*
X406066Y4343D01*
X406144Y4378D01*
X406226Y4404D01*
X406273Y4436D01*
X406325Y4459D01*
X406391Y4514D01*
X406462Y4562D01*
X406499Y4606D01*
X406542Y4642D01*
X406590Y4714D01*
X406645Y4780D01*
X406668Y4832D01*
X406700Y4879D01*
X406726Y4961D01*
X406761Y5040D01*
X406769Y5096D01*
X406786Y5150D01*
X406788Y5236D01*
X406800Y5321D01*
X406792Y5377D01*
X406793Y5434D01*
X406771Y5517D01*
X406759Y5602D01*
X406736Y5654D01*
X406721Y5709D01*
X406677Y5783D01*
X406642Y5862D01*
X406605Y5905D01*
X406576Y5954D01*
X406513Y6013D01*
X406458Y6078D01*
X406416Y6104D01*
X406369Y6148D01*
X406239Y6214D01*
X406173Y6256D01*
X403444Y7386D01*
X400586Y10244D01*
X399039Y13979D01*
X399039Y18021D01*
X400586Y21756D01*
X403444Y24614D01*
X407179Y26161D01*
X411221Y26161D01*
X414956Y24614D01*
X417814Y21756D01*
X419361Y18021D01*
X419361Y13979D01*
X417814Y10244D01*
X414956Y7386D01*
X412227Y6256D01*
X412153Y6212D01*
X412075Y6177D01*
X412031Y6140D01*
X411982Y6111D01*
X411923Y6049D01*
X411858Y5993D01*
X411826Y5946D01*
X411787Y5905D01*
X411748Y5828D01*
X411700Y5757D01*
X411683Y5703D01*
X411657Y5652D01*
X411640Y5568D01*
X411614Y5486D01*
X411613Y5429D01*
X411602Y5373D01*
X411609Y5288D01*
X411607Y5202D01*
X411621Y5147D01*
X411626Y5090D01*
X411657Y5010D01*
X411679Y4927D01*
X411708Y4878D01*
X411728Y4825D01*
X411780Y4756D01*
X411824Y4682D01*
X411866Y4643D01*
X411900Y4598D01*
X411969Y4546D01*
X412031Y4488D01*
X412082Y4462D01*
X412128Y4428D01*
X412208Y4397D01*
X412284Y4358D01*
X412333Y4350D01*
X412394Y4327D01*
X412538Y4316D01*
X412616Y4303D01*
X431184Y4303D01*
X431270Y4315D01*
X431355Y4317D01*
X431410Y4335D01*
X431466Y4343D01*
X431544Y4378D01*
X431626Y4404D01*
X431673Y4436D01*
X431725Y4459D01*
X431791Y4514D01*
X431862Y4562D01*
X431899Y4606D01*
X431942Y4642D01*
X431990Y4714D01*
X432045Y4780D01*
X432068Y4832D01*
X432100Y4879D01*
X432126Y4961D01*
X432161Y5040D01*
X432169Y5096D01*
X432186Y5150D01*
X432188Y5236D01*
X432200Y5321D01*
X432192Y5377D01*
X432193Y5434D01*
X432171Y5517D01*
X432159Y5602D01*
X432136Y5654D01*
X432121Y5709D01*
X432077Y5783D01*
X432042Y5862D01*
X432005Y5905D01*
X431976Y5954D01*
X431913Y6013D01*
X431858Y6078D01*
X431816Y6104D01*
X431769Y6148D01*
X431639Y6214D01*
X431573Y6256D01*
X428844Y7386D01*
X425986Y10244D01*
X424439Y13979D01*
X424439Y18021D01*
X425986Y21756D01*
X428844Y24614D01*
X432579Y26161D01*
X436621Y26161D01*
X440356Y24614D01*
X443214Y21756D01*
X444761Y18021D01*
X444761Y13979D01*
X443214Y10244D01*
X440356Y7386D01*
X437627Y6256D01*
X437553Y6212D01*
X437475Y6177D01*
X437431Y6140D01*
X437382Y6111D01*
X437323Y6049D01*
X437258Y5993D01*
X437226Y5946D01*
X437187Y5905D01*
X437148Y5828D01*
X437100Y5757D01*
X437083Y5703D01*
X437057Y5652D01*
X437040Y5568D01*
X437014Y5486D01*
X437013Y5429D01*
X437002Y5373D01*
X437009Y5288D01*
X437007Y5202D01*
X437021Y5147D01*
X437026Y5090D01*
X437057Y5010D01*
X437079Y4927D01*
X437108Y4878D01*
X437128Y4825D01*
X437180Y4756D01*
X437224Y4682D01*
X437266Y4643D01*
X437300Y4598D01*
X437369Y4546D01*
X437431Y4488D01*
X437482Y4462D01*
X437528Y4428D01*
X437608Y4397D01*
X437684Y4358D01*
X437733Y4350D01*
X437794Y4327D01*
X437938Y4316D01*
X438016Y4303D01*
X456710Y4303D01*
X456834Y4320D01*
X456959Y4334D01*
X456974Y4340D01*
X456991Y4343D01*
X457106Y4394D01*
X457222Y4441D01*
X457235Y4452D01*
X457251Y4459D01*
X457346Y4540D01*
X457445Y4618D01*
X457455Y4632D01*
X457468Y4642D01*
X457537Y4747D01*
X457610Y4849D01*
X457616Y4865D01*
X457625Y4879D01*
X457663Y4999D01*
X457705Y5117D01*
X457706Y5134D01*
X457711Y5150D01*
X457714Y5275D01*
X457722Y5401D01*
X457718Y5417D01*
X457718Y5434D01*
X457687Y5556D01*
X457659Y5678D01*
X457651Y5693D01*
X457646Y5709D01*
X457582Y5817D01*
X457522Y5927D01*
X457510Y5939D01*
X457501Y5954D01*
X457410Y6040D01*
X457321Y6128D01*
X457307Y6136D01*
X457294Y6148D01*
X457041Y6278D01*
X457032Y6279D01*
X457023Y6284D01*
X456100Y6584D01*
X454675Y7310D01*
X453381Y8250D01*
X452250Y9381D01*
X451310Y10675D01*
X450584Y12100D01*
X450089Y13621D01*
X450034Y13969D01*
X458984Y13969D01*
X459042Y13977D01*
X459100Y13975D01*
X459182Y13997D01*
X459265Y14009D01*
X459319Y14033D01*
X459375Y14047D01*
X459448Y14090D01*
X459525Y14125D01*
X459569Y14163D01*
X459620Y14193D01*
X459677Y14254D01*
X459742Y14309D01*
X459774Y14357D01*
X459814Y14400D01*
X459853Y14475D01*
X459899Y14545D01*
X459917Y14601D01*
X459944Y14653D01*
X459955Y14721D01*
X459985Y14816D01*
X459988Y14916D01*
X459999Y14984D01*
X459999Y16001D01*
X460001Y16001D01*
X460001Y14984D01*
X460009Y14926D01*
X460008Y14868D01*
X460029Y14786D01*
X460041Y14703D01*
X460065Y14649D01*
X460079Y14593D01*
X460122Y14520D01*
X460157Y14443D01*
X460195Y14398D01*
X460225Y14348D01*
X460286Y14290D01*
X460341Y14226D01*
X460389Y14194D01*
X460432Y14154D01*
X460507Y14115D01*
X460577Y14069D01*
X460633Y14051D01*
X460685Y14024D01*
X460753Y14013D01*
X460848Y13983D01*
X460948Y13980D01*
X461016Y13969D01*
X469966Y13969D01*
X469911Y13621D01*
X469416Y12100D01*
X468690Y10675D01*
X467750Y9381D01*
X466619Y8250D01*
X465325Y7310D01*
X463900Y6584D01*
X462977Y6284D01*
X462864Y6228D01*
X462749Y6177D01*
X462737Y6166D01*
X462721Y6159D01*
X462628Y6074D01*
X462532Y5993D01*
X462523Y5979D01*
X462510Y5968D01*
X462444Y5861D01*
X462375Y5757D01*
X462370Y5741D01*
X462361Y5726D01*
X462327Y5606D01*
X462289Y5486D01*
X462289Y5469D01*
X462284Y5453D01*
X462285Y5327D01*
X462282Y5202D01*
X462286Y5185D01*
X462286Y5168D01*
X462322Y5048D01*
X462354Y4927D01*
X462362Y4912D01*
X462367Y4896D01*
X462435Y4790D01*
X462499Y4682D01*
X462511Y4671D01*
X462520Y4656D01*
X462614Y4574D01*
X462706Y4488D01*
X462721Y4480D01*
X462734Y4469D01*
X462848Y4415D01*
X462959Y4358D01*
X462974Y4356D01*
X462991Y4348D01*
X463272Y4303D01*
X463281Y4304D01*
X463290Y4303D01*
X487929Y4303D01*
X487985Y4311D01*
X488028Y4308D01*
X490516Y4553D01*
X490793Y4620D01*
X490799Y4624D01*
X490805Y4625D01*
X495403Y6529D01*
X495429Y6545D01*
X495459Y6555D01*
X495523Y6600D01*
X495648Y6674D01*
X495692Y6721D01*
X495732Y6749D01*
X499251Y10268D01*
X499269Y10293D01*
X499293Y10313D01*
X499335Y10379D01*
X499422Y10495D01*
X499444Y10555D01*
X499471Y10597D01*
X501375Y15194D01*
X501446Y15470D01*
X501446Y15477D01*
X501447Y15484D01*
X501692Y17972D01*
X501690Y18028D01*
X501697Y18071D01*
X501697Y63500D01*
X501689Y63558D01*
X501691Y63616D01*
X501669Y63698D01*
X501657Y63782D01*
X501634Y63835D01*
X501619Y63891D01*
X501576Y63964D01*
X501541Y64041D01*
X501503Y64086D01*
X501474Y64136D01*
X501412Y64194D01*
X501358Y64258D01*
X501309Y64290D01*
X501266Y64330D01*
X501191Y64369D01*
X501121Y64416D01*
X501065Y64433D01*
X501013Y64460D01*
X500945Y64471D01*
X500850Y64501D01*
X500750Y64504D01*
X500682Y64515D01*
X458515Y64515D01*
X458515Y254985D01*
X500682Y254985D01*
X500740Y254993D01*
X500798Y254991D01*
X500880Y255013D01*
X500964Y255025D01*
X501017Y255049D01*
X501073Y255063D01*
X501146Y255106D01*
X501223Y255141D01*
X501268Y255179D01*
X501318Y255209D01*
X501376Y255270D01*
X501440Y255325D01*
X501472Y255373D01*
X501512Y255416D01*
X501551Y255491D01*
X501598Y255561D01*
X501615Y255617D01*
X501642Y255669D01*
X501653Y255737D01*
X501683Y255832D01*
X501686Y255932D01*
X501697Y256000D01*
X501697Y483929D01*
X501689Y483985D01*
X501692Y484028D01*
X501447Y486516D01*
X501380Y486793D01*
X501376Y486799D01*
X501375Y486805D01*
X499471Y491403D01*
X499455Y491429D01*
X499445Y491459D01*
X499400Y491523D01*
X499326Y491648D01*
X499279Y491692D01*
X499251Y491732D01*
X495732Y495251D01*
X495707Y495269D01*
X495687Y495293D01*
X495621Y495335D01*
X495505Y495422D01*
X495445Y495444D01*
X495403Y495471D01*
X490805Y497375D01*
X490530Y497446D01*
X490523Y497446D01*
X490516Y497447D01*
X488028Y497692D01*
X487972Y497690D01*
X487929Y497697D01*
X452416Y497697D01*
X452330Y497685D01*
X452245Y497683D01*
X452190Y497665D01*
X452134Y497657D01*
X452056Y497622D01*
X451974Y497596D01*
X451927Y497564D01*
X451875Y497541D01*
X451809Y497486D01*
X451738Y497438D01*
X451701Y497394D01*
X451658Y497358D01*
X451610Y497286D01*
X451555Y497220D01*
X451532Y497168D01*
X451500Y497121D01*
X451474Y497039D01*
X451439Y496960D01*
X451431Y496904D01*
X451414Y496850D01*
X451412Y496764D01*
X451400Y496679D01*
X451408Y496623D01*
X451407Y496566D01*
X451429Y496483D01*
X451441Y496397D01*
X451464Y496346D01*
X451479Y496291D01*
X451523Y496217D01*
X451558Y496138D01*
X451595Y496095D01*
X451624Y496046D01*
X451687Y495987D01*
X451742Y495922D01*
X451784Y495896D01*
X451831Y495852D01*
X451960Y495786D01*
X452027Y495744D01*
X454756Y494614D01*
X457614Y491756D01*
X459161Y488021D01*
X459161Y483979D01*
X457614Y480244D01*
X454756Y477386D01*
X451021Y475839D01*
X446979Y475839D01*
X443244Y477386D01*
X440386Y480244D01*
X438839Y483979D01*
X438839Y488021D01*
X440386Y491756D01*
X443244Y494614D01*
X445973Y495744D01*
X446047Y495788D01*
X446125Y495823D01*
X446169Y495860D01*
X446218Y495889D01*
X446277Y495951D01*
X446342Y496007D01*
X446374Y496054D01*
X446413Y496095D01*
X446452Y496172D01*
X446500Y496243D01*
X446517Y496297D01*
X446543Y496348D01*
X446560Y496432D01*
X446586Y496514D01*
X446587Y496571D01*
X446598Y496627D01*
X446591Y496712D01*
X446593Y496798D01*
X446579Y496853D01*
X446574Y496910D01*
X446543Y496990D01*
X446521Y497073D01*
X446492Y497122D01*
X446472Y497175D01*
X446420Y497244D01*
X446376Y497318D01*
X446335Y497357D01*
X446300Y497402D01*
X446231Y497454D01*
X446169Y497512D01*
X446118Y497538D01*
X446072Y497572D01*
X445992Y497603D01*
X445916Y497642D01*
X445867Y497650D01*
X445806Y497673D01*
X445662Y497684D01*
X445584Y497697D01*
X427016Y497697D01*
X426930Y497685D01*
X426845Y497683D01*
X426790Y497665D01*
X426734Y497657D01*
X426656Y497622D01*
X426574Y497596D01*
X426527Y497564D01*
X426475Y497541D01*
X426409Y497486D01*
X426338Y497438D01*
X426301Y497394D01*
X426258Y497358D01*
X426210Y497286D01*
X426155Y497220D01*
X426132Y497168D01*
X426100Y497121D01*
X426074Y497039D01*
X426039Y496960D01*
X426031Y496904D01*
X426014Y496850D01*
X426012Y496764D01*
X426000Y496679D01*
X426008Y496623D01*
X426007Y496566D01*
X426029Y496483D01*
X426041Y496397D01*
X426064Y496346D01*
X426079Y496291D01*
X426123Y496217D01*
X426158Y496138D01*
X426195Y496095D01*
X426224Y496046D01*
X426287Y495987D01*
X426342Y495922D01*
X426384Y495896D01*
X426431Y495852D01*
X426560Y495786D01*
X426627Y495744D01*
X429356Y494614D01*
X432214Y491756D01*
X433761Y488021D01*
X433761Y483979D01*
X432214Y480244D01*
X429356Y477386D01*
X425621Y475839D01*
X421579Y475839D01*
X417844Y477386D01*
X414986Y480244D01*
X413439Y483979D01*
X413439Y488021D01*
X414986Y491756D01*
X417844Y494614D01*
X420573Y495744D01*
X420647Y495788D01*
X420725Y495823D01*
X420769Y495860D01*
X420818Y495889D01*
X420877Y495951D01*
X420942Y496007D01*
X420974Y496054D01*
X421013Y496095D01*
X421052Y496172D01*
X421100Y496243D01*
X421117Y496297D01*
X421143Y496348D01*
X421160Y496432D01*
X421186Y496514D01*
X421187Y496571D01*
X421198Y496627D01*
X421191Y496712D01*
X421193Y496798D01*
X421179Y496853D01*
X421174Y496910D01*
X421143Y496990D01*
X421121Y497073D01*
X421092Y497122D01*
X421072Y497175D01*
X421020Y497244D01*
X420976Y497318D01*
X420935Y497357D01*
X420900Y497402D01*
X420831Y497454D01*
X420769Y497512D01*
X420718Y497538D01*
X420672Y497572D01*
X420592Y497603D01*
X420516Y497642D01*
X420467Y497650D01*
X420406Y497673D01*
X420262Y497684D01*
X420184Y497697D01*
X401616Y497697D01*
X401530Y497685D01*
X401445Y497683D01*
X401390Y497665D01*
X401334Y497657D01*
X401256Y497622D01*
X401174Y497596D01*
X401127Y497564D01*
X401075Y497541D01*
X401009Y497486D01*
X400938Y497438D01*
X400901Y497394D01*
X400858Y497358D01*
X400810Y497286D01*
X400755Y497220D01*
X400732Y497168D01*
X400700Y497121D01*
X400674Y497039D01*
X400639Y496960D01*
X400631Y496904D01*
X400614Y496850D01*
X400612Y496764D01*
X400600Y496679D01*
X400608Y496623D01*
X400607Y496566D01*
X400629Y496483D01*
X400641Y496397D01*
X400664Y496346D01*
X400679Y496291D01*
X400723Y496217D01*
X400758Y496138D01*
X400795Y496095D01*
X400824Y496046D01*
X400887Y495987D01*
X400942Y495922D01*
X400984Y495896D01*
X401031Y495852D01*
X401160Y495786D01*
X401227Y495744D01*
X403956Y494614D01*
X406814Y491756D01*
X408361Y488021D01*
X408361Y483979D01*
X406814Y480244D01*
X403956Y477386D01*
X400221Y475839D01*
X396179Y475839D01*
X392444Y477386D01*
X389586Y480244D01*
X388039Y483979D01*
X388039Y488021D01*
X389586Y491756D01*
X392444Y494614D01*
X395173Y495744D01*
X395247Y495788D01*
X395325Y495823D01*
X395369Y495860D01*
X395418Y495889D01*
X395477Y495951D01*
X395542Y496007D01*
X395574Y496054D01*
X395613Y496095D01*
X395652Y496172D01*
X395700Y496243D01*
X395717Y496297D01*
X395743Y496348D01*
X395760Y496432D01*
X395786Y496514D01*
X395787Y496571D01*
X395798Y496627D01*
X395791Y496712D01*
X395793Y496798D01*
X395779Y496853D01*
X395774Y496910D01*
X395743Y496990D01*
X395721Y497073D01*
X395692Y497122D01*
X395672Y497175D01*
X395620Y497244D01*
X395576Y497318D01*
X395535Y497357D01*
X395500Y497402D01*
X395431Y497454D01*
X395369Y497512D01*
X395318Y497538D01*
X395272Y497572D01*
X395192Y497603D01*
X395116Y497642D01*
X395067Y497650D01*
X395006Y497673D01*
X394862Y497684D01*
X394784Y497697D01*
X376216Y497697D01*
X376130Y497685D01*
X376045Y497683D01*
X375990Y497665D01*
X375934Y497657D01*
X375856Y497622D01*
X375774Y497596D01*
X375727Y497564D01*
X375675Y497541D01*
X375609Y497486D01*
X375538Y497438D01*
X375501Y497394D01*
X375458Y497358D01*
X375410Y497286D01*
X375355Y497220D01*
X375332Y497168D01*
X375300Y497121D01*
X375274Y497039D01*
X375239Y496960D01*
X375231Y496904D01*
X375214Y496850D01*
X375212Y496764D01*
X375200Y496679D01*
X375208Y496623D01*
X375207Y496566D01*
X375229Y496483D01*
X375241Y496397D01*
X375264Y496346D01*
X375279Y496291D01*
X375323Y496217D01*
X375358Y496138D01*
X375395Y496095D01*
X375424Y496046D01*
X375487Y495987D01*
X375542Y495922D01*
X375584Y495896D01*
X375631Y495852D01*
X375760Y495786D01*
X375827Y495744D01*
X378556Y494614D01*
X381414Y491756D01*
X382961Y488021D01*
X382961Y483979D01*
X381414Y480244D01*
X378556Y477386D01*
X374821Y475839D01*
X370779Y475839D01*
X367044Y477386D01*
X364186Y480244D01*
X362639Y483979D01*
X362639Y488021D01*
X364186Y491756D01*
X367044Y494614D01*
X369773Y495744D01*
X369847Y495788D01*
X369925Y495823D01*
X369969Y495860D01*
X370018Y495889D01*
X370077Y495951D01*
X370142Y496007D01*
X370174Y496054D01*
X370213Y496095D01*
X370252Y496172D01*
X370300Y496243D01*
X370317Y496297D01*
X370343Y496348D01*
X370360Y496432D01*
X370386Y496514D01*
X370387Y496571D01*
X370398Y496627D01*
X370391Y496712D01*
X370393Y496798D01*
X370379Y496853D01*
X370374Y496910D01*
X370343Y496990D01*
X370321Y497073D01*
X370292Y497122D01*
X370272Y497175D01*
X370220Y497244D01*
X370176Y497318D01*
X370135Y497357D01*
X370100Y497402D01*
X370031Y497454D01*
X369969Y497512D01*
X369918Y497538D01*
X369872Y497572D01*
X369792Y497603D01*
X369716Y497642D01*
X369667Y497650D01*
X369606Y497673D01*
X369462Y497684D01*
X369384Y497697D01*
X350816Y497697D01*
X350730Y497685D01*
X350645Y497683D01*
X350590Y497665D01*
X350534Y497657D01*
X350456Y497622D01*
X350374Y497596D01*
X350327Y497564D01*
X350275Y497541D01*
X350209Y497486D01*
X350138Y497438D01*
X350101Y497394D01*
X350058Y497358D01*
X350010Y497286D01*
X349955Y497220D01*
X349932Y497168D01*
X349900Y497121D01*
X349874Y497039D01*
X349839Y496960D01*
X349831Y496904D01*
X349814Y496850D01*
X349812Y496764D01*
X349800Y496679D01*
X349808Y496623D01*
X349807Y496566D01*
X349829Y496483D01*
X349841Y496398D01*
X349864Y496346D01*
X349879Y496291D01*
X349923Y496217D01*
X349958Y496138D01*
X349995Y496095D01*
X350024Y496046D01*
X350087Y495987D01*
X350142Y495922D01*
X350184Y495896D01*
X350231Y495852D01*
X350361Y495786D01*
X350427Y495744D01*
X353156Y494614D01*
X356014Y491756D01*
X357561Y488021D01*
X357561Y483979D01*
X356014Y480244D01*
X353156Y477386D01*
X349421Y475839D01*
X345379Y475839D01*
X341644Y477386D01*
X338786Y480244D01*
X337239Y483979D01*
X337239Y488021D01*
X338786Y491756D01*
X341644Y494614D01*
X344373Y495744D01*
X344447Y495788D01*
X344525Y495823D01*
X344569Y495860D01*
X344618Y495889D01*
X344677Y495951D01*
X344742Y496007D01*
X344774Y496054D01*
X344813Y496095D01*
X344852Y496172D01*
X344900Y496243D01*
X344917Y496297D01*
X344943Y496348D01*
X344960Y496432D01*
X344986Y496514D01*
X344987Y496571D01*
X344998Y496627D01*
X344991Y496712D01*
X344993Y496798D01*
X344979Y496853D01*
X344974Y496910D01*
X344943Y496990D01*
X344921Y497073D01*
X344892Y497122D01*
X344872Y497175D01*
X344820Y497244D01*
X344776Y497318D01*
X344734Y497357D01*
X344700Y497402D01*
X344631Y497454D01*
X344569Y497512D01*
X344518Y497538D01*
X344472Y497572D01*
X344392Y497603D01*
X344316Y497642D01*
X344267Y497650D01*
X344206Y497673D01*
X344062Y497684D01*
X343984Y497697D01*
X325416Y497697D01*
X325330Y497685D01*
X325245Y497683D01*
X325190Y497665D01*
X325134Y497657D01*
X325056Y497622D01*
X324974Y497596D01*
X324927Y497564D01*
X324875Y497541D01*
X324809Y497486D01*
X324738Y497438D01*
X324701Y497394D01*
X324658Y497358D01*
X324610Y497286D01*
X324555Y497220D01*
X324532Y497168D01*
X324500Y497121D01*
X324474Y497039D01*
X324439Y496960D01*
X324431Y496904D01*
X324414Y496850D01*
X324412Y496764D01*
X324400Y496679D01*
X324408Y496623D01*
X324407Y496566D01*
X324429Y496483D01*
X324441Y496398D01*
X324464Y496346D01*
X324479Y496291D01*
X324523Y496217D01*
X324558Y496138D01*
X324595Y496095D01*
X324624Y496046D01*
X324687Y495987D01*
X324742Y495922D01*
X324784Y495896D01*
X324831Y495852D01*
X324961Y495786D01*
X325027Y495744D01*
X327756Y494614D01*
X330614Y491756D01*
X332161Y488021D01*
X332161Y483979D01*
X330614Y480244D01*
X327756Y477386D01*
X324021Y475839D01*
X319979Y475839D01*
X316244Y477386D01*
X313386Y480244D01*
X311839Y483979D01*
X311839Y488021D01*
X313386Y491756D01*
X316244Y494614D01*
X318973Y495744D01*
X319047Y495788D01*
X319125Y495823D01*
X319169Y495860D01*
X319218Y495889D01*
X319277Y495951D01*
X319342Y496007D01*
X319374Y496054D01*
X319413Y496095D01*
X319452Y496172D01*
X319500Y496243D01*
X319517Y496297D01*
X319543Y496348D01*
X319560Y496432D01*
X319586Y496514D01*
X319587Y496571D01*
X319598Y496627D01*
X319591Y496712D01*
X319593Y496798D01*
X319579Y496853D01*
X319574Y496910D01*
X319543Y496990D01*
X319521Y497073D01*
X319492Y497122D01*
X319472Y497175D01*
X319420Y497244D01*
X319376Y497318D01*
X319334Y497357D01*
X319300Y497402D01*
X319231Y497454D01*
X319169Y497512D01*
X319118Y497538D01*
X319072Y497572D01*
X318992Y497603D01*
X318916Y497642D01*
X318867Y497650D01*
X318806Y497673D01*
X318662Y497684D01*
X318584Y497697D01*
X300016Y497697D01*
X299930Y497685D01*
X299845Y497683D01*
X299790Y497665D01*
X299734Y497657D01*
X299656Y497622D01*
X299574Y497596D01*
X299527Y497564D01*
X299475Y497541D01*
X299409Y497486D01*
X299338Y497438D01*
X299301Y497394D01*
X299258Y497358D01*
X299210Y497286D01*
X299155Y497220D01*
X299132Y497168D01*
X299100Y497121D01*
X299074Y497039D01*
X299039Y496960D01*
X299031Y496904D01*
X299014Y496850D01*
X299012Y496764D01*
X299000Y496679D01*
X299008Y496623D01*
X299007Y496566D01*
X299029Y496483D01*
X299041Y496398D01*
X299064Y496346D01*
X299079Y496291D01*
X299123Y496217D01*
X299158Y496138D01*
X299195Y496095D01*
X299224Y496046D01*
X299287Y495987D01*
X299342Y495922D01*
X299384Y495896D01*
X299431Y495852D01*
X299561Y495786D01*
X299627Y495744D01*
X302356Y494614D01*
X305214Y491756D01*
X306761Y488021D01*
X306761Y483979D01*
X305214Y480244D01*
X302356Y477386D01*
X298621Y475839D01*
X294579Y475839D01*
X290844Y477386D01*
X287986Y480244D01*
X286439Y483979D01*
X286439Y488021D01*
X287986Y491756D01*
X290844Y494614D01*
X293573Y495744D01*
X293647Y495788D01*
X293725Y495823D01*
X293769Y495860D01*
X293818Y495889D01*
X293877Y495951D01*
X293942Y496007D01*
X293974Y496054D01*
X294013Y496095D01*
X294052Y496172D01*
X294100Y496243D01*
X294117Y496297D01*
X294143Y496348D01*
X294160Y496432D01*
X294186Y496514D01*
X294187Y496571D01*
X294198Y496627D01*
X294191Y496712D01*
X294193Y496798D01*
X294179Y496853D01*
X294174Y496910D01*
X294143Y496990D01*
X294121Y497073D01*
X294092Y497122D01*
X294072Y497175D01*
X294020Y497244D01*
X293976Y497318D01*
X293934Y497357D01*
X293900Y497402D01*
X293831Y497454D01*
X293769Y497512D01*
X293718Y497538D01*
X293672Y497572D01*
X293592Y497603D01*
X293516Y497642D01*
X293467Y497650D01*
X293406Y497673D01*
X293262Y497684D01*
X293184Y497697D01*
X274616Y497697D01*
X274530Y497685D01*
X274445Y497683D01*
X274390Y497665D01*
X274334Y497657D01*
X274256Y497622D01*
X274174Y497596D01*
X274127Y497564D01*
X274075Y497541D01*
X274009Y497486D01*
X273938Y497438D01*
X273901Y497394D01*
X273858Y497358D01*
X273810Y497286D01*
X273755Y497220D01*
X273732Y497168D01*
X273700Y497121D01*
X273674Y497039D01*
X273639Y496960D01*
X273631Y496904D01*
X273614Y496850D01*
X273612Y496764D01*
X273600Y496679D01*
X273608Y496623D01*
X273607Y496566D01*
X273629Y496483D01*
X273641Y496398D01*
X273664Y496346D01*
X273679Y496291D01*
X273723Y496217D01*
X273758Y496138D01*
X273795Y496095D01*
X273824Y496046D01*
X273887Y495987D01*
X273942Y495922D01*
X273984Y495896D01*
X274031Y495852D01*
X274161Y495786D01*
X274227Y495744D01*
X276956Y494614D01*
X279814Y491756D01*
X281361Y488021D01*
X281361Y483979D01*
X279814Y480244D01*
X276956Y477386D01*
X273221Y475839D01*
X269179Y475839D01*
X265444Y477386D01*
X262586Y480244D01*
X261039Y483979D01*
X261039Y488021D01*
X262586Y491756D01*
X265444Y494614D01*
X268173Y495744D01*
X268247Y495788D01*
X268325Y495823D01*
X268369Y495860D01*
X268418Y495889D01*
X268477Y495951D01*
X268542Y496007D01*
X268574Y496054D01*
X268613Y496095D01*
X268652Y496172D01*
X268700Y496243D01*
X268717Y496297D01*
X268743Y496348D01*
X268760Y496432D01*
X268786Y496514D01*
X268787Y496571D01*
X268798Y496627D01*
X268791Y496712D01*
X268793Y496798D01*
X268779Y496853D01*
X268774Y496910D01*
X268743Y496990D01*
X268721Y497073D01*
X268692Y497122D01*
X268672Y497175D01*
X268620Y497244D01*
X268576Y497318D01*
X268534Y497357D01*
X268500Y497402D01*
X268431Y497454D01*
X268369Y497512D01*
X268318Y497538D01*
X268272Y497572D01*
X268192Y497603D01*
X268116Y497642D01*
X268067Y497650D01*
X268006Y497673D01*
X267862Y497684D01*
X267784Y497697D01*
X249216Y497697D01*
X249130Y497685D01*
X249045Y497683D01*
X248990Y497665D01*
X248934Y497657D01*
X248856Y497622D01*
X248774Y497596D01*
X248727Y497564D01*
X248675Y497541D01*
X248609Y497486D01*
X248538Y497438D01*
X248501Y497394D01*
X248458Y497358D01*
X248410Y497286D01*
X248355Y497220D01*
X248332Y497168D01*
X248300Y497121D01*
X248274Y497039D01*
X248239Y496960D01*
X248231Y496904D01*
X248214Y496850D01*
X248212Y496764D01*
X248200Y496679D01*
X248208Y496623D01*
X248207Y496566D01*
X248229Y496483D01*
X248241Y496398D01*
X248264Y496346D01*
X248279Y496291D01*
X248323Y496217D01*
X248358Y496138D01*
X248395Y496095D01*
X248424Y496046D01*
X248487Y495987D01*
X248542Y495922D01*
X248584Y495896D01*
X248631Y495852D01*
X248761Y495786D01*
X248827Y495744D01*
X251556Y494614D01*
X254414Y491756D01*
X255961Y488021D01*
X255961Y483979D01*
X254414Y480244D01*
X251556Y477386D01*
X247821Y475839D01*
X243779Y475839D01*
X240044Y477386D01*
X237186Y480244D01*
X235639Y483979D01*
X235639Y488021D01*
X237186Y491756D01*
X240044Y494614D01*
X242773Y495744D01*
X242847Y495788D01*
X242925Y495823D01*
X242969Y495860D01*
X243018Y495889D01*
X243077Y495951D01*
X243142Y496007D01*
X243174Y496054D01*
X243213Y496095D01*
X243252Y496172D01*
X243300Y496243D01*
X243317Y496297D01*
X243343Y496348D01*
X243360Y496432D01*
X243386Y496514D01*
X243387Y496571D01*
X243398Y496627D01*
X243391Y496712D01*
X243393Y496798D01*
X243379Y496853D01*
X243374Y496910D01*
X243343Y496990D01*
X243321Y497073D01*
X243292Y497122D01*
X243272Y497175D01*
X243220Y497244D01*
X243176Y497318D01*
X243134Y497357D01*
X243100Y497402D01*
X243031Y497454D01*
X242969Y497512D01*
X242918Y497538D01*
X242872Y497572D01*
X242792Y497603D01*
X242716Y497642D01*
X242667Y497650D01*
X242606Y497673D01*
X242462Y497684D01*
X242384Y497697D01*
X223816Y497697D01*
X223730Y497685D01*
X223645Y497683D01*
X223590Y497665D01*
X223534Y497657D01*
X223456Y497622D01*
X223374Y497596D01*
X223327Y497564D01*
X223275Y497541D01*
X223209Y497486D01*
X223138Y497438D01*
X223101Y497394D01*
X223058Y497358D01*
X223010Y497286D01*
X222955Y497220D01*
X222932Y497168D01*
X222900Y497121D01*
X222874Y497039D01*
X222839Y496960D01*
X222831Y496904D01*
X222814Y496850D01*
X222812Y496764D01*
X222800Y496679D01*
X222808Y496623D01*
X222807Y496566D01*
X222829Y496483D01*
X222841Y496398D01*
X222864Y496346D01*
X222879Y496291D01*
X222923Y496217D01*
X222958Y496138D01*
X222995Y496095D01*
X223024Y496046D01*
X223087Y495987D01*
X223142Y495922D01*
X223184Y495896D01*
X223231Y495852D01*
X223361Y495786D01*
X223427Y495744D01*
X226156Y494614D01*
X229014Y491756D01*
X230561Y488021D01*
X230561Y483979D01*
X229014Y480244D01*
X226156Y477386D01*
X222421Y475839D01*
X218379Y475839D01*
X214644Y477386D01*
X211786Y480244D01*
X210239Y483979D01*
X210239Y488021D01*
X211786Y491756D01*
X214644Y494614D01*
X217373Y495744D01*
X217447Y495788D01*
X217525Y495823D01*
X217569Y495860D01*
X217618Y495889D01*
X217677Y495951D01*
X217742Y496007D01*
X217774Y496054D01*
X217813Y496095D01*
X217852Y496172D01*
X217900Y496243D01*
X217917Y496297D01*
X217943Y496348D01*
X217960Y496432D01*
X217986Y496514D01*
X217987Y496571D01*
X217998Y496627D01*
X217991Y496712D01*
X217993Y496798D01*
X217979Y496853D01*
X217974Y496910D01*
X217943Y496990D01*
X217921Y497073D01*
X217892Y497122D01*
X217872Y497175D01*
X217820Y497244D01*
X217776Y497318D01*
X217734Y497357D01*
X217700Y497402D01*
X217631Y497454D01*
X217569Y497512D01*
X217518Y497538D01*
X217472Y497572D01*
X217392Y497603D01*
X217316Y497642D01*
X217267Y497650D01*
X217206Y497673D01*
X217062Y497684D01*
X216984Y497697D01*
X198416Y497697D01*
X198330Y497685D01*
X198245Y497683D01*
X198190Y497665D01*
X198134Y497657D01*
X198056Y497622D01*
X197974Y497596D01*
X197927Y497564D01*
X197875Y497541D01*
X197809Y497486D01*
X197738Y497438D01*
X197701Y497394D01*
X197658Y497358D01*
X197610Y497286D01*
X197555Y497220D01*
X197532Y497168D01*
X197500Y497121D01*
X197474Y497039D01*
X197439Y496960D01*
X197431Y496904D01*
X197414Y496850D01*
X197412Y496764D01*
X197400Y496679D01*
X197408Y496623D01*
X197407Y496566D01*
X197429Y496483D01*
X197441Y496398D01*
X197464Y496346D01*
X197479Y496291D01*
X197523Y496217D01*
X197558Y496138D01*
X197595Y496095D01*
X197624Y496046D01*
X197687Y495987D01*
X197742Y495922D01*
X197784Y495896D01*
X197831Y495852D01*
X197961Y495786D01*
X198027Y495744D01*
X200756Y494614D01*
X203614Y491756D01*
X205161Y488021D01*
X205161Y483979D01*
X203614Y480244D01*
X200756Y477386D01*
X197021Y475839D01*
X192979Y475839D01*
X189244Y477386D01*
X186386Y480244D01*
X184839Y483979D01*
X184839Y488021D01*
X186386Y491756D01*
X189244Y494614D01*
X191973Y495744D01*
X192047Y495788D01*
X192125Y495823D01*
X192169Y495860D01*
X192218Y495889D01*
X192277Y495951D01*
X192342Y496007D01*
X192374Y496054D01*
X192413Y496095D01*
X192452Y496172D01*
X192500Y496243D01*
X192517Y496297D01*
X192543Y496348D01*
X192560Y496432D01*
X192586Y496514D01*
X192587Y496571D01*
X192598Y496627D01*
X192591Y496712D01*
X192593Y496798D01*
X192579Y496853D01*
X192574Y496910D01*
X192543Y496990D01*
X192521Y497073D01*
X192492Y497122D01*
X192472Y497175D01*
X192420Y497244D01*
X192376Y497318D01*
X192334Y497357D01*
X192300Y497402D01*
X192231Y497454D01*
X192169Y497512D01*
X192118Y497538D01*
X192072Y497572D01*
X191992Y497603D01*
X191916Y497642D01*
X191867Y497650D01*
X191806Y497673D01*
X191662Y497684D01*
X191584Y497697D01*
X173016Y497697D01*
X172930Y497685D01*
X172845Y497683D01*
X172790Y497665D01*
X172734Y497657D01*
X172656Y497622D01*
X172574Y497596D01*
X172527Y497564D01*
X172475Y497541D01*
X172409Y497486D01*
X172338Y497438D01*
X172301Y497394D01*
X172258Y497358D01*
X172210Y497286D01*
X172155Y497220D01*
X172132Y497168D01*
X172100Y497121D01*
X172074Y497039D01*
X172039Y496960D01*
X172031Y496904D01*
X172014Y496850D01*
X172012Y496764D01*
X172000Y496679D01*
X172008Y496623D01*
X172007Y496566D01*
X172029Y496483D01*
X172041Y496398D01*
X172064Y496346D01*
X172079Y496291D01*
X172123Y496217D01*
X172158Y496138D01*
X172195Y496095D01*
X172224Y496046D01*
X172287Y495987D01*
X172342Y495922D01*
X172384Y495896D01*
X172431Y495852D01*
X172561Y495786D01*
X172627Y495744D01*
X175356Y494614D01*
X178214Y491756D01*
X179761Y488021D01*
X179761Y483979D01*
X178214Y480244D01*
X175356Y477386D01*
X171621Y475839D01*
X167579Y475839D01*
X163844Y477386D01*
X160986Y480244D01*
X159439Y483979D01*
X159439Y488021D01*
X160986Y491756D01*
X163844Y494614D01*
X166573Y495744D01*
X166647Y495788D01*
X166725Y495823D01*
X166769Y495860D01*
X166818Y495889D01*
X166877Y495951D01*
X166942Y496007D01*
X166974Y496054D01*
X167013Y496095D01*
X167052Y496172D01*
X167100Y496243D01*
X167117Y496297D01*
X167143Y496348D01*
X167160Y496432D01*
X167186Y496514D01*
X167187Y496571D01*
X167198Y496627D01*
X167191Y496712D01*
X167193Y496798D01*
X167179Y496853D01*
X167174Y496910D01*
X167143Y496990D01*
X167121Y497073D01*
X167092Y497122D01*
X167072Y497175D01*
X167020Y497244D01*
X166976Y497318D01*
X166934Y497357D01*
X166900Y497402D01*
X166831Y497454D01*
X166769Y497512D01*
X166718Y497538D01*
X166672Y497572D01*
X166592Y497603D01*
X166516Y497642D01*
X166467Y497650D01*
X166406Y497673D01*
X166262Y497684D01*
X166184Y497697D01*
X147616Y497697D01*
X147530Y497685D01*
X147445Y497683D01*
X147390Y497665D01*
X147334Y497657D01*
X147256Y497622D01*
X147174Y497596D01*
X147127Y497564D01*
X147075Y497541D01*
X147009Y497486D01*
X146938Y497438D01*
X146901Y497394D01*
X146858Y497358D01*
X146810Y497286D01*
X146755Y497220D01*
X146732Y497168D01*
X146700Y497121D01*
X146674Y497039D01*
X146639Y496960D01*
X146631Y496904D01*
X146614Y496850D01*
X146612Y496764D01*
X146600Y496679D01*
X146608Y496623D01*
X146607Y496566D01*
X146629Y496483D01*
X146641Y496398D01*
X146664Y496346D01*
X146679Y496291D01*
X146723Y496217D01*
X146758Y496138D01*
X146795Y496095D01*
X146824Y496046D01*
X146887Y495987D01*
X146942Y495922D01*
X146984Y495896D01*
X147031Y495852D01*
X147161Y495786D01*
X147227Y495744D01*
X149956Y494614D01*
X152814Y491756D01*
X154361Y488021D01*
X154361Y483979D01*
X152814Y480244D01*
X149956Y477386D01*
X148383Y476735D01*
X148382Y476734D01*
X148381Y476734D01*
X148260Y476662D01*
X148139Y476590D01*
X148138Y476589D01*
X148136Y476588D01*
X148039Y476484D01*
X147943Y476384D01*
X147943Y476382D01*
X147942Y476381D01*
X147877Y476256D01*
X147813Y476131D01*
X147813Y476129D01*
X147812Y476128D01*
X147810Y476113D01*
X147758Y475852D01*
X147761Y475822D01*
X147757Y475797D01*
X147757Y467694D01*
X147769Y467607D01*
X147772Y467520D01*
X147789Y467467D01*
X147797Y467412D01*
X147832Y467332D01*
X147859Y467249D01*
X147887Y467210D01*
X147913Y467153D01*
X148009Y467040D01*
X148054Y466976D01*
X158220Y456810D01*
X158290Y456758D01*
X158354Y456698D01*
X158403Y456672D01*
X158447Y456639D01*
X158529Y456608D01*
X158607Y456568D01*
X158654Y456560D01*
X158713Y456538D01*
X158860Y456526D01*
X158938Y456513D01*
X226546Y456513D01*
X298649Y384410D01*
X298719Y384358D01*
X298783Y384298D01*
X298832Y384272D01*
X298876Y384239D01*
X298958Y384208D01*
X299036Y384168D01*
X299083Y384160D01*
X299142Y384138D01*
X299289Y384126D01*
X299367Y384113D01*
X300113Y384113D01*
X300226Y384129D01*
X300341Y384139D01*
X300367Y384149D01*
X300394Y384153D01*
X300499Y384199D01*
X300606Y384241D01*
X300628Y384258D01*
X300653Y384269D01*
X300741Y384343D01*
X300833Y384412D01*
X300849Y384435D01*
X300870Y384452D01*
X300934Y384548D01*
X301003Y384640D01*
X301013Y384666D01*
X301028Y384689D01*
X301063Y384799D01*
X301103Y384906D01*
X301105Y384934D01*
X301114Y384960D01*
X301117Y385075D01*
X301126Y385189D01*
X301120Y385214D01*
X301121Y385244D01*
X301054Y385502D01*
X301051Y385517D01*
X300927Y385814D01*
X300927Y388230D01*
X301852Y390462D01*
X303560Y392170D01*
X305792Y393095D01*
X308208Y393095D01*
X310440Y392170D01*
X311734Y390876D01*
X311804Y390824D01*
X311868Y390764D01*
X311917Y390738D01*
X311961Y390705D01*
X312043Y390674D01*
X312121Y390634D01*
X312168Y390626D01*
X312227Y390604D01*
X312375Y390592D01*
X312452Y390579D01*
X345128Y390579D01*
X345215Y390591D01*
X345302Y390594D01*
X345355Y390611D01*
X345410Y390619D01*
X345490Y390654D01*
X345573Y390681D01*
X345612Y390709D01*
X345669Y390735D01*
X345782Y390831D01*
X345846Y390876D01*
X360164Y405194D01*
X360182Y405218D01*
X360204Y405237D01*
X360267Y405331D01*
X360335Y405421D01*
X360345Y405449D01*
X360362Y405473D01*
X360396Y405581D01*
X360436Y405687D01*
X360439Y405716D01*
X360448Y405744D01*
X360450Y405858D01*
X360460Y405970D01*
X360454Y405999D01*
X360455Y406028D01*
X360426Y406138D01*
X360404Y406249D01*
X360390Y406275D01*
X360383Y406303D01*
X360325Y406401D01*
X360273Y406501D01*
X360253Y406523D01*
X360238Y406548D01*
X360155Y406625D01*
X360077Y406707D01*
X360052Y406722D01*
X360030Y406742D01*
X359930Y406794D01*
X359832Y406851D01*
X359803Y406858D01*
X359777Y406872D01*
X359700Y406885D01*
X359556Y406921D01*
X359494Y406919D01*
X359446Y406927D01*
X358792Y406927D01*
X356560Y407852D01*
X356282Y408130D01*
X356212Y408182D01*
X356148Y408242D01*
X356099Y408268D01*
X356055Y408301D01*
X355973Y408332D01*
X355895Y408372D01*
X355848Y408380D01*
X355789Y408402D01*
X355641Y408414D01*
X355564Y408427D01*
X333965Y408427D01*
X333936Y408423D01*
X333907Y408426D01*
X333796Y408403D01*
X333684Y408387D01*
X333657Y408375D01*
X333628Y408370D01*
X333528Y408318D01*
X333425Y408271D01*
X333402Y408252D01*
X333376Y408239D01*
X333294Y408161D01*
X333208Y408088D01*
X333191Y408063D01*
X333170Y408043D01*
X333113Y407945D01*
X333050Y407851D01*
X333041Y407823D01*
X333026Y407798D01*
X332998Y407688D01*
X332964Y407580D01*
X332963Y407551D01*
X332956Y407522D01*
X332960Y407409D01*
X332957Y407296D01*
X332964Y407267D01*
X332965Y407238D01*
X333000Y407130D01*
X333029Y407021D01*
X333044Y406995D01*
X333053Y406967D01*
X333098Y406904D01*
X333174Y406776D01*
X333220Y406733D01*
X333248Y406694D01*
X333360Y406582D01*
X334323Y404258D01*
X334323Y401742D01*
X333360Y399418D01*
X331582Y397640D01*
X329258Y396677D01*
X326742Y396677D01*
X324418Y397640D01*
X322640Y399418D01*
X321677Y401742D01*
X321677Y404258D01*
X322640Y406582D01*
X322752Y406694D01*
X322770Y406718D01*
X322792Y406737D01*
X322855Y406831D01*
X322923Y406921D01*
X322934Y406949D01*
X322950Y406973D01*
X322984Y407081D01*
X323025Y407187D01*
X323027Y407216D01*
X323036Y407244D01*
X323039Y407357D01*
X323048Y407470D01*
X323042Y407499D01*
X323043Y407528D01*
X323015Y407638D01*
X322992Y407749D01*
X322979Y407775D01*
X322971Y407803D01*
X322914Y407901D01*
X322861Y408001D01*
X322841Y408023D01*
X322826Y408048D01*
X322743Y408125D01*
X322665Y408207D01*
X322640Y408222D01*
X322619Y408242D01*
X322518Y408294D01*
X322420Y408351D01*
X322392Y408358D01*
X322366Y408372D01*
X322288Y408385D01*
X322145Y408421D01*
X322082Y408419D01*
X322035Y408427D01*
X313106Y408427D01*
X270903Y450630D01*
X270833Y450682D01*
X270770Y450742D01*
X270720Y450768D01*
X270676Y450801D01*
X270594Y450832D01*
X270516Y450872D01*
X270469Y450880D01*
X270410Y450902D01*
X270263Y450914D01*
X270185Y450927D01*
X269792Y450927D01*
X267560Y451852D01*
X265852Y453560D01*
X264927Y455792D01*
X264927Y458208D01*
X265852Y460440D01*
X267560Y462148D01*
X269792Y463073D01*
X272208Y463073D01*
X274440Y462148D01*
X276148Y460440D01*
X277073Y458208D01*
X277073Y457815D01*
X277085Y457728D01*
X277088Y457641D01*
X277105Y457588D01*
X277113Y457533D01*
X277148Y457453D01*
X277175Y457370D01*
X277203Y457331D01*
X277229Y457274D01*
X277325Y457160D01*
X277370Y457097D01*
X316597Y417870D01*
X316667Y417818D01*
X316730Y417758D01*
X316780Y417732D01*
X316824Y417699D01*
X316906Y417668D01*
X316984Y417628D01*
X317031Y417620D01*
X317090Y417598D01*
X317237Y417586D01*
X317315Y417573D01*
X355564Y417573D01*
X355651Y417585D01*
X355738Y417588D01*
X355791Y417605D01*
X355846Y417613D01*
X355925Y417648D01*
X356009Y417675D01*
X356048Y417703D01*
X356105Y417729D01*
X356218Y417825D01*
X356282Y417870D01*
X356560Y418148D01*
X358792Y419073D01*
X361208Y419073D01*
X363440Y418148D01*
X365148Y416440D01*
X366073Y414208D01*
X366073Y413554D01*
X366077Y413525D01*
X366074Y413495D01*
X366097Y413384D01*
X366113Y413272D01*
X366125Y413246D01*
X366130Y413217D01*
X366182Y413116D01*
X366229Y413013D01*
X366248Y412990D01*
X366261Y412964D01*
X366339Y412882D01*
X366412Y412796D01*
X366437Y412780D01*
X366457Y412758D01*
X366555Y412701D01*
X366649Y412638D01*
X366677Y412629D01*
X366702Y412615D01*
X366812Y412587D01*
X366920Y412552D01*
X366950Y412552D01*
X366978Y412544D01*
X367091Y412548D01*
X367204Y412545D01*
X367233Y412553D01*
X367262Y412554D01*
X367370Y412588D01*
X367479Y412617D01*
X367505Y412632D01*
X367533Y412641D01*
X367596Y412687D01*
X367724Y412762D01*
X367767Y412808D01*
X367806Y412836D01*
X372146Y417176D01*
X372198Y417246D01*
X372258Y417310D01*
X372284Y417359D01*
X372317Y417403D01*
X372348Y417485D01*
X372388Y417563D01*
X372396Y417610D01*
X372418Y417669D01*
X372430Y417816D01*
X372443Y417894D01*
X372443Y442106D01*
X372431Y442193D01*
X372428Y442280D01*
X372411Y442333D01*
X372403Y442388D01*
X372368Y442468D01*
X372341Y442551D01*
X372313Y442590D01*
X372287Y442647D01*
X372191Y442760D01*
X372146Y442824D01*
X367700Y447270D01*
X367698Y447271D01*
X367697Y447273D01*
X367584Y447357D01*
X367472Y447441D01*
X367471Y447442D01*
X367470Y447443D01*
X367338Y447493D01*
X367207Y447543D01*
X367205Y447543D01*
X367204Y447543D01*
X367064Y447554D01*
X366923Y447566D01*
X366922Y447566D01*
X366920Y447566D01*
X366906Y447563D01*
X366645Y447510D01*
X366618Y447496D01*
X366593Y447490D01*
X365021Y446839D01*
X360979Y446839D01*
X357244Y448386D01*
X354386Y451244D01*
X352839Y454979D01*
X352839Y459021D01*
X354386Y462756D01*
X357244Y465614D01*
X360979Y467161D01*
X365021Y467161D01*
X368756Y465614D01*
X371614Y462756D01*
X373161Y459021D01*
X373161Y454979D01*
X372510Y453407D01*
X372509Y453405D01*
X372508Y453404D01*
X372474Y453271D01*
X372470Y453255D01*
X372457Y453211D01*
X372456Y453200D01*
X372439Y453132D01*
X372439Y453130D01*
X372438Y453128D01*
X372443Y452988D01*
X372447Y452847D01*
X372447Y452846D01*
X372447Y452844D01*
X372493Y452703D01*
X372533Y452577D01*
X372534Y452575D01*
X372535Y452574D01*
X372544Y452561D01*
X372692Y452340D01*
X372715Y452321D01*
X372730Y452300D01*
X377176Y447854D01*
X379557Y445473D01*
X379557Y414527D01*
X348495Y383465D01*
X340945Y383465D01*
X340915Y383461D01*
X340887Y383463D01*
X340855Y383457D01*
X340820Y383457D01*
X340743Y383437D01*
X340664Y383425D01*
X340636Y383413D01*
X340609Y383407D01*
X340580Y383392D01*
X340545Y383383D01*
X340477Y383342D01*
X340404Y383309D01*
X340381Y383289D01*
X340356Y383276D01*
X340333Y383254D01*
X340302Y383236D01*
X340248Y383177D01*
X340187Y383126D01*
X340170Y383100D01*
X340150Y383081D01*
X340134Y383053D01*
X340110Y383027D01*
X340074Y382955D01*
X340030Y382889D01*
X340021Y382859D01*
X340006Y382835D01*
X339998Y382804D01*
X339983Y382772D01*
X339968Y382694D01*
X339944Y382618D01*
X339943Y382587D01*
X339936Y382560D01*
X339937Y382527D01*
X339931Y382493D01*
X339939Y382413D01*
X339937Y382334D01*
X339944Y382304D01*
X339945Y382276D01*
X339955Y382244D01*
X339959Y382210D01*
X339988Y382136D01*
X340009Y382059D01*
X340024Y382033D01*
X340033Y382005D01*
X340050Y381981D01*
X340064Y381946D01*
X340106Y381894D01*
X340154Y381814D01*
X340200Y381771D01*
X340228Y381732D01*
X383588Y338372D01*
X383658Y338319D01*
X383722Y338259D01*
X383771Y338234D01*
X383815Y338201D01*
X383897Y338170D01*
X383975Y338130D01*
X384022Y338122D01*
X384081Y338100D01*
X384228Y338087D01*
X384306Y338074D01*
X386186Y338074D01*
X386260Y338051D01*
X386288Y338050D01*
X386315Y338043D01*
X386430Y338047D01*
X386544Y338044D01*
X386571Y338051D01*
X386599Y338051D01*
X386708Y338087D01*
X386819Y338115D01*
X386843Y338130D01*
X386870Y338138D01*
X386965Y338202D01*
X387064Y338261D01*
X387083Y338281D01*
X387106Y338296D01*
X387180Y338384D01*
X387258Y338468D01*
X387271Y338493D01*
X387289Y338514D01*
X387335Y338619D01*
X387388Y338721D01*
X387392Y338746D01*
X387404Y338774D01*
X387441Y339038D01*
X387443Y339052D01*
X387443Y445824D01*
X387435Y445882D01*
X387437Y445940D01*
X387415Y446022D01*
X387403Y446106D01*
X387380Y446159D01*
X387365Y446215D01*
X387322Y446288D01*
X387287Y446365D01*
X387249Y446410D01*
X387220Y446460D01*
X387158Y446518D01*
X387104Y446582D01*
X387055Y446614D01*
X387012Y446654D01*
X386937Y446693D01*
X386867Y446740D01*
X386811Y446757D01*
X386759Y446784D01*
X386691Y446795D01*
X386596Y446825D01*
X386496Y446828D01*
X386428Y446839D01*
X386379Y446839D01*
X382644Y448386D01*
X379786Y451244D01*
X378239Y454979D01*
X378239Y459021D01*
X379786Y462756D01*
X382644Y465614D01*
X386379Y467161D01*
X390421Y467161D01*
X394156Y465614D01*
X397014Y462756D01*
X398561Y459021D01*
X398561Y454979D01*
X397014Y451244D01*
X394854Y449085D01*
X394802Y449015D01*
X394742Y448951D01*
X394716Y448902D01*
X394683Y448857D01*
X394652Y448776D01*
X394612Y448698D01*
X394604Y448650D01*
X394582Y448592D01*
X394570Y448444D01*
X394557Y448367D01*
X394557Y443438D01*
X394561Y443409D01*
X394558Y443379D01*
X394581Y443268D01*
X394597Y443156D01*
X394609Y443130D01*
X394614Y443101D01*
X394666Y443000D01*
X394713Y442897D01*
X394732Y442874D01*
X394745Y442848D01*
X394823Y442766D01*
X394896Y442680D01*
X394921Y442664D01*
X394941Y442642D01*
X395039Y442585D01*
X395133Y442522D01*
X395161Y442513D01*
X395186Y442499D01*
X395296Y442471D01*
X395404Y442436D01*
X395434Y442436D01*
X395462Y442428D01*
X395575Y442432D01*
X395688Y442429D01*
X395717Y442437D01*
X395746Y442438D01*
X395854Y442472D01*
X395963Y442501D01*
X395989Y442516D01*
X396017Y442525D01*
X396080Y442570D01*
X396208Y442646D01*
X396251Y442692D01*
X396290Y442720D01*
X406870Y453300D01*
X406871Y453302D01*
X406873Y453303D01*
X406961Y453421D01*
X407041Y453528D01*
X407042Y453529D01*
X407043Y453530D01*
X407093Y453664D01*
X407143Y453793D01*
X407143Y453795D01*
X407143Y453796D01*
X407154Y453936D01*
X407166Y454077D01*
X407166Y454078D01*
X407166Y454080D01*
X407163Y454094D01*
X407110Y454355D01*
X407096Y454382D01*
X407090Y454407D01*
X406439Y455979D01*
X406439Y460021D01*
X407986Y463756D01*
X410844Y466614D01*
X414579Y468161D01*
X418621Y468161D01*
X422356Y466614D01*
X425214Y463756D01*
X426761Y460021D01*
X426761Y455979D01*
X425214Y452244D01*
X422356Y449386D01*
X418621Y447839D01*
X414579Y447839D01*
X413007Y448490D01*
X413005Y448491D01*
X413004Y448492D01*
X412871Y448526D01*
X412732Y448561D01*
X412730Y448561D01*
X412728Y448562D01*
X412588Y448557D01*
X412447Y448553D01*
X412446Y448553D01*
X412444Y448553D01*
X412310Y448509D01*
X412177Y448467D01*
X412175Y448466D01*
X412174Y448465D01*
X412161Y448456D01*
X411940Y448308D01*
X411921Y448285D01*
X411900Y448270D01*
X398410Y434780D01*
X398358Y434710D01*
X398298Y434646D01*
X398272Y434597D01*
X398239Y434553D01*
X398208Y434471D01*
X398168Y434393D01*
X398160Y434346D01*
X398138Y434287D01*
X398126Y434140D01*
X398113Y434062D01*
X398113Y269054D01*
X376946Y247887D01*
X345572Y247887D01*
X345514Y247879D01*
X345456Y247881D01*
X345374Y247859D01*
X345290Y247847D01*
X345237Y247824D01*
X345181Y247809D01*
X345108Y247766D01*
X345031Y247731D01*
X344986Y247693D01*
X344936Y247664D01*
X344878Y247602D01*
X344814Y247548D01*
X344782Y247499D01*
X344742Y247456D01*
X344703Y247381D01*
X344656Y247311D01*
X344639Y247255D01*
X344612Y247203D01*
X344601Y247135D01*
X344571Y247040D01*
X344568Y246940D01*
X344557Y246872D01*
X344557Y235452D01*
X344569Y235365D01*
X344572Y235278D01*
X344589Y235225D01*
X344597Y235170D01*
X344632Y235091D01*
X344659Y235007D01*
X344687Y234968D01*
X344713Y234911D01*
X344809Y234798D01*
X344854Y234734D01*
X346148Y233440D01*
X347073Y231208D01*
X347073Y228792D01*
X346148Y226560D01*
X344440Y224852D01*
X342208Y223927D01*
X339792Y223927D01*
X337560Y224852D01*
X335852Y226560D01*
X335438Y227559D01*
X335423Y227584D01*
X335414Y227612D01*
X335351Y227706D01*
X335294Y227804D01*
X335272Y227824D01*
X335256Y227849D01*
X335169Y227921D01*
X335087Y227999D01*
X335061Y228013D01*
X335038Y228032D01*
X334935Y228078D01*
X334834Y228129D01*
X334805Y228135D01*
X334778Y228147D01*
X334666Y228162D01*
X334555Y228184D01*
X334526Y228182D01*
X334497Y228186D01*
X334385Y228170D01*
X334272Y228160D01*
X334244Y228149D01*
X334216Y228145D01*
X334113Y228099D01*
X334007Y228058D01*
X333983Y228040D01*
X333956Y228028D01*
X333870Y227955D01*
X333780Y227886D01*
X333762Y227863D01*
X333740Y227844D01*
X333698Y227777D01*
X333610Y227659D01*
X333588Y227600D01*
X333562Y227559D01*
X333148Y226560D01*
X331440Y224852D01*
X329208Y223927D01*
X326792Y223927D01*
X324560Y224852D01*
X322852Y226560D01*
X321927Y228792D01*
X321927Y231208D01*
X322852Y233440D01*
X324146Y234734D01*
X324198Y234804D01*
X324258Y234868D01*
X324284Y234917D01*
X324317Y234961D01*
X324348Y235043D01*
X324388Y235121D01*
X324396Y235168D01*
X324418Y235227D01*
X324430Y235375D01*
X324443Y235452D01*
X324443Y235525D01*
X324439Y235555D01*
X324442Y235584D01*
X324419Y235695D01*
X324403Y235807D01*
X324391Y235834D01*
X324386Y235862D01*
X324334Y235963D01*
X324287Y236066D01*
X324268Y236089D01*
X324255Y236115D01*
X324177Y236197D01*
X324104Y236283D01*
X324079Y236300D01*
X324059Y236321D01*
X323961Y236378D01*
X323867Y236441D01*
X323839Y236450D01*
X323814Y236465D01*
X323704Y236492D01*
X323596Y236527D01*
X323566Y236527D01*
X323538Y236535D01*
X323425Y236531D01*
X323312Y236534D01*
X323283Y236527D01*
X323254Y236526D01*
X323146Y236491D01*
X323037Y236462D01*
X323011Y236447D01*
X322983Y236438D01*
X322920Y236393D01*
X322792Y236317D01*
X322749Y236271D01*
X322710Y236243D01*
X302273Y215806D01*
X302255Y215782D01*
X302233Y215763D01*
X302170Y215669D01*
X302102Y215579D01*
X302091Y215551D01*
X302075Y215527D01*
X302041Y215419D01*
X302001Y215313D01*
X301998Y215284D01*
X301989Y215256D01*
X301986Y215142D01*
X301977Y215030D01*
X301983Y215001D01*
X301982Y214972D01*
X302011Y214862D01*
X302033Y214751D01*
X302046Y214725D01*
X302054Y214697D01*
X302112Y214599D01*
X302164Y214499D01*
X302184Y214477D01*
X302199Y214452D01*
X302282Y214375D01*
X302360Y214293D01*
X302385Y214278D01*
X302406Y214258D01*
X302507Y214206D01*
X302605Y214149D01*
X302633Y214142D01*
X302660Y214128D01*
X302737Y214115D01*
X302880Y214079D01*
X302943Y214081D01*
X302991Y214073D01*
X305208Y214073D01*
X307440Y213148D01*
X309148Y211440D01*
X310073Y209208D01*
X310073Y206792D01*
X309148Y204560D01*
X307440Y202852D01*
X305208Y201927D01*
X302792Y201927D01*
X300560Y202852D01*
X298852Y204560D01*
X297927Y206792D01*
X297927Y209009D01*
X297923Y209039D01*
X297926Y209068D01*
X297903Y209179D01*
X297887Y209291D01*
X297875Y209318D01*
X297870Y209346D01*
X297818Y209447D01*
X297771Y209550D01*
X297752Y209573D01*
X297739Y209599D01*
X297661Y209681D01*
X297588Y209767D01*
X297563Y209784D01*
X297543Y209805D01*
X297445Y209862D01*
X297351Y209925D01*
X297323Y209934D01*
X297298Y209949D01*
X297188Y209976D01*
X297080Y210011D01*
X297050Y210011D01*
X297022Y210019D01*
X296909Y210015D01*
X296796Y210018D01*
X296767Y210011D01*
X296738Y210010D01*
X296630Y209975D01*
X296521Y209946D01*
X296495Y209931D01*
X296467Y209922D01*
X296404Y209877D01*
X296276Y209801D01*
X296233Y209755D01*
X296194Y209727D01*
X276870Y190403D01*
X273894Y187427D01*
X209259Y187427D01*
X209145Y187411D01*
X209031Y187401D01*
X209005Y187391D01*
X208977Y187387D01*
X208872Y187340D01*
X208765Y187299D01*
X208743Y187283D01*
X208718Y187271D01*
X208630Y187197D01*
X208539Y187128D01*
X208522Y187105D01*
X208501Y187088D01*
X208437Y186992D01*
X208368Y186900D01*
X208359Y186874D01*
X208343Y186851D01*
X208308Y186741D01*
X208268Y186634D01*
X208266Y186606D01*
X208257Y186580D01*
X208254Y186465D01*
X208245Y186351D01*
X208251Y186326D01*
X208250Y186296D01*
X208317Y186039D01*
X208321Y186023D01*
X209073Y184208D01*
X209073Y181893D01*
X209077Y181864D01*
X209074Y181835D01*
X209097Y181724D01*
X209113Y181612D01*
X209125Y181585D01*
X209130Y181556D01*
X209183Y181455D01*
X209229Y181352D01*
X209248Y181330D01*
X209261Y181304D01*
X209339Y181222D01*
X209412Y181135D01*
X209437Y181119D01*
X209457Y181098D01*
X209555Y181041D01*
X209649Y180978D01*
X209677Y180969D01*
X209702Y180954D01*
X209812Y180926D01*
X209920Y180892D01*
X209950Y180891D01*
X209978Y180884D01*
X210091Y180888D01*
X210204Y180885D01*
X210233Y180892D01*
X210262Y180893D01*
X210370Y180928D01*
X210479Y180956D01*
X210505Y180971D01*
X210533Y180980D01*
X210597Y181026D01*
X210724Y181102D01*
X210767Y181147D01*
X210806Y181175D01*
X212244Y182614D01*
X215979Y184161D01*
X220021Y184161D01*
X223756Y182614D01*
X226614Y179756D01*
X227265Y178183D01*
X227266Y178182D01*
X227266Y178181D01*
X227338Y178060D01*
X227410Y177939D01*
X227411Y177938D01*
X227412Y177936D01*
X227516Y177839D01*
X227616Y177743D01*
X227618Y177743D01*
X227619Y177742D01*
X227744Y177677D01*
X227869Y177613D01*
X227871Y177613D01*
X227872Y177612D01*
X227887Y177610D01*
X228148Y177558D01*
X228178Y177561D01*
X228203Y177557D01*
X309106Y177557D01*
X309193Y177569D01*
X309280Y177572D01*
X309333Y177589D01*
X309388Y177597D01*
X309468Y177632D01*
X309551Y177659D01*
X309590Y177687D01*
X309647Y177713D01*
X309760Y177809D01*
X309824Y177854D01*
X349630Y217660D01*
X349682Y217730D01*
X349742Y217794D01*
X349768Y217843D01*
X349801Y217887D01*
X349832Y217969D01*
X349872Y218047D01*
X349880Y218094D01*
X349902Y218153D01*
X349914Y218300D01*
X349927Y218378D01*
X349927Y220208D01*
X350852Y222440D01*
X352560Y224148D01*
X354792Y225073D01*
X357208Y225073D01*
X359440Y224148D01*
X361148Y222440D01*
X362073Y220208D01*
X362073Y217792D01*
X361148Y215560D01*
X359440Y213852D01*
X357208Y212927D01*
X355378Y212927D01*
X355291Y212915D01*
X355204Y212912D01*
X355151Y212895D01*
X355096Y212887D01*
X355016Y212852D01*
X354933Y212825D01*
X354894Y212797D01*
X354837Y212771D01*
X354724Y212675D01*
X354660Y212630D01*
X312473Y170443D01*
X228203Y170443D01*
X228201Y170443D01*
X228200Y170443D01*
X228060Y170423D01*
X227922Y170403D01*
X227920Y170403D01*
X227919Y170403D01*
X227793Y170346D01*
X227662Y170287D01*
X227661Y170286D01*
X227659Y170285D01*
X227551Y170193D01*
X227445Y170104D01*
X227444Y170102D01*
X227443Y170101D01*
X227435Y170088D01*
X227288Y169867D01*
X227278Y169838D01*
X227265Y169817D01*
X226614Y168244D01*
X223756Y165386D01*
X220021Y163839D01*
X215979Y163839D01*
X212244Y165386D01*
X209386Y168244D01*
X208510Y170360D01*
X208466Y170434D01*
X208431Y170512D01*
X208394Y170556D01*
X208365Y170605D01*
X208303Y170664D01*
X208247Y170729D01*
X208200Y170761D01*
X208159Y170800D01*
X208082Y170839D01*
X208011Y170887D01*
X207957Y170904D01*
X207906Y170930D01*
X207822Y170947D01*
X207740Y170973D01*
X207683Y170974D01*
X207627Y170985D01*
X207542Y170978D01*
X207456Y170980D01*
X207401Y170965D01*
X207344Y170961D01*
X207264Y170930D01*
X207181Y170908D01*
X207132Y170879D01*
X207079Y170859D01*
X207010Y170807D01*
X206936Y170763D01*
X206897Y170721D01*
X206852Y170687D01*
X206800Y170618D01*
X206742Y170555D01*
X206716Y170505D01*
X206682Y170459D01*
X206651Y170379D01*
X206612Y170302D01*
X206604Y170254D01*
X206581Y170193D01*
X206570Y170049D01*
X206557Y169971D01*
X206557Y152629D01*
X206569Y152544D01*
X206571Y152458D01*
X206589Y152404D01*
X206597Y152347D01*
X206632Y152269D01*
X206658Y152187D01*
X206690Y152140D01*
X206713Y152088D01*
X206768Y152022D01*
X206816Y151951D01*
X206860Y151914D01*
X206896Y151871D01*
X206968Y151823D01*
X207034Y151768D01*
X207086Y151745D01*
X207133Y151713D01*
X207215Y151687D01*
X207294Y151652D01*
X207350Y151645D01*
X207404Y151627D01*
X207490Y151625D01*
X207575Y151614D01*
X207631Y151622D01*
X207688Y151620D01*
X207771Y151642D01*
X207856Y151654D01*
X207908Y151678D01*
X207963Y151692D01*
X208037Y151736D01*
X208116Y151771D01*
X208159Y151808D01*
X208208Y151837D01*
X208267Y151900D01*
X208332Y151956D01*
X208358Y151998D01*
X208402Y152045D01*
X208468Y152174D01*
X208510Y152240D01*
X209386Y154356D01*
X212244Y157214D01*
X215979Y158761D01*
X220021Y158761D01*
X223756Y157214D01*
X226614Y154356D01*
X227265Y152783D01*
X227266Y152782D01*
X227266Y152781D01*
X227340Y152657D01*
X227410Y152539D01*
X227411Y152538D01*
X227412Y152536D01*
X227516Y152439D01*
X227616Y152343D01*
X227618Y152343D01*
X227619Y152342D01*
X227744Y152277D01*
X227869Y152213D01*
X227871Y152213D01*
X227872Y152212D01*
X227887Y152210D01*
X228148Y152158D01*
X228178Y152161D01*
X228203Y152157D01*
X290873Y152157D01*
X293254Y149776D01*
X336660Y106370D01*
X336730Y106318D01*
X336794Y106258D01*
X336843Y106232D01*
X336887Y106199D01*
X336969Y106168D01*
X337047Y106128D01*
X337094Y106120D01*
X337153Y106098D01*
X337300Y106086D01*
X337378Y106073D01*
X339208Y106073D01*
X341440Y105148D01*
X343148Y103440D01*
X344073Y101208D01*
X344073Y98792D01*
X343148Y96560D01*
X341440Y94852D01*
X339208Y93927D01*
X336792Y93927D01*
X334560Y94852D01*
X332852Y96560D01*
X331927Y98792D01*
X331927Y100622D01*
X331915Y100709D01*
X331912Y100796D01*
X331895Y100849D01*
X331887Y100904D01*
X331852Y100984D01*
X331825Y101067D01*
X331797Y101106D01*
X331771Y101163D01*
X331675Y101276D01*
X331630Y101340D01*
X323806Y109164D01*
X323782Y109182D01*
X323763Y109204D01*
X323669Y109267D01*
X323579Y109335D01*
X323551Y109345D01*
X323527Y109362D01*
X323419Y109396D01*
X323313Y109436D01*
X323284Y109439D01*
X323256Y109448D01*
X323142Y109450D01*
X323030Y109460D01*
X323001Y109454D01*
X322972Y109455D01*
X322862Y109426D01*
X322751Y109404D01*
X322725Y109390D01*
X322697Y109383D01*
X322599Y109325D01*
X322499Y109273D01*
X322477Y109253D01*
X322452Y109238D01*
X322375Y109155D01*
X322293Y109077D01*
X322278Y109052D01*
X322258Y109030D01*
X322206Y108930D01*
X322149Y108832D01*
X322142Y108803D01*
X322128Y108777D01*
X322115Y108700D01*
X322079Y108556D01*
X322081Y108494D01*
X322073Y108446D01*
X322073Y107792D01*
X321148Y105560D01*
X319440Y103852D01*
X317208Y102927D01*
X314792Y102927D01*
X312560Y103852D01*
X311266Y105146D01*
X311196Y105198D01*
X311132Y105258D01*
X311083Y105284D01*
X311039Y105317D01*
X310957Y105348D01*
X310879Y105388D01*
X310832Y105396D01*
X310773Y105418D01*
X310625Y105430D01*
X310548Y105443D01*
X233527Y105443D01*
X199443Y139527D01*
X199443Y144571D01*
X199431Y144656D01*
X199429Y144742D01*
X199411Y144796D01*
X199403Y144853D01*
X199368Y144931D01*
X199342Y145013D01*
X199310Y145060D01*
X199287Y145112D01*
X199232Y145178D01*
X199184Y145249D01*
X199140Y145286D01*
X199104Y145329D01*
X199032Y145377D01*
X198966Y145432D01*
X198914Y145455D01*
X198867Y145487D01*
X198785Y145513D01*
X198706Y145548D01*
X198650Y145555D01*
X198596Y145573D01*
X198510Y145575D01*
X198425Y145586D01*
X198369Y145578D01*
X198312Y145580D01*
X198229Y145558D01*
X198144Y145546D01*
X198092Y145522D01*
X198037Y145508D01*
X197963Y145464D01*
X197884Y145429D01*
X197841Y145392D01*
X197792Y145363D01*
X197733Y145300D01*
X197668Y145244D01*
X197642Y145202D01*
X197598Y145155D01*
X197532Y145026D01*
X197490Y144960D01*
X196614Y142844D01*
X193756Y139986D01*
X190021Y138439D01*
X185979Y138439D01*
X182244Y139986D01*
X179290Y142941D01*
X179266Y142958D01*
X179247Y142981D01*
X179153Y143043D01*
X179063Y143112D01*
X179035Y143122D01*
X179011Y143138D01*
X178903Y143173D01*
X178797Y143213D01*
X178768Y143215D01*
X178740Y143224D01*
X178626Y143227D01*
X178514Y143236D01*
X178485Y143231D01*
X178456Y143231D01*
X178346Y143203D01*
X178235Y143180D01*
X178209Y143167D01*
X178181Y143160D01*
X178083Y143102D01*
X177983Y143049D01*
X177961Y143029D01*
X177936Y143014D01*
X177859Y142932D01*
X177777Y142854D01*
X177762Y142828D01*
X177742Y142807D01*
X177690Y142706D01*
X177633Y142608D01*
X177626Y142580D01*
X177612Y142554D01*
X177599Y142476D01*
X177563Y142333D01*
X177565Y142270D01*
X177557Y142223D01*
X177557Y139894D01*
X177569Y139807D01*
X177572Y139720D01*
X177589Y139667D01*
X177597Y139612D01*
X177632Y139532D01*
X177659Y139449D01*
X177687Y139410D01*
X177713Y139353D01*
X177809Y139240D01*
X177854Y139176D01*
X268176Y48854D01*
X268246Y48802D01*
X268310Y48742D01*
X268359Y48716D01*
X268403Y48683D01*
X268485Y48652D01*
X268563Y48612D01*
X268610Y48604D01*
X268669Y48582D01*
X268816Y48570D01*
X268894Y48557D01*
X283797Y48557D01*
X283799Y48557D01*
X283800Y48557D01*
X283940Y48577D01*
X284078Y48597D01*
X284080Y48597D01*
X284081Y48597D01*
X284207Y48654D01*
X284338Y48713D01*
X284339Y48714D01*
X284341Y48715D01*
X284448Y48806D01*
X284555Y48896D01*
X284556Y48898D01*
X284557Y48899D01*
X284565Y48912D01*
X284712Y49133D01*
X284722Y49162D01*
X284735Y49183D01*
X285386Y50756D01*
X288244Y53614D01*
X291979Y55161D01*
X296021Y55161D01*
X299756Y53614D01*
X302614Y50756D01*
X304161Y47021D01*
X304161Y42979D01*
X302614Y39244D01*
X299756Y36386D01*
X296021Y34839D01*
X291979Y34839D01*
X288244Y36386D01*
X285386Y39244D01*
X284735Y40817D01*
X284734Y40818D01*
X284734Y40819D01*
X284662Y40940D01*
X284590Y41061D01*
X284589Y41062D01*
X284588Y41064D01*
X284484Y41161D01*
X284384Y41257D01*
X284382Y41257D01*
X284381Y41258D01*
X284256Y41323D01*
X284131Y41387D01*
X284129Y41387D01*
X284128Y41388D01*
X284113Y41390D01*
X283852Y41442D01*
X283822Y41439D01*
X283797Y41443D01*
X265527Y41443D01*
X263146Y43824D01*
X170290Y136680D01*
X170266Y136698D01*
X170247Y136720D01*
X170153Y136783D01*
X170063Y136851D01*
X170035Y136861D01*
X170011Y136878D01*
X169903Y136912D01*
X169797Y136952D01*
X169768Y136955D01*
X169740Y136964D01*
X169626Y136966D01*
X169514Y136976D01*
X169485Y136970D01*
X169456Y136971D01*
X169346Y136942D01*
X169235Y136920D01*
X169209Y136906D01*
X169181Y136899D01*
X169083Y136841D01*
X168983Y136789D01*
X168961Y136769D01*
X168936Y136754D01*
X168859Y136671D01*
X168777Y136593D01*
X168762Y136568D01*
X168742Y136546D01*
X168690Y136446D01*
X168633Y136348D01*
X168626Y136319D01*
X168612Y136293D01*
X168599Y136216D01*
X168563Y136072D01*
X168565Y136010D01*
X168557Y135962D01*
X168557Y100252D01*
X168573Y100138D01*
X168583Y100024D01*
X168593Y99998D01*
X168597Y99971D01*
X168644Y99866D01*
X168685Y99759D01*
X168701Y99736D01*
X168713Y99711D01*
X168787Y99624D01*
X168856Y99532D01*
X168879Y99515D01*
X168896Y99494D01*
X168992Y99430D01*
X169084Y99362D01*
X169110Y99352D01*
X169133Y99337D01*
X169243Y99302D01*
X169350Y99261D01*
X169378Y99259D01*
X169404Y99251D01*
X169519Y99248D01*
X169633Y99239D01*
X169658Y99244D01*
X169688Y99243D01*
X169945Y99311D01*
X169961Y99314D01*
X171792Y100073D01*
X174208Y100073D01*
X176440Y99148D01*
X176718Y98870D01*
X176788Y98818D01*
X176852Y98758D01*
X176901Y98732D01*
X176945Y98699D01*
X177027Y98668D01*
X177105Y98628D01*
X177152Y98620D01*
X177211Y98598D01*
X177359Y98586D01*
X177436Y98573D01*
X201894Y98573D01*
X225097Y75370D01*
X225167Y75318D01*
X225230Y75258D01*
X225280Y75232D01*
X225324Y75199D01*
X225406Y75168D01*
X225484Y75128D01*
X225531Y75120D01*
X225590Y75098D01*
X225737Y75086D01*
X225815Y75073D01*
X226208Y75073D01*
X228440Y74148D01*
X230148Y72440D01*
X231073Y70208D01*
X231073Y67792D01*
X230148Y65560D01*
X228440Y63852D01*
X226208Y62927D01*
X223792Y62927D01*
X221560Y63852D01*
X219852Y65560D01*
X218927Y67792D01*
X218927Y68185D01*
X218915Y68272D01*
X218912Y68359D01*
X218895Y68412D01*
X218887Y68467D01*
X218852Y68547D01*
X218825Y68630D01*
X218797Y68669D01*
X218771Y68726D01*
X218675Y68840D01*
X218630Y68903D01*
X198403Y89130D01*
X198333Y89182D01*
X198270Y89242D01*
X198220Y89268D01*
X198176Y89301D01*
X198094Y89332D01*
X198016Y89372D01*
X197969Y89380D01*
X197910Y89402D01*
X197763Y89414D01*
X197685Y89427D01*
X177436Y89427D01*
X177349Y89415D01*
X177262Y89412D01*
X177209Y89395D01*
X177154Y89387D01*
X177075Y89352D01*
X176991Y89325D01*
X176952Y89297D01*
X176895Y89271D01*
X176782Y89175D01*
X176718Y89130D01*
X176440Y88852D01*
X174208Y87927D01*
X171792Y87927D01*
X169961Y88686D01*
X169849Y88715D01*
X169740Y88749D01*
X169712Y88750D01*
X169685Y88757D01*
X169571Y88754D01*
X169456Y88757D01*
X169429Y88750D01*
X169401Y88749D01*
X169292Y88714D01*
X169181Y88685D01*
X169157Y88671D01*
X169130Y88662D01*
X169035Y88598D01*
X168936Y88539D01*
X168917Y88519D01*
X168894Y88504D01*
X168820Y88416D01*
X168742Y88332D01*
X168729Y88307D01*
X168711Y88286D01*
X168665Y88181D01*
X168612Y88079D01*
X168608Y88054D01*
X168596Y88026D01*
X168559Y87763D01*
X168557Y87748D01*
X168557Y76894D01*
X168569Y76807D01*
X168572Y76720D01*
X168589Y76667D01*
X168597Y76612D01*
X168632Y76532D01*
X168659Y76449D01*
X168687Y76410D01*
X168713Y76353D01*
X168809Y76240D01*
X168854Y76176D01*
X189300Y55730D01*
X189302Y55729D01*
X189303Y55727D01*
X189416Y55643D01*
X189528Y55559D01*
X189529Y55558D01*
X189530Y55557D01*
X189662Y55507D01*
X189793Y55457D01*
X189795Y55457D01*
X189796Y55457D01*
X189936Y55446D01*
X190077Y55434D01*
X190078Y55434D01*
X190080Y55434D01*
X190094Y55437D01*
X190355Y55490D01*
X190382Y55504D01*
X190407Y55510D01*
X191979Y56161D01*
X196021Y56161D01*
X199756Y54614D01*
X202614Y51756D01*
X204161Y48021D01*
X204161Y43979D01*
X202614Y40244D01*
X199756Y37386D01*
X196021Y35839D01*
X191979Y35839D01*
X188244Y37386D01*
X185386Y40244D01*
X183839Y43979D01*
X183839Y48021D01*
X184490Y49593D01*
X184491Y49595D01*
X184492Y49596D01*
X184526Y49729D01*
X184561Y49868D01*
X184561Y49870D01*
X184562Y49872D01*
X184557Y50010D01*
X184553Y50153D01*
X184553Y50154D01*
X184553Y50156D01*
X184509Y50290D01*
X184489Y50354D01*
X184482Y50380D01*
X184479Y50386D01*
X184467Y50423D01*
X184466Y50425D01*
X184465Y50426D01*
X184456Y50439D01*
X184376Y50558D01*
X184337Y50625D01*
X184323Y50638D01*
X184308Y50660D01*
X184285Y50679D01*
X184270Y50700D01*
X161443Y73527D01*
X161443Y150548D01*
X161436Y150598D01*
X161437Y150615D01*
X161431Y150637D01*
X161428Y150722D01*
X161411Y150775D01*
X161403Y150830D01*
X161368Y150909D01*
X161341Y150993D01*
X161313Y151032D01*
X161287Y151089D01*
X161191Y151202D01*
X161146Y151266D01*
X159852Y152560D01*
X158927Y154792D01*
X158927Y157208D01*
X159852Y159440D01*
X160606Y160194D01*
X160624Y160218D01*
X160646Y160237D01*
X160709Y160331D01*
X160777Y160421D01*
X160787Y160449D01*
X160804Y160473D01*
X160838Y160581D01*
X160878Y160687D01*
X160881Y160716D01*
X160889Y160744D01*
X160892Y160858D01*
X160902Y160970D01*
X160896Y160999D01*
X160897Y161028D01*
X160868Y161138D01*
X160846Y161249D01*
X160832Y161275D01*
X160825Y161303D01*
X160767Y161401D01*
X160715Y161501D01*
X160695Y161523D01*
X160680Y161548D01*
X160597Y161625D01*
X160519Y161707D01*
X160494Y161722D01*
X160472Y161742D01*
X160371Y161794D01*
X160274Y161851D01*
X160245Y161858D01*
X160219Y161872D01*
X160142Y161885D01*
X159998Y161921D01*
X159936Y161919D01*
X159888Y161927D01*
X157792Y161927D01*
X155560Y162852D01*
X153852Y164560D01*
X152927Y166792D01*
X152927Y169208D01*
X153852Y171440D01*
X155560Y173148D01*
X157792Y174073D01*
X160208Y174073D01*
X162440Y173148D01*
X163734Y171854D01*
X163804Y171802D01*
X163868Y171742D01*
X163917Y171716D01*
X163961Y171683D01*
X164043Y171652D01*
X164121Y171612D01*
X164168Y171604D01*
X164227Y171582D01*
X164375Y171570D01*
X164452Y171557D01*
X168473Y171557D01*
X177557Y162473D01*
X177557Y154977D01*
X177561Y154948D01*
X177558Y154919D01*
X177581Y154808D01*
X177597Y154696D01*
X177609Y154669D01*
X177614Y154640D01*
X177667Y154540D01*
X177713Y154436D01*
X177732Y154414D01*
X177745Y154388D01*
X177823Y154306D01*
X177896Y154219D01*
X177921Y154203D01*
X177941Y154182D01*
X178039Y154125D01*
X178133Y154062D01*
X178161Y154053D01*
X178186Y154038D01*
X178296Y154010D01*
X178404Y153976D01*
X178434Y153975D01*
X178462Y153968D01*
X178575Y153972D01*
X178688Y153969D01*
X178717Y153976D01*
X178746Y153977D01*
X178854Y154012D01*
X178963Y154040D01*
X178989Y154055D01*
X179017Y154064D01*
X179080Y154110D01*
X179208Y154186D01*
X179251Y154231D01*
X179290Y154259D01*
X182244Y157214D01*
X185979Y158761D01*
X190021Y158761D01*
X193756Y157214D01*
X196614Y154356D01*
X197490Y152240D01*
X197534Y152166D01*
X197569Y152088D01*
X197606Y152044D01*
X197635Y151995D01*
X197697Y151936D01*
X197753Y151871D01*
X197800Y151839D01*
X197841Y151800D01*
X197918Y151761D01*
X197989Y151713D01*
X198043Y151696D01*
X198094Y151670D01*
X198178Y151653D01*
X198260Y151627D01*
X198317Y151626D01*
X198373Y151615D01*
X198458Y151622D01*
X198544Y151620D01*
X198599Y151635D01*
X198656Y151639D01*
X198736Y151670D01*
X198819Y151692D01*
X198868Y151721D01*
X198921Y151741D01*
X198990Y151793D01*
X199064Y151837D01*
X199103Y151879D01*
X199148Y151913D01*
X199200Y151982D01*
X199258Y152045D01*
X199284Y152095D01*
X199318Y152141D01*
X199349Y152221D01*
X199388Y152298D01*
X199396Y152346D01*
X199419Y152407D01*
X199430Y152551D01*
X199443Y152629D01*
X199443Y169928D01*
X199426Y170052D01*
X199412Y170177D01*
X199406Y170193D01*
X199403Y170209D01*
X199352Y170324D01*
X199305Y170440D01*
X199294Y170453D01*
X199287Y170469D01*
X199206Y170564D01*
X199128Y170663D01*
X199114Y170673D01*
X199104Y170686D01*
X198999Y170755D01*
X198897Y170828D01*
X198881Y170834D01*
X198867Y170843D01*
X198747Y170881D01*
X198629Y170923D01*
X198612Y170924D01*
X198596Y170929D01*
X198470Y170932D01*
X198345Y170940D01*
X198329Y170936D01*
X198312Y170936D01*
X198191Y170905D01*
X198068Y170877D01*
X198053Y170869D01*
X198037Y170865D01*
X197929Y170801D01*
X197819Y170740D01*
X197807Y170728D01*
X197792Y170719D01*
X197706Y170628D01*
X197617Y170539D01*
X197610Y170526D01*
X197598Y170512D01*
X197468Y170259D01*
X197467Y170250D01*
X197462Y170242D01*
X197416Y170100D01*
X196690Y168675D01*
X195750Y167381D01*
X194619Y166250D01*
X193325Y165310D01*
X191900Y164584D01*
X190379Y164089D01*
X190031Y164034D01*
X190031Y172984D01*
X190023Y173042D01*
X190025Y173100D01*
X190003Y173182D01*
X189991Y173265D01*
X189967Y173319D01*
X189953Y173375D01*
X189910Y173448D01*
X189875Y173525D01*
X189837Y173569D01*
X189807Y173620D01*
X189746Y173677D01*
X189691Y173742D01*
X189643Y173774D01*
X189600Y173814D01*
X189525Y173853D01*
X189455Y173899D01*
X189399Y173917D01*
X189347Y173944D01*
X189279Y173955D01*
X189184Y173985D01*
X189084Y173988D01*
X189016Y173999D01*
X187999Y173999D01*
X187999Y174001D01*
X189016Y174001D01*
X189074Y174009D01*
X189132Y174008D01*
X189214Y174029D01*
X189297Y174041D01*
X189351Y174065D01*
X189407Y174079D01*
X189480Y174122D01*
X189557Y174157D01*
X189602Y174195D01*
X189652Y174225D01*
X189710Y174286D01*
X189774Y174341D01*
X189806Y174389D01*
X189846Y174432D01*
X189885Y174507D01*
X189931Y174577D01*
X189949Y174633D01*
X189976Y174685D01*
X189987Y174753D01*
X190017Y174848D01*
X190020Y174948D01*
X190031Y175016D01*
X190031Y183966D01*
X190379Y183911D01*
X191900Y183416D01*
X193325Y182690D01*
X194619Y181750D01*
X195194Y181175D01*
X195218Y181158D01*
X195237Y181135D01*
X195331Y181073D01*
X195421Y181004D01*
X195449Y180994D01*
X195473Y180978D01*
X195581Y180944D01*
X195687Y180903D01*
X195716Y180901D01*
X195744Y180892D01*
X195858Y180889D01*
X195970Y180880D01*
X195999Y180885D01*
X196028Y180885D01*
X196138Y180913D01*
X196249Y180936D01*
X196275Y180949D01*
X196303Y180956D01*
X196401Y181014D01*
X196501Y181066D01*
X196523Y181087D01*
X196548Y181102D01*
X196625Y181184D01*
X196707Y181262D01*
X196722Y181288D01*
X196742Y181309D01*
X196794Y181410D01*
X196851Y181508D01*
X196858Y181536D01*
X196872Y181562D01*
X196885Y181639D01*
X196921Y181783D01*
X196919Y181846D01*
X196927Y181893D01*
X196927Y184208D01*
X197679Y186023D01*
X197708Y186135D01*
X197743Y186244D01*
X197743Y186272D01*
X197750Y186299D01*
X197747Y186413D01*
X197750Y186528D01*
X197743Y186555D01*
X197742Y186583D01*
X197707Y186692D01*
X197678Y186803D01*
X197664Y186827D01*
X197655Y186854D01*
X197592Y186949D01*
X197533Y187048D01*
X197513Y187067D01*
X197497Y187090D01*
X197409Y187164D01*
X197326Y187242D01*
X197301Y187255D01*
X197280Y187273D01*
X197175Y187319D01*
X197072Y187372D01*
X197048Y187376D01*
X197020Y187388D01*
X196756Y187425D01*
X196741Y187427D01*
X166315Y187427D01*
X166228Y187415D01*
X166141Y187412D01*
X166088Y187395D01*
X166033Y187387D01*
X165953Y187352D01*
X165870Y187325D01*
X165831Y187297D01*
X165774Y187271D01*
X165660Y187175D01*
X165597Y187130D01*
X100870Y122403D01*
X100818Y122333D01*
X100758Y122270D01*
X100732Y122220D01*
X100699Y122176D01*
X100668Y122094D01*
X100628Y122016D01*
X100620Y121969D01*
X100598Y121910D01*
X100586Y121763D01*
X100573Y121685D01*
X100573Y69782D01*
X100573Y69781D01*
X100573Y69779D01*
X100593Y69638D01*
X100613Y69501D01*
X100613Y69499D01*
X100613Y69498D01*
X100672Y69368D01*
X100729Y69241D01*
X100730Y69240D01*
X100731Y69239D01*
X100821Y69132D01*
X100912Y69024D01*
X100914Y69023D01*
X100915Y69022D01*
X100927Y69014D01*
X101149Y68867D01*
X101178Y68857D01*
X101199Y68844D01*
X101756Y68614D01*
X104614Y65756D01*
X106161Y62021D01*
X106161Y57979D01*
X104614Y54244D01*
X101756Y51386D01*
X98021Y49839D01*
X93979Y49839D01*
X90244Y51386D01*
X87306Y54325D01*
X87282Y54342D01*
X87263Y54365D01*
X87169Y54427D01*
X87079Y54496D01*
X87051Y54506D01*
X87027Y54522D01*
X86919Y54557D01*
X86813Y54597D01*
X86784Y54599D01*
X86756Y54608D01*
X86642Y54611D01*
X86530Y54620D01*
X86501Y54615D01*
X86472Y54615D01*
X86362Y54587D01*
X86251Y54564D01*
X86225Y54551D01*
X86197Y54544D01*
X86099Y54486D01*
X85999Y54433D01*
X85977Y54413D01*
X85952Y54398D01*
X85875Y54316D01*
X85793Y54238D01*
X85778Y54212D01*
X85758Y54191D01*
X85706Y54090D01*
X85649Y53992D01*
X85642Y53964D01*
X85628Y53938D01*
X85615Y53860D01*
X85579Y53717D01*
X85581Y53654D01*
X85573Y53607D01*
X85573Y30596D01*
X85581Y30538D01*
X85579Y30480D01*
X85601Y30398D01*
X85613Y30314D01*
X85636Y30261D01*
X85651Y30205D01*
X85694Y30132D01*
X85729Y30055D01*
X85767Y30010D01*
X85796Y29960D01*
X85858Y29902D01*
X85912Y29838D01*
X85961Y29806D01*
X86004Y29766D01*
X86079Y29727D01*
X86149Y29680D01*
X86205Y29663D01*
X86257Y29636D01*
X86325Y29625D01*
X86420Y29595D01*
X86520Y29592D01*
X86588Y29581D01*
X86707Y29581D01*
X89861Y28274D01*
X92274Y25861D01*
X93562Y22752D01*
X93577Y22727D01*
X93586Y22699D01*
X93649Y22605D01*
X93707Y22507D01*
X93728Y22487D01*
X93744Y22463D01*
X93831Y22390D01*
X93913Y22312D01*
X93939Y22299D01*
X93962Y22280D01*
X94065Y22234D01*
X94166Y22182D01*
X94195Y22176D01*
X94222Y22164D01*
X94334Y22149D01*
X94445Y22127D01*
X94474Y22129D01*
X94503Y22125D01*
X94615Y22141D01*
X94728Y22151D01*
X94755Y22162D01*
X94785Y22166D01*
X94888Y22213D01*
X94993Y22253D01*
X95017Y22271D01*
X95044Y22283D01*
X95130Y22357D01*
X95220Y22425D01*
X95238Y22448D01*
X95260Y22467D01*
X95302Y22534D01*
X95390Y22653D01*
X95412Y22711D01*
X95438Y22752D01*
X96726Y25861D01*
X99139Y28274D01*
X102293Y29581D01*
X105707Y29581D01*
X108861Y28274D01*
X111274Y25861D01*
X112581Y22707D01*
X112581Y19293D01*
X111274Y16139D01*
X108861Y13726D01*
X105707Y12419D01*
X102293Y12419D01*
X99139Y13726D01*
X96726Y16139D01*
X95438Y19248D01*
X95423Y19273D01*
X95414Y19301D01*
X95351Y19395D01*
X95293Y19493D01*
X95272Y19513D01*
X95256Y19537D01*
X95169Y19610D01*
X95087Y19688D01*
X95061Y19701D01*
X95038Y19720D01*
X94935Y19766D01*
X94834Y19818D01*
X94805Y19824D01*
X94778Y19836D01*
X94666Y19851D01*
X94555Y19873D01*
X94526Y19871D01*
X94497Y19875D01*
X94385Y19859D01*
X94272Y19849D01*
X94245Y19838D01*
X94216Y19834D01*
X94112Y19788D01*
X94007Y19747D01*
X93983Y19729D01*
X93956Y19717D01*
X93870Y19644D01*
X93780Y19575D01*
X93762Y19552D01*
X93740Y19533D01*
X93698Y19466D01*
X93610Y19348D01*
X93588Y19289D01*
X93562Y19248D01*
X92274Y16139D01*
X89861Y13726D01*
X86707Y12419D01*
X83293Y12419D01*
X80139Y13726D01*
X77726Y16139D01*
X76419Y19293D01*
X76419Y22808D01*
X76421Y22815D01*
X76419Y22872D01*
X76419Y22880D01*
X76427Y22928D01*
X76427Y209685D01*
X76415Y209772D01*
X76412Y209859D01*
X76395Y209912D01*
X76387Y209967D01*
X76352Y210047D01*
X76325Y210130D01*
X76297Y210169D01*
X76271Y210226D01*
X76175Y210340D01*
X76130Y210403D01*
X58427Y228106D01*
X58427Y274005D01*
X58418Y274067D01*
X58419Y274130D01*
X58399Y274207D01*
X58387Y274286D01*
X58362Y274344D01*
X58345Y274405D01*
X58304Y274473D01*
X58271Y274546D01*
X58230Y274594D01*
X58198Y274648D01*
X58139Y274702D01*
X58088Y274763D01*
X58035Y274798D01*
X57989Y274840D01*
X57917Y274876D01*
X57851Y274920D01*
X57791Y274939D01*
X57734Y274967D01*
X57656Y274982D01*
X57580Y275006D01*
X57517Y275008D01*
X57455Y275019D01*
X57375Y275011D01*
X57296Y275013D01*
X57235Y274997D01*
X57172Y274991D01*
X57098Y274962D01*
X57021Y274941D01*
X56966Y274909D01*
X56908Y274886D01*
X56845Y274837D01*
X56776Y274796D01*
X56733Y274750D01*
X56683Y274712D01*
X56636Y274647D01*
X56582Y274589D01*
X56553Y274533D01*
X56516Y274482D01*
X56495Y274419D01*
X56452Y274336D01*
X56438Y274248D01*
X56409Y274163D01*
X56345Y273757D01*
X55879Y272322D01*
X55194Y270979D01*
X54308Y269758D01*
X53242Y268692D01*
X52021Y267806D01*
X50678Y267121D01*
X49243Y266655D01*
X49031Y266622D01*
X49031Y274984D01*
X49023Y275042D01*
X49025Y275100D01*
X49003Y275182D01*
X48991Y275265D01*
X48967Y275319D01*
X48953Y275375D01*
X48910Y275448D01*
X48875Y275525D01*
X48837Y275569D01*
X48807Y275620D01*
X48746Y275677D01*
X48691Y275742D01*
X48643Y275774D01*
X48600Y275814D01*
X48525Y275853D01*
X48455Y275899D01*
X48399Y275917D01*
X48347Y275944D01*
X48279Y275955D01*
X48184Y275985D01*
X48084Y275988D01*
X48016Y275999D01*
X46999Y275999D01*
X46999Y276001D01*
X48016Y276001D01*
X48074Y276009D01*
X48132Y276008D01*
X48214Y276029D01*
X48297Y276041D01*
X48351Y276065D01*
X48407Y276079D01*
X48480Y276122D01*
X48557Y276157D01*
X48602Y276195D01*
X48652Y276225D01*
X48710Y276286D01*
X48774Y276341D01*
X48806Y276389D01*
X48846Y276432D01*
X48885Y276507D01*
X48931Y276577D01*
X48949Y276633D01*
X48976Y276685D01*
X48987Y276753D01*
X49017Y276848D01*
X49020Y276948D01*
X49031Y277016D01*
X49031Y285378D01*
X49243Y285345D01*
X50678Y284879D01*
X52021Y284194D01*
X53242Y283308D01*
X54308Y282242D01*
X55194Y281021D01*
X55879Y279678D01*
X56345Y278243D01*
X56409Y277837D01*
X56428Y277776D01*
X56437Y277714D01*
X56469Y277641D01*
X56493Y277565D01*
X56527Y277512D01*
X56553Y277454D01*
X56604Y277393D01*
X56648Y277327D01*
X56696Y277286D01*
X56737Y277237D01*
X56803Y277193D01*
X56863Y277141D01*
X56921Y277115D01*
X56973Y277080D01*
X57049Y277056D01*
X57122Y277022D01*
X57184Y277013D01*
X57244Y276994D01*
X57324Y276992D01*
X57403Y276980D01*
X57465Y276988D01*
X57528Y276987D01*
X57605Y277007D01*
X57685Y277017D01*
X57743Y277043D01*
X57803Y277059D01*
X57872Y277099D01*
X57945Y277131D01*
X57994Y277172D01*
X58048Y277204D01*
X58102Y277262D01*
X58164Y277313D01*
X58199Y277365D01*
X58242Y277411D01*
X58279Y277482D01*
X58323Y277548D01*
X58343Y277608D01*
X58372Y277664D01*
X58383Y277729D01*
X58412Y277818D01*
X58413Y277907D01*
X58427Y277995D01*
X58427Y327685D01*
X58415Y327772D01*
X58412Y327859D01*
X58395Y327912D01*
X58387Y327967D01*
X58352Y328047D01*
X58325Y328130D01*
X58297Y328169D01*
X58271Y328226D01*
X58175Y328340D01*
X58130Y328403D01*
X49903Y336630D01*
X49834Y336682D01*
X49770Y336742D01*
X49720Y336768D01*
X49676Y336801D01*
X49594Y336832D01*
X49516Y336872D01*
X49469Y336880D01*
X49410Y336902D01*
X49263Y336914D01*
X49185Y336927D01*
X48792Y336927D01*
X46560Y337852D01*
X44852Y339560D01*
X43927Y341792D01*
X43927Y344208D01*
X44852Y346440D01*
X46560Y348148D01*
X48792Y349073D01*
X51208Y349073D01*
X53440Y348148D01*
X55148Y346440D01*
X56073Y344208D01*
X56073Y343815D01*
X56085Y343728D01*
X56088Y343641D01*
X56105Y343588D01*
X56113Y343533D01*
X56148Y343453D01*
X56175Y343370D01*
X56203Y343331D01*
X56229Y343274D01*
X56325Y343160D01*
X56370Y343097D01*
X64597Y334870D01*
X67573Y331894D01*
X67573Y232315D01*
X67585Y232228D01*
X67588Y232141D01*
X67605Y232088D01*
X67613Y232033D01*
X67648Y231953D01*
X67675Y231870D01*
X67703Y231831D01*
X67729Y231774D01*
X67825Y231660D01*
X67870Y231597D01*
X85573Y213894D01*
X85573Y66393D01*
X85577Y66364D01*
X85574Y66335D01*
X85597Y66224D01*
X85613Y66112D01*
X85625Y66085D01*
X85630Y66056D01*
X85683Y65956D01*
X85729Y65852D01*
X85748Y65830D01*
X85761Y65804D01*
X85839Y65722D01*
X85912Y65635D01*
X85937Y65619D01*
X85957Y65598D01*
X86055Y65541D01*
X86149Y65478D01*
X86177Y65469D01*
X86202Y65454D01*
X86312Y65426D01*
X86420Y65392D01*
X86450Y65391D01*
X86478Y65384D01*
X86591Y65388D01*
X86704Y65385D01*
X86733Y65392D01*
X86762Y65393D01*
X86870Y65428D01*
X86979Y65456D01*
X87005Y65471D01*
X87033Y65480D01*
X87096Y65526D01*
X87224Y65602D01*
X87267Y65647D01*
X87306Y65675D01*
X90244Y68614D01*
X90801Y68844D01*
X90802Y68845D01*
X90803Y68845D01*
X90920Y68915D01*
X91045Y68989D01*
X91047Y68990D01*
X91048Y68991D01*
X91143Y69092D01*
X91241Y69195D01*
X91241Y69197D01*
X91242Y69198D01*
X91304Y69319D01*
X91371Y69448D01*
X91371Y69450D01*
X91372Y69451D01*
X91374Y69466D01*
X91426Y69727D01*
X91423Y69758D01*
X91427Y69782D01*
X91427Y125894D01*
X158190Y192657D01*
X158259Y192749D01*
X158333Y192837D01*
X158345Y192862D01*
X158361Y192884D01*
X158402Y192991D01*
X158449Y193097D01*
X158453Y193124D01*
X158462Y193150D01*
X158472Y193264D01*
X158488Y193378D01*
X158484Y193406D01*
X158486Y193433D01*
X158463Y193546D01*
X158447Y193660D01*
X158436Y193685D01*
X158430Y193712D01*
X158377Y193814D01*
X158330Y193919D01*
X158312Y193940D01*
X158299Y193964D01*
X158220Y194048D01*
X158146Y194135D01*
X158124Y194148D01*
X158103Y194170D01*
X157874Y194305D01*
X157861Y194313D01*
X156560Y194852D01*
X154852Y196560D01*
X153927Y198792D01*
X153927Y201208D01*
X154852Y203440D01*
X156560Y205148D01*
X158792Y206073D01*
X161208Y206073D01*
X162791Y205417D01*
X162874Y205396D01*
X162954Y205365D01*
X163011Y205360D01*
X163066Y205346D01*
X163152Y205349D01*
X163237Y205342D01*
X163293Y205353D01*
X163350Y205354D01*
X163432Y205381D01*
X163516Y205397D01*
X163567Y205424D01*
X163621Y205441D01*
X163692Y205489D01*
X163768Y205528D01*
X163810Y205568D01*
X163857Y205599D01*
X163912Y205665D01*
X163975Y205724D01*
X164003Y205773D01*
X164040Y205817D01*
X164075Y205895D01*
X164118Y205969D01*
X164132Y206025D01*
X164155Y206077D01*
X164167Y206162D01*
X164188Y206245D01*
X164187Y206302D01*
X164194Y206358D01*
X164182Y206443D01*
X164179Y206529D01*
X164162Y206583D01*
X164154Y206640D01*
X164118Y206718D01*
X164092Y206800D01*
X164063Y206840D01*
X164037Y206899D01*
X163943Y207009D01*
X163897Y207073D01*
X150824Y220146D01*
X150754Y220198D01*
X150690Y220258D01*
X150641Y220284D01*
X150597Y220317D01*
X150515Y220348D01*
X150437Y220388D01*
X150390Y220396D01*
X150331Y220418D01*
X150184Y220430D01*
X150106Y220443D01*
X134452Y220443D01*
X134365Y220431D01*
X134278Y220428D01*
X134225Y220411D01*
X134170Y220403D01*
X134091Y220368D01*
X134007Y220341D01*
X133968Y220313D01*
X133911Y220287D01*
X133798Y220191D01*
X133734Y220146D01*
X132440Y218852D01*
X130208Y217927D01*
X127754Y217927D01*
X127753Y217928D01*
X127697Y217932D01*
X127642Y217947D01*
X127555Y217944D01*
X127470Y217951D01*
X127414Y217940D01*
X127357Y217939D01*
X127275Y217912D01*
X127191Y217895D01*
X127141Y217869D01*
X127087Y217852D01*
X127015Y217804D01*
X126939Y217764D01*
X126898Y217725D01*
X126850Y217694D01*
X126795Y217628D01*
X126733Y217569D01*
X126704Y217520D01*
X126667Y217476D01*
X126632Y217398D01*
X126589Y217323D01*
X126575Y217268D01*
X126552Y217217D01*
X126540Y217131D01*
X126519Y217048D01*
X126521Y216991D01*
X126513Y216935D01*
X126525Y216850D01*
X126528Y216764D01*
X126545Y216710D01*
X126553Y216654D01*
X126589Y216575D01*
X126615Y216493D01*
X126644Y216453D01*
X126670Y216395D01*
X126765Y216284D01*
X126810Y216220D01*
X140660Y202370D01*
X140730Y202318D01*
X140794Y202258D01*
X140843Y202232D01*
X140887Y202199D01*
X140969Y202168D01*
X141047Y202128D01*
X141094Y202120D01*
X141153Y202098D01*
X141300Y202086D01*
X141378Y202073D01*
X143208Y202073D01*
X145440Y201148D01*
X147148Y199440D01*
X148073Y197208D01*
X148073Y194792D01*
X147148Y192560D01*
X145440Y190852D01*
X143208Y189927D01*
X140792Y189927D01*
X138560Y190852D01*
X136852Y192560D01*
X135927Y194792D01*
X135927Y196622D01*
X135915Y196709D01*
X135912Y196796D01*
X135895Y196849D01*
X135887Y196904D01*
X135852Y196984D01*
X135825Y197067D01*
X135797Y197106D01*
X135771Y197163D01*
X135675Y197276D01*
X135630Y197340D01*
X108443Y224527D01*
X108443Y384473D01*
X124146Y400176D01*
X124198Y400246D01*
X124258Y400310D01*
X124284Y400359D01*
X124317Y400403D01*
X124348Y400485D01*
X124388Y400563D01*
X124396Y400610D01*
X124418Y400669D01*
X124430Y400816D01*
X124443Y400894D01*
X124443Y413797D01*
X124443Y413799D01*
X124443Y413800D01*
X124423Y413939D01*
X124403Y414078D01*
X124403Y414080D01*
X124403Y414081D01*
X124346Y414207D01*
X124287Y414338D01*
X124286Y414339D01*
X124285Y414341D01*
X124194Y414448D01*
X124104Y414555D01*
X124102Y414556D01*
X124101Y414557D01*
X124088Y414565D01*
X123867Y414712D01*
X123838Y414722D01*
X123817Y414735D01*
X122244Y415386D01*
X119386Y418244D01*
X117839Y421979D01*
X117839Y426021D01*
X119386Y429756D01*
X121341Y431710D01*
X121358Y431734D01*
X121381Y431753D01*
X121443Y431847D01*
X121512Y431937D01*
X121522Y431965D01*
X121538Y431989D01*
X121573Y432097D01*
X121613Y432203D01*
X121615Y432232D01*
X121624Y432260D01*
X121627Y432374D01*
X121636Y432486D01*
X121631Y432515D01*
X121631Y432544D01*
X121603Y432654D01*
X121580Y432765D01*
X121567Y432791D01*
X121560Y432819D01*
X121502Y432917D01*
X121449Y433017D01*
X121429Y433039D01*
X121414Y433064D01*
X121332Y433141D01*
X121254Y433223D01*
X121228Y433238D01*
X121207Y433258D01*
X121106Y433310D01*
X121008Y433367D01*
X120980Y433374D01*
X120954Y433388D01*
X120877Y433401D01*
X120733Y433437D01*
X120670Y433435D01*
X120623Y433443D01*
X109527Y433443D01*
X102700Y440270D01*
X102698Y440271D01*
X102697Y440273D01*
X102584Y440357D01*
X102472Y440441D01*
X102471Y440442D01*
X102470Y440443D01*
X102338Y440493D01*
X102207Y440543D01*
X102205Y440543D01*
X102204Y440543D01*
X102064Y440554D01*
X101923Y440566D01*
X101922Y440566D01*
X101920Y440566D01*
X101906Y440563D01*
X101645Y440510D01*
X101618Y440496D01*
X101593Y440490D01*
X100021Y439839D01*
X95979Y439839D01*
X92244Y441386D01*
X89386Y444244D01*
X88510Y446360D01*
X88466Y446434D01*
X88431Y446512D01*
X88394Y446556D01*
X88365Y446605D01*
X88303Y446664D01*
X88247Y446729D01*
X88200Y446761D01*
X88159Y446800D01*
X88082Y446839D01*
X88011Y446887D01*
X87957Y446904D01*
X87906Y446930D01*
X87822Y446947D01*
X87740Y446973D01*
X87683Y446974D01*
X87627Y446985D01*
X87542Y446978D01*
X87456Y446980D01*
X87401Y446965D01*
X87344Y446961D01*
X87264Y446930D01*
X87181Y446908D01*
X87132Y446879D01*
X87079Y446859D01*
X87010Y446807D01*
X86936Y446763D01*
X86897Y446721D01*
X86852Y446687D01*
X86800Y446618D01*
X86742Y446555D01*
X86716Y446505D01*
X86682Y446459D01*
X86651Y446379D01*
X86612Y446302D01*
X86604Y446254D01*
X86581Y446193D01*
X86575Y446119D01*
X86571Y446104D01*
X86569Y446046D01*
X86557Y445971D01*
X86557Y441494D01*
X86569Y441407D01*
X86572Y441320D01*
X86589Y441267D01*
X86597Y441212D01*
X86632Y441132D01*
X86659Y441049D01*
X86687Y441010D01*
X86713Y440953D01*
X86809Y440840D01*
X86854Y440776D01*
X93300Y434330D01*
X93302Y434329D01*
X93303Y434327D01*
X93416Y434243D01*
X93528Y434159D01*
X93529Y434158D01*
X93530Y434157D01*
X93662Y434107D01*
X93793Y434057D01*
X93795Y434057D01*
X93796Y434057D01*
X93936Y434046D01*
X94077Y434034D01*
X94078Y434034D01*
X94080Y434034D01*
X94094Y434037D01*
X94355Y434090D01*
X94382Y434104D01*
X94407Y434110D01*
X95979Y434761D01*
X100021Y434761D01*
X103756Y433214D01*
X106614Y430356D01*
X108161Y426621D01*
X108161Y422579D01*
X106614Y418844D01*
X103756Y415986D01*
X100021Y414439D01*
X95979Y414439D01*
X92244Y415986D01*
X89386Y418844D01*
X87839Y422579D01*
X87839Y426621D01*
X88490Y428193D01*
X88491Y428195D01*
X88492Y428196D01*
X88526Y428329D01*
X88561Y428468D01*
X88561Y428470D01*
X88562Y428472D01*
X88557Y428612D01*
X88553Y428753D01*
X88553Y428754D01*
X88553Y428756D01*
X88510Y428887D01*
X88467Y429023D01*
X88466Y429025D01*
X88465Y429026D01*
X88456Y429039D01*
X88308Y429260D01*
X88285Y429279D01*
X88270Y429300D01*
X81824Y435746D01*
X79443Y438127D01*
X79443Y446371D01*
X79431Y446456D01*
X79429Y446542D01*
X79411Y446596D01*
X79403Y446653D01*
X79368Y446731D01*
X79342Y446813D01*
X79310Y446860D01*
X79287Y446912D01*
X79232Y446978D01*
X79184Y447049D01*
X79140Y447086D01*
X79104Y447129D01*
X79032Y447177D01*
X78966Y447232D01*
X78914Y447255D01*
X78867Y447287D01*
X78785Y447313D01*
X78706Y447348D01*
X78650Y447355D01*
X78596Y447373D01*
X78510Y447375D01*
X78425Y447386D01*
X78369Y447378D01*
X78312Y447380D01*
X78229Y447358D01*
X78144Y447346D01*
X78092Y447322D01*
X78037Y447308D01*
X77963Y447264D01*
X77884Y447229D01*
X77841Y447192D01*
X77792Y447163D01*
X77733Y447100D01*
X77668Y447044D01*
X77642Y447002D01*
X77598Y446955D01*
X77532Y446826D01*
X77490Y446760D01*
X76614Y444644D01*
X73756Y441786D01*
X70021Y440239D01*
X65979Y440239D01*
X62244Y441786D01*
X59386Y444644D01*
X57839Y448379D01*
X57839Y452421D01*
X59386Y456156D01*
X62244Y459014D01*
X63817Y459665D01*
X63818Y459666D01*
X63819Y459666D01*
X63940Y459738D01*
X64061Y459810D01*
X64062Y459811D01*
X64064Y459812D01*
X64161Y459916D01*
X64257Y460016D01*
X64257Y460018D01*
X64258Y460019D01*
X64323Y460144D01*
X64387Y460269D01*
X64387Y460271D01*
X64388Y460272D01*
X64390Y460287D01*
X64442Y460548D01*
X64439Y460578D01*
X64443Y460603D01*
X64443Y475797D01*
X64443Y475799D01*
X64443Y475800D01*
X64423Y475939D01*
X64403Y476078D01*
X64403Y476080D01*
X64403Y476081D01*
X64346Y476207D01*
X64287Y476338D01*
X64286Y476339D01*
X64285Y476341D01*
X64194Y476448D01*
X64104Y476555D01*
X64102Y476556D01*
X64101Y476557D01*
X64088Y476565D01*
X63867Y476712D01*
X63838Y476722D01*
X63817Y476735D01*
X62244Y477386D01*
X59386Y480244D01*
X57839Y483979D01*
X57839Y488021D01*
X59386Y491756D01*
X62244Y494614D01*
X64973Y495744D01*
X65047Y495788D01*
X65125Y495823D01*
X65169Y495860D01*
X65218Y495889D01*
X65277Y495951D01*
X65342Y496007D01*
X65374Y496054D01*
X65413Y496095D01*
X65452Y496172D01*
X65500Y496243D01*
X65517Y496297D01*
X65543Y496348D01*
X65560Y496432D01*
X65586Y496514D01*
X65587Y496571D01*
X65598Y496627D01*
X65591Y496712D01*
X65593Y496798D01*
X65579Y496853D01*
X65574Y496910D01*
X65543Y496990D01*
X65521Y497073D01*
X65492Y497122D01*
X65472Y497175D01*
X65420Y497244D01*
X65376Y497318D01*
X65334Y497357D01*
X65300Y497402D01*
X65231Y497454D01*
X65169Y497512D01*
X65118Y497538D01*
X65072Y497572D01*
X64992Y497603D01*
X64916Y497642D01*
X64867Y497650D01*
X64806Y497673D01*
X64662Y497684D01*
X64584Y497697D01*
X22071Y497697D01*
X22015Y497689D01*
X21972Y497692D01*
X19484Y497447D01*
X19207Y497380D01*
X19201Y497376D01*
X19195Y497375D01*
X14597Y495471D01*
X14571Y495455D01*
X14541Y495445D01*
X14477Y495400D01*
X14352Y495326D01*
X14308Y495279D01*
X14268Y495251D01*
X10749Y491732D01*
X10731Y491707D01*
X10707Y491687D01*
X10665Y491621D01*
X10578Y491505D01*
X10556Y491445D01*
X10529Y491403D01*
X8625Y486805D01*
X8554Y486530D01*
X8554Y486523D01*
X8553Y486516D01*
X8308Y484028D01*
X8310Y483972D01*
X8303Y483929D01*
X8303Y292659D01*
X8318Y292551D01*
X8326Y292443D01*
X8338Y292411D01*
X8343Y292377D01*
X8387Y292278D01*
X8425Y292176D01*
X8445Y292149D01*
X8459Y292118D01*
X8529Y292035D01*
X8594Y291948D01*
X8621Y291927D01*
X8642Y291901D01*
X8733Y291841D01*
X8819Y291775D01*
X8851Y291762D01*
X8879Y291743D01*
X8983Y291711D01*
X9084Y291671D01*
X9118Y291668D01*
X9150Y291658D01*
X9259Y291655D01*
X9367Y291645D01*
X9400Y291651D01*
X9434Y291650D01*
X9539Y291678D01*
X9646Y291698D01*
X9677Y291714D01*
X9709Y291722D01*
X9803Y291778D01*
X9900Y291827D01*
X9922Y291848D01*
X9954Y291867D01*
X10104Y292027D01*
X10139Y292062D01*
X11197Y293518D01*
X12482Y294803D01*
X13951Y295870D01*
X15570Y296695D01*
X17298Y297257D01*
X17969Y297363D01*
X17969Y287016D01*
X17977Y286958D01*
X17975Y286900D01*
X17997Y286818D01*
X18009Y286735D01*
X18033Y286681D01*
X18047Y286625D01*
X18090Y286552D01*
X18125Y286475D01*
X18163Y286431D01*
X18193Y286380D01*
X18254Y286323D01*
X18309Y286258D01*
X18357Y286226D01*
X18400Y286186D01*
X18475Y286147D01*
X18545Y286101D01*
X18601Y286083D01*
X18653Y286056D01*
X18721Y286045D01*
X18816Y286015D01*
X18916Y286012D01*
X18984Y286001D01*
X20001Y286001D01*
X20001Y285999D01*
X18984Y285999D01*
X18926Y285991D01*
X18868Y285992D01*
X18786Y285971D01*
X18703Y285959D01*
X18649Y285935D01*
X18593Y285921D01*
X18520Y285878D01*
X18443Y285843D01*
X18398Y285805D01*
X18348Y285775D01*
X18290Y285714D01*
X18226Y285659D01*
X18194Y285611D01*
X18154Y285568D01*
X18115Y285493D01*
X18069Y285423D01*
X18051Y285367D01*
X18024Y285315D01*
X18013Y285247D01*
X17983Y285152D01*
X17980Y285052D01*
X17969Y284984D01*
X17969Y274637D01*
X17298Y274743D01*
X15570Y275305D01*
X13951Y276130D01*
X12482Y277197D01*
X11197Y278482D01*
X10139Y279938D01*
X10064Y280016D01*
X9993Y280099D01*
X9965Y280118D01*
X9942Y280142D01*
X9847Y280196D01*
X9757Y280257D01*
X9724Y280267D01*
X9695Y280284D01*
X9590Y280310D01*
X9486Y280342D01*
X9452Y280343D01*
X9419Y280351D01*
X9310Y280347D01*
X9202Y280350D01*
X9169Y280341D01*
X9135Y280340D01*
X9032Y280305D01*
X8927Y280278D01*
X8897Y280261D01*
X8865Y280250D01*
X8776Y280188D01*
X8682Y280133D01*
X8659Y280108D01*
X8631Y280089D01*
X8562Y280005D01*
X8488Y279925D01*
X8472Y279895D01*
X8451Y279869D01*
X8408Y279769D01*
X8358Y279672D01*
X8353Y279642D01*
X8338Y279608D01*
X8311Y279391D01*
X8303Y279341D01*
X8303Y222659D01*
X8318Y222551D01*
X8326Y222443D01*
X8338Y222411D01*
X8343Y222377D01*
X8387Y222278D01*
X8425Y222176D01*
X8445Y222149D01*
X8459Y222118D01*
X8529Y222035D01*
X8594Y221948D01*
X8621Y221927D01*
X8642Y221901D01*
X8733Y221841D01*
X8819Y221775D01*
X8851Y221762D01*
X8879Y221743D01*
X8983Y221711D01*
X9084Y221671D01*
X9118Y221668D01*
X9150Y221658D01*
X9259Y221655D01*
X9367Y221645D01*
X9400Y221651D01*
X9434Y221650D01*
X9539Y221678D01*
X9646Y221698D01*
X9677Y221714D01*
X9709Y221722D01*
X9803Y221778D01*
X9900Y221827D01*
X9922Y221848D01*
X9954Y221867D01*
X10104Y222027D01*
X10139Y222062D01*
X11197Y223518D01*
X12482Y224803D01*
X13951Y225870D01*
X15570Y226695D01*
X17298Y227257D01*
X17969Y227363D01*
X17969Y217016D01*
X17977Y216958D01*
X17975Y216900D01*
X17997Y216818D01*
X18009Y216735D01*
X18033Y216681D01*
X18047Y216625D01*
X18090Y216552D01*
X18125Y216475D01*
X18163Y216431D01*
X18193Y216380D01*
X18254Y216323D01*
X18309Y216258D01*
X18357Y216226D01*
X18400Y216186D01*
X18475Y216147D01*
X18545Y216101D01*
X18601Y216083D01*
X18653Y216056D01*
X18721Y216045D01*
X18816Y216015D01*
X18916Y216012D01*
X18984Y216001D01*
X20001Y216001D01*
X20001Y215999D01*
X18984Y215999D01*
X18926Y215991D01*
X18868Y215992D01*
X18786Y215971D01*
X18703Y215959D01*
X18649Y215935D01*
X18593Y215921D01*
X18520Y215878D01*
X18443Y215843D01*
X18398Y215805D01*
X18348Y215775D01*
X18290Y215714D01*
X18226Y215659D01*
X18194Y215611D01*
X18154Y215568D01*
X18115Y215493D01*
X18069Y215423D01*
X18051Y215367D01*
X18024Y215315D01*
X18013Y215247D01*
X17983Y215152D01*
X17980Y215052D01*
X17969Y214984D01*
X17969Y204637D01*
X17298Y204743D01*
X15570Y205305D01*
X13951Y206130D01*
X12482Y207197D01*
X11197Y208482D01*
X10139Y209938D01*
X10064Y210016D01*
X9993Y210099D01*
X9965Y210118D01*
X9942Y210142D01*
X9847Y210196D01*
X9757Y210257D01*
X9724Y210267D01*
X9695Y210284D01*
X9590Y210310D01*
X9486Y210342D01*
X9452Y210343D01*
X9419Y210351D01*
X9310Y210347D01*
X9202Y210350D01*
X9169Y210341D01*
X9135Y210340D01*
X9032Y210305D01*
X8927Y210278D01*
X8897Y210261D01*
X8865Y210250D01*
X8776Y210188D01*
X8682Y210133D01*
X8659Y210108D01*
X8631Y210089D01*
X8562Y210005D01*
X8488Y209925D01*
X8472Y209895D01*
X8451Y209869D01*
X8408Y209769D01*
X8358Y209672D01*
X8353Y209642D01*
X8338Y209608D01*
X8311Y209391D01*
X8303Y209341D01*
X8303Y18071D01*
X8311Y18015D01*
X8308Y17972D01*
X8553Y15484D01*
X8620Y15207D01*
X8624Y15201D01*
X8625Y15195D01*
X10529Y10597D01*
X10545Y10571D01*
X10555Y10541D01*
X10600Y10477D01*
X10674Y10352D01*
X10721Y10308D01*
X10749Y10268D01*
X14268Y6749D01*
X14293Y6731D01*
X14313Y6707D01*
X14379Y6665D01*
X14495Y6578D01*
X14555Y6556D01*
X14597Y6529D01*
X19195Y4625D01*
X19470Y4554D01*
X19477Y4554D01*
X19484Y4553D01*
X21972Y4308D01*
X22028Y4310D01*
X22071Y4303D01*
X177184Y4303D01*
X177270Y4315D01*
G37*
G36*
X172999Y208546D02*
X172999Y208546D01*
X173028Y208545D01*
X173138Y208574D01*
X173249Y208596D01*
X173275Y208610D01*
X173303Y208617D01*
X173401Y208675D01*
X173501Y208727D01*
X173523Y208747D01*
X173548Y208762D01*
X173625Y208845D01*
X173707Y208923D01*
X173722Y208948D01*
X173742Y208970D01*
X173794Y209070D01*
X173851Y209168D01*
X173858Y209197D01*
X173872Y209223D01*
X173885Y209300D01*
X173921Y209444D01*
X173919Y209506D01*
X173927Y209554D01*
X173927Y211208D01*
X174852Y213440D01*
X176146Y214734D01*
X176198Y214804D01*
X176258Y214868D01*
X176284Y214917D01*
X176317Y214961D01*
X176348Y215043D01*
X176388Y215121D01*
X176396Y215168D01*
X176418Y215227D01*
X176423Y215287D01*
X176429Y215307D01*
X176431Y215380D01*
X176443Y215452D01*
X176443Y277997D01*
X176431Y278082D01*
X176429Y278168D01*
X176411Y278222D01*
X176403Y278278D01*
X176368Y278357D01*
X176342Y278439D01*
X176310Y278486D01*
X176287Y278538D01*
X176232Y278603D01*
X176184Y278675D01*
X176140Y278711D01*
X176104Y278755D01*
X176032Y278802D01*
X175966Y278858D01*
X175914Y278881D01*
X175867Y278912D01*
X175785Y278938D01*
X175706Y278973D01*
X175650Y278981D01*
X175596Y278998D01*
X175510Y279000D01*
X175425Y279012D01*
X175369Y279004D01*
X175312Y279005D01*
X175229Y278984D01*
X175144Y278971D01*
X175092Y278948D01*
X175037Y278934D01*
X174963Y278890D01*
X174884Y278854D01*
X174841Y278817D01*
X174792Y278788D01*
X174733Y278726D01*
X174668Y278670D01*
X174642Y278628D01*
X174598Y278581D01*
X174532Y278452D01*
X174490Y278385D01*
X174148Y277560D01*
X172854Y276266D01*
X172802Y276196D01*
X172742Y276132D01*
X172716Y276083D01*
X172683Y276039D01*
X172652Y275957D01*
X172612Y275879D01*
X172604Y275832D01*
X172582Y275773D01*
X172570Y275625D01*
X172557Y275548D01*
X172557Y260527D01*
X157370Y245340D01*
X157318Y245270D01*
X157258Y245206D01*
X157232Y245157D01*
X157199Y245113D01*
X157168Y245031D01*
X157128Y244953D01*
X157120Y244906D01*
X157098Y244847D01*
X157086Y244700D01*
X157073Y244622D01*
X157073Y242792D01*
X156148Y240560D01*
X154440Y238852D01*
X152208Y237927D01*
X149792Y237927D01*
X147560Y238852D01*
X145852Y240560D01*
X144927Y242792D01*
X144927Y244948D01*
X144920Y245002D01*
X144921Y245033D01*
X144910Y245073D01*
X144901Y245177D01*
X144891Y245202D01*
X144887Y245230D01*
X144840Y245335D01*
X144799Y245442D01*
X144783Y245464D01*
X144771Y245489D01*
X144697Y245577D01*
X144628Y245669D01*
X144605Y245685D01*
X144588Y245706D01*
X144492Y245770D01*
X144400Y245839D01*
X144374Y245849D01*
X144351Y245864D01*
X144241Y245899D01*
X144134Y245939D01*
X144106Y245941D01*
X144080Y245950D01*
X143965Y245953D01*
X143851Y245962D01*
X143826Y245956D01*
X143796Y245957D01*
X143539Y245890D01*
X143523Y245886D01*
X141208Y244927D01*
X138792Y244927D01*
X136560Y245852D01*
X134852Y247560D01*
X133927Y249792D01*
X133927Y252208D01*
X134852Y254440D01*
X136560Y256148D01*
X138792Y257073D01*
X141208Y257073D01*
X143440Y256148D01*
X145148Y254440D01*
X146073Y252208D01*
X146073Y250052D01*
X146089Y249938D01*
X146099Y249823D01*
X146109Y249798D01*
X146113Y249770D01*
X146160Y249665D01*
X146201Y249558D01*
X146217Y249536D01*
X146229Y249511D01*
X146303Y249423D01*
X146372Y249331D01*
X146395Y249315D01*
X146412Y249294D01*
X146508Y249230D01*
X146600Y249161D01*
X146626Y249151D01*
X146649Y249136D01*
X146759Y249101D01*
X146866Y249061D01*
X146894Y249059D01*
X146920Y249050D01*
X147035Y249047D01*
X147149Y249038D01*
X147174Y249044D01*
X147204Y249043D01*
X147461Y249110D01*
X147477Y249114D01*
X149792Y250073D01*
X151622Y250073D01*
X151709Y250085D01*
X151796Y250088D01*
X151849Y250105D01*
X151904Y250113D01*
X151984Y250148D01*
X152067Y250175D01*
X152106Y250203D01*
X152163Y250229D01*
X152276Y250325D01*
X152340Y250370D01*
X165146Y263176D01*
X165198Y263246D01*
X165258Y263310D01*
X165284Y263359D01*
X165317Y263403D01*
X165348Y263485D01*
X165388Y263563D01*
X165396Y263610D01*
X165418Y263669D01*
X165430Y263816D01*
X165443Y263894D01*
X165443Y275548D01*
X165431Y275635D01*
X165428Y275722D01*
X165411Y275775D01*
X165403Y275830D01*
X165368Y275909D01*
X165341Y275993D01*
X165313Y276032D01*
X165287Y276089D01*
X165191Y276202D01*
X165146Y276266D01*
X163852Y277560D01*
X162927Y279792D01*
X162927Y282208D01*
X163852Y284440D01*
X165560Y286148D01*
X167792Y287073D01*
X170208Y287073D01*
X172440Y286148D01*
X174148Y284440D01*
X174490Y283615D01*
X174534Y283541D01*
X174569Y283462D01*
X174606Y283419D01*
X174635Y283370D01*
X174697Y283311D01*
X174753Y283245D01*
X174800Y283214D01*
X174841Y283175D01*
X174918Y283135D01*
X174989Y283088D01*
X175043Y283070D01*
X175094Y283044D01*
X175178Y283028D01*
X175260Y283002D01*
X175317Y283000D01*
X175373Y282989D01*
X175458Y282997D01*
X175544Y282995D01*
X175599Y283009D01*
X175656Y283014D01*
X175736Y283045D01*
X175819Y283066D01*
X175868Y283095D01*
X175921Y283116D01*
X175990Y283168D01*
X176064Y283212D01*
X176103Y283253D01*
X176148Y283287D01*
X176200Y283356D01*
X176258Y283419D01*
X176284Y283470D01*
X176318Y283515D01*
X176349Y283596D01*
X176388Y283672D01*
X176396Y283721D01*
X176419Y283781D01*
X176430Y283926D01*
X176443Y284003D01*
X176443Y292106D01*
X176431Y292193D01*
X176428Y292280D01*
X176411Y292333D01*
X176403Y292388D01*
X176368Y292468D01*
X176341Y292551D01*
X176313Y292590D01*
X176287Y292647D01*
X176191Y292760D01*
X176146Y292824D01*
X168340Y300630D01*
X168270Y300682D01*
X168206Y300742D01*
X168157Y300768D01*
X168113Y300801D01*
X168031Y300832D01*
X167953Y300872D01*
X167906Y300880D01*
X167847Y300902D01*
X167700Y300914D01*
X167622Y300927D01*
X165792Y300927D01*
X163560Y301852D01*
X161852Y303560D01*
X160927Y305792D01*
X160927Y308208D01*
X161852Y310440D01*
X163560Y312148D01*
X165792Y313073D01*
X168208Y313073D01*
X170440Y312148D01*
X172148Y310440D01*
X173073Y308208D01*
X173073Y306378D01*
X173085Y306291D01*
X173088Y306204D01*
X173105Y306151D01*
X173113Y306096D01*
X173148Y306016D01*
X173175Y305933D01*
X173203Y305894D01*
X173229Y305837D01*
X173325Y305724D01*
X173370Y305660D01*
X179529Y299501D01*
X179621Y299432D01*
X179709Y299358D01*
X179734Y299347D01*
X179756Y299330D01*
X179864Y299289D01*
X179969Y299242D01*
X179996Y299239D01*
X180022Y299229D01*
X180136Y299219D01*
X180250Y299203D01*
X180278Y299207D01*
X180305Y299205D01*
X180418Y299228D01*
X180532Y299244D01*
X180557Y299256D01*
X180584Y299261D01*
X180686Y299314D01*
X180791Y299361D01*
X180812Y299379D01*
X180836Y299392D01*
X180920Y299471D01*
X181007Y299546D01*
X181020Y299567D01*
X181042Y299588D01*
X181177Y299817D01*
X181185Y299830D01*
X181852Y301440D01*
X183560Y303148D01*
X185792Y304073D01*
X188208Y304073D01*
X190440Y303148D01*
X191734Y301854D01*
X191804Y301802D01*
X191868Y301742D01*
X191917Y301716D01*
X191961Y301683D01*
X192043Y301652D01*
X192121Y301612D01*
X192168Y301604D01*
X192227Y301582D01*
X192375Y301570D01*
X192452Y301557D01*
X263404Y301557D01*
X263433Y301561D01*
X263462Y301558D01*
X263573Y301581D01*
X263686Y301597D01*
X263712Y301609D01*
X263741Y301614D01*
X263842Y301666D01*
X263945Y301713D01*
X263967Y301732D01*
X263993Y301745D01*
X264076Y301823D01*
X264162Y301896D01*
X264178Y301921D01*
X264200Y301941D01*
X264257Y302039D01*
X264320Y302133D01*
X264328Y302161D01*
X264343Y302186D01*
X264371Y302296D01*
X264405Y302404D01*
X264406Y302433D01*
X264413Y302462D01*
X264410Y302575D01*
X264413Y302688D01*
X264405Y302717D01*
X264404Y302746D01*
X264369Y302854D01*
X264341Y302963D01*
X264326Y302989D01*
X264317Y303017D01*
X264271Y303081D01*
X264196Y303208D01*
X264150Y303251D01*
X264122Y303290D01*
X263852Y303560D01*
X262927Y305792D01*
X262927Y308208D01*
X263852Y310440D01*
X265560Y312148D01*
X267792Y313073D01*
X269622Y313073D01*
X269709Y313085D01*
X269796Y313088D01*
X269849Y313105D01*
X269904Y313113D01*
X269984Y313148D01*
X270067Y313175D01*
X270106Y313203D01*
X270163Y313229D01*
X270276Y313325D01*
X270340Y313370D01*
X294146Y337176D01*
X294198Y337246D01*
X294258Y337310D01*
X294284Y337359D01*
X294317Y337403D01*
X294348Y337485D01*
X294388Y337563D01*
X294396Y337610D01*
X294418Y337669D01*
X294430Y337816D01*
X294443Y337894D01*
X294443Y354548D01*
X294431Y354635D01*
X294428Y354722D01*
X294411Y354775D01*
X294403Y354830D01*
X294368Y354909D01*
X294341Y354993D01*
X294313Y355032D01*
X294287Y355089D01*
X294228Y355159D01*
X294204Y355200D01*
X294172Y355230D01*
X294146Y355266D01*
X292852Y356560D01*
X291927Y358792D01*
X291927Y361208D01*
X292852Y363440D01*
X294560Y365148D01*
X296792Y366073D01*
X299208Y366073D01*
X301440Y365148D01*
X303148Y363440D01*
X304073Y361208D01*
X304073Y358792D01*
X303148Y356560D01*
X301854Y355266D01*
X301842Y355249D01*
X301830Y355239D01*
X301800Y355194D01*
X301742Y355132D01*
X301716Y355083D01*
X301683Y355039D01*
X301652Y354957D01*
X301612Y354879D01*
X301604Y354832D01*
X301582Y354773D01*
X301570Y354625D01*
X301557Y354548D01*
X301557Y334527D01*
X275370Y308340D01*
X275318Y308270D01*
X275258Y308206D01*
X275232Y308157D01*
X275199Y308113D01*
X275168Y308031D01*
X275128Y307953D01*
X275120Y307906D01*
X275098Y307847D01*
X275086Y307700D01*
X275073Y307622D01*
X275073Y305792D01*
X274148Y303560D01*
X273878Y303290D01*
X273860Y303266D01*
X273838Y303247D01*
X273775Y303153D01*
X273707Y303063D01*
X273697Y303035D01*
X273680Y303011D01*
X273646Y302903D01*
X273606Y302797D01*
X273603Y302768D01*
X273595Y302740D01*
X273592Y302627D01*
X273582Y302514D01*
X273588Y302485D01*
X273587Y302456D01*
X273616Y302346D01*
X273638Y302235D01*
X273652Y302209D01*
X273659Y302181D01*
X273717Y302083D01*
X273769Y301983D01*
X273789Y301961D01*
X273804Y301936D01*
X273887Y301859D01*
X273965Y301777D01*
X273990Y301762D01*
X274012Y301742D01*
X274113Y301690D01*
X274210Y301633D01*
X274239Y301626D01*
X274265Y301612D01*
X274342Y301599D01*
X274486Y301563D01*
X274548Y301565D01*
X274596Y301557D01*
X306404Y301557D01*
X306433Y301561D01*
X306462Y301558D01*
X306573Y301581D01*
X306686Y301597D01*
X306712Y301609D01*
X306741Y301614D01*
X306842Y301666D01*
X306945Y301713D01*
X306967Y301732D01*
X306993Y301745D01*
X307076Y301823D01*
X307162Y301896D01*
X307178Y301921D01*
X307200Y301941D01*
X307257Y302039D01*
X307320Y302133D01*
X307328Y302161D01*
X307343Y302186D01*
X307371Y302296D01*
X307405Y302404D01*
X307406Y302433D01*
X307413Y302462D01*
X307410Y302575D01*
X307413Y302688D01*
X307405Y302717D01*
X307404Y302746D01*
X307369Y302854D01*
X307341Y302963D01*
X307326Y302989D01*
X307317Y303017D01*
X307271Y303081D01*
X307196Y303208D01*
X307150Y303251D01*
X307122Y303290D01*
X306852Y303560D01*
X305927Y305792D01*
X305927Y308208D01*
X306852Y310440D01*
X308560Y312148D01*
X310792Y313073D01*
X313208Y313073D01*
X315440Y312148D01*
X317148Y310440D01*
X318073Y308208D01*
X318073Y305792D01*
X317148Y303560D01*
X316878Y303290D01*
X316860Y303266D01*
X316838Y303247D01*
X316775Y303153D01*
X316707Y303063D01*
X316697Y303035D01*
X316680Y303011D01*
X316646Y302903D01*
X316606Y302797D01*
X316603Y302768D01*
X316595Y302740D01*
X316592Y302627D01*
X316582Y302514D01*
X316588Y302485D01*
X316587Y302456D01*
X316616Y302346D01*
X316638Y302235D01*
X316652Y302209D01*
X316659Y302181D01*
X316717Y302083D01*
X316769Y301983D01*
X316789Y301961D01*
X316804Y301936D01*
X316887Y301859D01*
X316965Y301777D01*
X316990Y301762D01*
X317012Y301742D01*
X317113Y301690D01*
X317210Y301633D01*
X317239Y301626D01*
X317265Y301612D01*
X317342Y301599D01*
X317486Y301563D01*
X317548Y301565D01*
X317596Y301557D01*
X373473Y301557D01*
X384557Y290473D01*
X384557Y282452D01*
X384564Y282399D01*
X384563Y282365D01*
X384570Y282341D01*
X384572Y282278D01*
X384589Y282225D01*
X384597Y282170D01*
X384632Y282091D01*
X384659Y282007D01*
X384687Y281968D01*
X384713Y281911D01*
X384809Y281798D01*
X384854Y281734D01*
X385710Y280878D01*
X385734Y280860D01*
X385753Y280838D01*
X385847Y280775D01*
X385937Y280707D01*
X385965Y280697D01*
X385989Y280680D01*
X386097Y280646D01*
X386203Y280606D01*
X386232Y280603D01*
X386260Y280595D01*
X386374Y280592D01*
X386486Y280582D01*
X386515Y280588D01*
X386544Y280587D01*
X386654Y280616D01*
X386765Y280638D01*
X386791Y280652D01*
X386819Y280659D01*
X386917Y280717D01*
X387017Y280769D01*
X387039Y280789D01*
X387064Y280804D01*
X387141Y280887D01*
X387223Y280965D01*
X387238Y280990D01*
X387258Y281012D01*
X387310Y281113D01*
X387367Y281210D01*
X387374Y281239D01*
X387388Y281265D01*
X387401Y281342D01*
X387437Y281486D01*
X387435Y281548D01*
X387443Y281596D01*
X387443Y324951D01*
X387427Y325065D01*
X387417Y325179D01*
X387407Y325205D01*
X387403Y325232D01*
X387357Y325337D01*
X387315Y325445D01*
X387298Y325467D01*
X387287Y325492D01*
X387213Y325579D01*
X387144Y325671D01*
X387121Y325688D01*
X387104Y325709D01*
X387008Y325772D01*
X386916Y325841D01*
X386890Y325851D01*
X386867Y325866D01*
X386757Y325901D01*
X386650Y325942D01*
X386622Y325944D01*
X386596Y325952D01*
X386481Y325955D01*
X386366Y325964D01*
X386342Y325959D01*
X386312Y325960D01*
X386194Y325929D01*
X383720Y325929D01*
X381488Y326853D01*
X379780Y328562D01*
X378855Y330794D01*
X378855Y332624D01*
X378843Y332710D01*
X378840Y332798D01*
X378823Y332850D01*
X378815Y332905D01*
X378780Y332985D01*
X378753Y333068D01*
X378725Y333108D01*
X378699Y333165D01*
X378603Y333278D01*
X378558Y333342D01*
X367054Y344846D01*
X366962Y344915D01*
X366874Y344989D01*
X366849Y345000D01*
X366826Y345017D01*
X366719Y345058D01*
X366614Y345105D01*
X366587Y345108D01*
X366561Y345118D01*
X366446Y345128D01*
X366332Y345143D01*
X366305Y345140D01*
X366277Y345142D01*
X366165Y345119D01*
X366051Y345103D01*
X366026Y345091D01*
X365999Y345086D01*
X365897Y345033D01*
X365792Y344986D01*
X365771Y344968D01*
X365746Y344955D01*
X365663Y344876D01*
X365576Y344801D01*
X365562Y344780D01*
X365540Y344759D01*
X365406Y344530D01*
X365398Y344517D01*
X365355Y344413D01*
X363576Y342634D01*
X361252Y341672D01*
X358737Y341672D01*
X356413Y342634D01*
X354634Y344413D01*
X353672Y346737D01*
X353672Y348878D01*
X353659Y348964D01*
X353657Y349052D01*
X353640Y349104D01*
X353632Y349159D01*
X353596Y349239D01*
X353569Y349322D01*
X353541Y349362D01*
X353516Y349419D01*
X353420Y349532D01*
X353374Y349596D01*
X329824Y373146D01*
X329754Y373198D01*
X329690Y373258D01*
X329641Y373284D01*
X329597Y373317D01*
X329515Y373348D01*
X329437Y373388D01*
X329390Y373396D01*
X329331Y373418D01*
X329184Y373430D01*
X329106Y373443D01*
X294527Y373443D01*
X289290Y378680D01*
X289266Y378698D01*
X289247Y378720D01*
X289153Y378783D01*
X289063Y378851D01*
X289035Y378861D01*
X289011Y378878D01*
X288903Y378912D01*
X288797Y378952D01*
X288768Y378955D01*
X288740Y378964D01*
X288626Y378966D01*
X288514Y378976D01*
X288485Y378970D01*
X288456Y378971D01*
X288346Y378942D01*
X288235Y378920D01*
X288209Y378906D01*
X288181Y378899D01*
X288083Y378841D01*
X287983Y378789D01*
X287961Y378769D01*
X287936Y378754D01*
X287859Y378671D01*
X287777Y378593D01*
X287762Y378568D01*
X287742Y378546D01*
X287690Y378446D01*
X287633Y378348D01*
X287626Y378319D01*
X287612Y378293D01*
X287599Y378216D01*
X287563Y378072D01*
X287565Y378010D01*
X287557Y377962D01*
X287557Y374452D01*
X287569Y374365D01*
X287572Y374278D01*
X287589Y374225D01*
X287597Y374170D01*
X287632Y374091D01*
X287659Y374007D01*
X287687Y373968D01*
X287713Y373911D01*
X287809Y373798D01*
X287854Y373734D01*
X289148Y372440D01*
X290073Y370208D01*
X290073Y367792D01*
X289148Y365560D01*
X287440Y363852D01*
X285208Y362927D01*
X282792Y362927D01*
X280560Y363852D01*
X278852Y365560D01*
X277927Y367792D01*
X277927Y370208D01*
X278852Y372440D01*
X280146Y373734D01*
X280198Y373804D01*
X280258Y373868D01*
X280284Y373917D01*
X280317Y373961D01*
X280348Y374043D01*
X280388Y374121D01*
X280396Y374168D01*
X280418Y374227D01*
X280430Y374375D01*
X280443Y374452D01*
X280443Y382077D01*
X280431Y382164D01*
X280428Y382251D01*
X280411Y382304D01*
X280403Y382359D01*
X280368Y382439D01*
X280341Y382522D01*
X280313Y382561D01*
X280287Y382618D01*
X280191Y382731D01*
X280146Y382795D01*
X229795Y433146D01*
X229725Y433198D01*
X229661Y433258D01*
X229612Y433284D01*
X229568Y433317D01*
X229486Y433348D01*
X229408Y433388D01*
X229361Y433396D01*
X229302Y433418D01*
X229155Y433430D01*
X229077Y433443D01*
X135377Y433443D01*
X135348Y433439D01*
X135319Y433442D01*
X135208Y433419D01*
X135096Y433403D01*
X135069Y433391D01*
X135040Y433386D01*
X134939Y433333D01*
X134836Y433287D01*
X134814Y433268D01*
X134788Y433255D01*
X134706Y433177D01*
X134619Y433104D01*
X134603Y433079D01*
X134582Y433059D01*
X134525Y432961D01*
X134462Y432867D01*
X134453Y432839D01*
X134438Y432814D01*
X134410Y432704D01*
X134376Y432596D01*
X134375Y432566D01*
X134368Y432538D01*
X134372Y432425D01*
X134369Y432312D01*
X134376Y432283D01*
X134377Y432254D01*
X134412Y432146D01*
X134440Y432037D01*
X134455Y432011D01*
X134464Y431983D01*
X134510Y431920D01*
X134586Y431792D01*
X134631Y431749D01*
X134659Y431710D01*
X136614Y429756D01*
X138161Y426021D01*
X138161Y421979D01*
X136614Y418244D01*
X133756Y415386D01*
X132183Y414735D01*
X132182Y414734D01*
X132181Y414734D01*
X132060Y414662D01*
X131939Y414590D01*
X131938Y414589D01*
X131936Y414588D01*
X131839Y414484D01*
X131743Y414384D01*
X131743Y414382D01*
X131742Y414381D01*
X131676Y414253D01*
X131613Y414131D01*
X131613Y414129D01*
X131612Y414128D01*
X131610Y414113D01*
X131558Y413852D01*
X131561Y413822D01*
X131557Y413797D01*
X131557Y397527D01*
X126836Y392806D01*
X126818Y392782D01*
X126796Y392763D01*
X126733Y392669D01*
X126665Y392579D01*
X126655Y392551D01*
X126638Y392527D01*
X126604Y392419D01*
X126564Y392313D01*
X126561Y392284D01*
X126552Y392256D01*
X126550Y392142D01*
X126540Y392030D01*
X126546Y392001D01*
X126545Y391972D01*
X126574Y391862D01*
X126596Y391751D01*
X126610Y391725D01*
X126617Y391697D01*
X126675Y391599D01*
X126727Y391499D01*
X126747Y391477D01*
X126762Y391452D01*
X126845Y391375D01*
X126923Y391293D01*
X126948Y391278D01*
X126970Y391258D01*
X127070Y391206D01*
X127168Y391149D01*
X127197Y391142D01*
X127223Y391128D01*
X127300Y391115D01*
X127444Y391079D01*
X127506Y391081D01*
X127554Y391073D01*
X129208Y391073D01*
X131440Y390148D01*
X133148Y388440D01*
X134073Y386208D01*
X134073Y384378D01*
X134085Y384291D01*
X134088Y384204D01*
X134105Y384151D01*
X134113Y384096D01*
X134148Y384016D01*
X134175Y383933D01*
X134203Y383894D01*
X134229Y383837D01*
X134325Y383724D01*
X134370Y383660D01*
X159176Y358854D01*
X159246Y358802D01*
X159310Y358742D01*
X159359Y358716D01*
X159403Y358683D01*
X159485Y358652D01*
X159563Y358612D01*
X159610Y358604D01*
X159669Y358582D01*
X159816Y358570D01*
X159894Y358557D01*
X186548Y358557D01*
X186635Y358569D01*
X186722Y358572D01*
X186775Y358589D01*
X186830Y358597D01*
X186909Y358632D01*
X186993Y358659D01*
X187032Y358687D01*
X187089Y358713D01*
X187202Y358809D01*
X187266Y358854D01*
X188560Y360148D01*
X190792Y361073D01*
X193208Y361073D01*
X195440Y360148D01*
X197148Y358440D01*
X198073Y356208D01*
X198073Y353792D01*
X197148Y351560D01*
X195440Y349852D01*
X193208Y348927D01*
X190792Y348927D01*
X188560Y349852D01*
X187266Y351146D01*
X187196Y351198D01*
X187132Y351258D01*
X187083Y351284D01*
X187039Y351317D01*
X186957Y351348D01*
X186879Y351388D01*
X186832Y351396D01*
X186773Y351418D01*
X186625Y351430D01*
X186548Y351443D01*
X156527Y351443D01*
X129340Y378630D01*
X129270Y378682D01*
X129206Y378742D01*
X129157Y378768D01*
X129113Y378801D01*
X129031Y378832D01*
X128953Y378872D01*
X128906Y378880D01*
X128847Y378902D01*
X128700Y378914D01*
X128622Y378927D01*
X126792Y378927D01*
X124560Y379852D01*
X122852Y381560D01*
X121927Y383792D01*
X121927Y385446D01*
X121923Y385475D01*
X121926Y385505D01*
X121903Y385616D01*
X121887Y385728D01*
X121875Y385754D01*
X121870Y385783D01*
X121818Y385884D01*
X121771Y385987D01*
X121752Y386010D01*
X121739Y386036D01*
X121661Y386118D01*
X121588Y386204D01*
X121563Y386220D01*
X121543Y386242D01*
X121445Y386299D01*
X121351Y386362D01*
X121323Y386371D01*
X121298Y386385D01*
X121188Y386413D01*
X121080Y386448D01*
X121050Y386448D01*
X121022Y386456D01*
X120909Y386452D01*
X120796Y386455D01*
X120767Y386447D01*
X120738Y386446D01*
X120630Y386412D01*
X120521Y386383D01*
X120495Y386368D01*
X120467Y386359D01*
X120404Y386313D01*
X120276Y386238D01*
X120233Y386192D01*
X120194Y386164D01*
X115854Y381824D01*
X115802Y381754D01*
X115742Y381690D01*
X115716Y381641D01*
X115683Y381597D01*
X115652Y381515D01*
X115612Y381437D01*
X115604Y381390D01*
X115582Y381331D01*
X115570Y381184D01*
X115557Y381106D01*
X115557Y256596D01*
X115561Y256567D01*
X115558Y256538D01*
X115581Y256427D01*
X115597Y256314D01*
X115609Y256288D01*
X115614Y256259D01*
X115666Y256158D01*
X115713Y256055D01*
X115732Y256033D01*
X115745Y256007D01*
X115823Y255924D01*
X115896Y255838D01*
X115921Y255822D01*
X115941Y255800D01*
X116039Y255743D01*
X116133Y255680D01*
X116161Y255672D01*
X116186Y255657D01*
X116296Y255629D01*
X116404Y255595D01*
X116433Y255594D01*
X116462Y255587D01*
X116575Y255590D01*
X116688Y255587D01*
X116717Y255595D01*
X116746Y255596D01*
X116854Y255631D01*
X116963Y255659D01*
X116989Y255674D01*
X117017Y255683D01*
X117081Y255729D01*
X117208Y255804D01*
X117251Y255850D01*
X117290Y255878D01*
X117560Y256148D01*
X119792Y257073D01*
X122208Y257073D01*
X124440Y256148D01*
X126148Y254440D01*
X127073Y252208D01*
X127073Y249792D01*
X126148Y247560D01*
X124440Y245852D01*
X122208Y244927D01*
X119792Y244927D01*
X117560Y245852D01*
X117290Y246122D01*
X117266Y246140D01*
X117247Y246162D01*
X117153Y246225D01*
X117063Y246293D01*
X117035Y246303D01*
X117011Y246320D01*
X116903Y246354D01*
X116797Y246394D01*
X116768Y246397D01*
X116740Y246405D01*
X116627Y246408D01*
X116514Y246418D01*
X116485Y246412D01*
X116456Y246413D01*
X116346Y246384D01*
X116235Y246362D01*
X116209Y246348D01*
X116181Y246341D01*
X116083Y246283D01*
X115983Y246231D01*
X115961Y246211D01*
X115936Y246196D01*
X115859Y246113D01*
X115777Y246035D01*
X115762Y246010D01*
X115742Y245988D01*
X115690Y245887D01*
X115633Y245790D01*
X115626Y245761D01*
X115612Y245735D01*
X115599Y245658D01*
X115563Y245514D01*
X115565Y245452D01*
X115557Y245404D01*
X115557Y227894D01*
X115569Y227807D01*
X115572Y227720D01*
X115589Y227667D01*
X115597Y227612D01*
X115632Y227532D01*
X115659Y227449D01*
X115687Y227410D01*
X115713Y227353D01*
X115809Y227240D01*
X115854Y227176D01*
X121220Y221810D01*
X121289Y221759D01*
X121351Y221699D01*
X121402Y221673D01*
X121447Y221639D01*
X121528Y221609D01*
X121604Y221569D01*
X121660Y221558D01*
X121713Y221538D01*
X121799Y221531D01*
X121883Y221514D01*
X121940Y221519D01*
X121996Y221514D01*
X122080Y221531D01*
X122166Y221539D01*
X122219Y221559D01*
X122275Y221570D01*
X122351Y221610D01*
X122432Y221641D01*
X122477Y221675D01*
X122527Y221701D01*
X122589Y221761D01*
X122658Y221813D01*
X122692Y221858D01*
X122733Y221897D01*
X122777Y221971D01*
X122828Y222040D01*
X122848Y222093D01*
X122877Y222142D01*
X122898Y222226D01*
X122929Y222306D01*
X122933Y222363D01*
X122947Y222418D01*
X122944Y222504D01*
X122951Y222590D01*
X122940Y222638D01*
X122938Y222702D01*
X122927Y222735D01*
X122927Y225208D01*
X123852Y227440D01*
X125560Y229148D01*
X127792Y230073D01*
X130208Y230073D01*
X132440Y229148D01*
X133734Y227854D01*
X133804Y227802D01*
X133868Y227742D01*
X133917Y227716D01*
X133961Y227683D01*
X134043Y227652D01*
X134121Y227612D01*
X134168Y227604D01*
X134227Y227582D01*
X134375Y227570D01*
X134452Y227557D01*
X153473Y227557D01*
X172194Y208836D01*
X172218Y208818D01*
X172237Y208796D01*
X172331Y208733D01*
X172421Y208665D01*
X172449Y208655D01*
X172473Y208638D01*
X172581Y208604D01*
X172687Y208564D01*
X172716Y208561D01*
X172744Y208552D01*
X172858Y208550D01*
X172970Y208540D01*
X172999Y208546D01*
G37*
G36*
X269772Y196585D02*
X269772Y196585D01*
X269859Y196588D01*
X269912Y196605D01*
X269967Y196613D01*
X270047Y196648D01*
X270130Y196675D01*
X270169Y196703D01*
X270226Y196729D01*
X270340Y196825D01*
X270403Y196870D01*
X322130Y248597D01*
X322182Y248667D01*
X322242Y248730D01*
X322268Y248780D01*
X322301Y248824D01*
X322332Y248906D01*
X322372Y248984D01*
X322380Y249031D01*
X322402Y249090D01*
X322414Y249237D01*
X322427Y249315D01*
X322427Y266218D01*
X322427Y266219D01*
X322427Y266221D01*
X322408Y266354D01*
X322387Y266499D01*
X322387Y266501D01*
X322387Y266502D01*
X322329Y266630D01*
X322271Y266759D01*
X322270Y266760D01*
X322269Y266761D01*
X322179Y266868D01*
X322088Y266976D01*
X322086Y266977D01*
X322085Y266978D01*
X322073Y266986D01*
X321851Y267133D01*
X321822Y267143D01*
X321801Y267156D01*
X321244Y267386D01*
X318386Y270244D01*
X316839Y273979D01*
X316839Y278021D01*
X318386Y281756D01*
X320341Y283710D01*
X320358Y283734D01*
X320381Y283753D01*
X320443Y283847D01*
X320512Y283937D01*
X320522Y283965D01*
X320538Y283989D01*
X320573Y284097D01*
X320613Y284203D01*
X320615Y284232D01*
X320624Y284260D01*
X320627Y284374D01*
X320636Y284486D01*
X320631Y284515D01*
X320631Y284544D01*
X320603Y284654D01*
X320580Y284765D01*
X320567Y284791D01*
X320560Y284819D01*
X320502Y284917D01*
X320449Y285017D01*
X320429Y285039D01*
X320414Y285064D01*
X320332Y285141D01*
X320254Y285223D01*
X320228Y285238D01*
X320207Y285258D01*
X320106Y285310D01*
X320008Y285367D01*
X319980Y285374D01*
X319954Y285388D01*
X319877Y285401D01*
X319733Y285437D01*
X319670Y285435D01*
X319623Y285443D01*
X218252Y285443D01*
X218138Y285427D01*
X218024Y285417D01*
X217998Y285407D01*
X217971Y285403D01*
X217866Y285356D01*
X217759Y285315D01*
X217736Y285299D01*
X217711Y285287D01*
X217624Y285213D01*
X217532Y285144D01*
X217515Y285121D01*
X217494Y285104D01*
X217430Y285008D01*
X217362Y284916D01*
X217352Y284890D01*
X217337Y284867D01*
X217302Y284757D01*
X217261Y284650D01*
X217259Y284622D01*
X217251Y284596D01*
X217248Y284481D01*
X217239Y284367D01*
X217244Y284342D01*
X217243Y284312D01*
X217311Y284055D01*
X217314Y284039D01*
X218073Y282208D01*
X218073Y279792D01*
X217148Y277560D01*
X215440Y275852D01*
X213208Y274927D01*
X210792Y274927D01*
X208560Y275852D01*
X206852Y277560D01*
X205927Y279792D01*
X205927Y282208D01*
X206686Y284039D01*
X206715Y284151D01*
X206749Y284260D01*
X206750Y284288D01*
X206757Y284315D01*
X206754Y284429D01*
X206757Y284544D01*
X206750Y284571D01*
X206749Y284599D01*
X206714Y284708D01*
X206685Y284819D01*
X206671Y284843D01*
X206662Y284870D01*
X206598Y284965D01*
X206539Y285064D01*
X206519Y285083D01*
X206504Y285106D01*
X206416Y285180D01*
X206332Y285258D01*
X206307Y285271D01*
X206286Y285289D01*
X206181Y285335D01*
X206079Y285388D01*
X206054Y285392D01*
X206026Y285404D01*
X205763Y285441D01*
X205748Y285443D01*
X192452Y285443D01*
X192365Y285431D01*
X192278Y285428D01*
X192225Y285411D01*
X192170Y285403D01*
X192091Y285368D01*
X192007Y285341D01*
X191968Y285313D01*
X191911Y285287D01*
X191798Y285191D01*
X191734Y285146D01*
X190440Y283852D01*
X188208Y282927D01*
X185792Y282927D01*
X184961Y283272D01*
X184849Y283300D01*
X184740Y283335D01*
X184712Y283336D01*
X184685Y283343D01*
X184571Y283339D01*
X184456Y283342D01*
X184429Y283335D01*
X184401Y283335D01*
X184292Y283300D01*
X184181Y283271D01*
X184157Y283256D01*
X184130Y283248D01*
X184035Y283184D01*
X183936Y283125D01*
X183917Y283105D01*
X183894Y283090D01*
X183820Y283002D01*
X183742Y282918D01*
X183729Y282893D01*
X183711Y282872D01*
X183665Y282767D01*
X183612Y282665D01*
X183608Y282640D01*
X183596Y282612D01*
X183559Y282348D01*
X183557Y282334D01*
X183557Y215452D01*
X183564Y215398D01*
X183563Y215358D01*
X183570Y215333D01*
X183572Y215278D01*
X183589Y215225D01*
X183597Y215170D01*
X183632Y215091D01*
X183659Y215007D01*
X183687Y214968D01*
X183713Y214911D01*
X183809Y214798D01*
X183854Y214734D01*
X185148Y213440D01*
X186073Y211208D01*
X186073Y208792D01*
X185728Y207961D01*
X185700Y207849D01*
X185665Y207740D01*
X185664Y207712D01*
X185657Y207685D01*
X185661Y207571D01*
X185658Y207456D01*
X185665Y207429D01*
X185665Y207401D01*
X185700Y207292D01*
X185729Y207181D01*
X185744Y207157D01*
X185752Y207130D01*
X185816Y207035D01*
X185875Y206936D01*
X185895Y206917D01*
X185910Y206894D01*
X185998Y206820D01*
X186082Y206742D01*
X186107Y206729D01*
X186128Y206711D01*
X186233Y206665D01*
X186335Y206612D01*
X186360Y206608D01*
X186388Y206596D01*
X186652Y206559D01*
X186666Y206557D01*
X211106Y206557D01*
X211193Y206569D01*
X211280Y206572D01*
X211333Y206589D01*
X211388Y206597D01*
X211468Y206632D01*
X211551Y206659D01*
X211590Y206687D01*
X211647Y206713D01*
X211760Y206809D01*
X211824Y206854D01*
X221164Y216194D01*
X221182Y216218D01*
X221204Y216237D01*
X221267Y216331D01*
X221335Y216421D01*
X221345Y216449D01*
X221362Y216473D01*
X221396Y216581D01*
X221436Y216687D01*
X221439Y216716D01*
X221448Y216744D01*
X221450Y216858D01*
X221460Y216970D01*
X221454Y216999D01*
X221455Y217028D01*
X221426Y217138D01*
X221404Y217249D01*
X221390Y217275D01*
X221383Y217303D01*
X221325Y217401D01*
X221273Y217501D01*
X221253Y217523D01*
X221238Y217548D01*
X221155Y217625D01*
X221077Y217707D01*
X221052Y217722D01*
X221030Y217742D01*
X220930Y217794D01*
X220832Y217851D01*
X220803Y217858D01*
X220777Y217872D01*
X220700Y217885D01*
X220556Y217921D01*
X220494Y217919D01*
X220446Y217927D01*
X219792Y217927D01*
X217560Y218852D01*
X215852Y220560D01*
X214927Y222792D01*
X214927Y225208D01*
X215852Y227440D01*
X217560Y229148D01*
X219792Y230073D01*
X222208Y230073D01*
X224440Y229148D01*
X226148Y227440D01*
X227073Y225208D01*
X227073Y224554D01*
X227077Y224525D01*
X227074Y224495D01*
X227097Y224384D01*
X227113Y224272D01*
X227125Y224246D01*
X227130Y224217D01*
X227182Y224116D01*
X227229Y224013D01*
X227248Y223990D01*
X227261Y223964D01*
X227339Y223882D01*
X227412Y223796D01*
X227437Y223780D01*
X227457Y223758D01*
X227555Y223701D01*
X227649Y223638D01*
X227677Y223629D01*
X227702Y223615D01*
X227812Y223587D01*
X227920Y223552D01*
X227950Y223552D01*
X227978Y223544D01*
X228091Y223548D01*
X228204Y223545D01*
X228233Y223553D01*
X228262Y223554D01*
X228370Y223588D01*
X228479Y223617D01*
X228505Y223632D01*
X228533Y223641D01*
X228596Y223687D01*
X228724Y223762D01*
X228767Y223808D01*
X228806Y223836D01*
X248630Y243660D01*
X248682Y243730D01*
X248742Y243794D01*
X248768Y243843D01*
X248801Y243887D01*
X248832Y243969D01*
X248872Y244047D01*
X248880Y244094D01*
X248902Y244153D01*
X248914Y244300D01*
X248927Y244378D01*
X248927Y246208D01*
X249852Y248440D01*
X251560Y250148D01*
X253792Y251073D01*
X256208Y251073D01*
X258440Y250148D01*
X260148Y248440D01*
X261073Y246208D01*
X261073Y243792D01*
X260148Y241560D01*
X258440Y239852D01*
X256208Y238927D01*
X254378Y238927D01*
X254291Y238915D01*
X254204Y238912D01*
X254151Y238895D01*
X254096Y238887D01*
X254016Y238852D01*
X253933Y238825D01*
X253894Y238797D01*
X253837Y238771D01*
X253724Y238675D01*
X253660Y238630D01*
X214473Y199443D01*
X171527Y199443D01*
X167073Y203897D01*
X167005Y203949D01*
X166942Y204008D01*
X166891Y204034D01*
X166846Y204068D01*
X166766Y204098D01*
X166689Y204138D01*
X166633Y204149D01*
X166580Y204169D01*
X166495Y204176D01*
X166410Y204193D01*
X166354Y204188D01*
X166297Y204193D01*
X166213Y204176D01*
X166127Y204168D01*
X166074Y204148D01*
X166018Y204137D01*
X165942Y204097D01*
X165862Y204066D01*
X165816Y204032D01*
X165766Y204006D01*
X165704Y203947D01*
X165635Y203895D01*
X165601Y203849D01*
X165560Y203810D01*
X165516Y203736D01*
X165465Y203667D01*
X165445Y203614D01*
X165416Y203565D01*
X165395Y203482D01*
X165364Y203401D01*
X165360Y203344D01*
X165346Y203289D01*
X165349Y203203D01*
X165342Y203118D01*
X165353Y203069D01*
X165355Y203005D01*
X165399Y202867D01*
X165417Y202791D01*
X166073Y201208D01*
X166073Y198792D01*
X165735Y197977D01*
X165706Y197865D01*
X165672Y197756D01*
X165671Y197728D01*
X165664Y197701D01*
X165667Y197587D01*
X165664Y197472D01*
X165671Y197445D01*
X165672Y197417D01*
X165707Y197308D01*
X165736Y197197D01*
X165750Y197173D01*
X165759Y197146D01*
X165823Y197051D01*
X165881Y196952D01*
X165902Y196933D01*
X165917Y196910D01*
X166005Y196836D01*
X166089Y196758D01*
X166113Y196745D01*
X166135Y196727D01*
X166240Y196680D01*
X166342Y196628D01*
X166366Y196624D01*
X166394Y196612D01*
X166658Y196575D01*
X166673Y196573D01*
X269685Y196573D01*
X269772Y196585D01*
G37*
G36*
X310635Y112569D02*
X310635Y112569D01*
X310722Y112572D01*
X310775Y112589D01*
X310830Y112597D01*
X310909Y112632D01*
X310993Y112659D01*
X311032Y112687D01*
X311089Y112713D01*
X311202Y112809D01*
X311266Y112854D01*
X312560Y114148D01*
X314792Y115073D01*
X315446Y115073D01*
X315475Y115077D01*
X315505Y115074D01*
X315616Y115097D01*
X315728Y115113D01*
X315754Y115125D01*
X315783Y115130D01*
X315884Y115182D01*
X315987Y115229D01*
X316010Y115248D01*
X316036Y115261D01*
X316118Y115339D01*
X316204Y115412D01*
X316220Y115437D01*
X316242Y115457D01*
X316299Y115555D01*
X316362Y115649D01*
X316371Y115677D01*
X316385Y115702D01*
X316413Y115812D01*
X316448Y115920D01*
X316448Y115950D01*
X316456Y115978D01*
X316452Y116091D01*
X316455Y116204D01*
X316447Y116233D01*
X316446Y116262D01*
X316412Y116370D01*
X316383Y116479D01*
X316368Y116505D01*
X316359Y116533D01*
X316314Y116596D01*
X316238Y116724D01*
X316192Y116767D01*
X316164Y116806D01*
X288224Y144746D01*
X288154Y144798D01*
X288090Y144858D01*
X288041Y144884D01*
X287997Y144917D01*
X287915Y144948D01*
X287837Y144988D01*
X287790Y144996D01*
X287731Y145018D01*
X287584Y145030D01*
X287506Y145043D01*
X228203Y145043D01*
X228201Y145043D01*
X228200Y145043D01*
X228060Y145023D01*
X227922Y145003D01*
X227920Y145003D01*
X227919Y145003D01*
X227793Y144946D01*
X227662Y144887D01*
X227661Y144886D01*
X227659Y144885D01*
X227551Y144793D01*
X227445Y144704D01*
X227444Y144702D01*
X227443Y144701D01*
X227435Y144688D01*
X227288Y144467D01*
X227278Y144438D01*
X227265Y144417D01*
X226614Y142844D01*
X223756Y139986D01*
X220021Y138439D01*
X215979Y138439D01*
X212244Y139986D01*
X209386Y142844D01*
X208510Y144960D01*
X208466Y145034D01*
X208431Y145112D01*
X208394Y145156D01*
X208365Y145205D01*
X208303Y145264D01*
X208247Y145329D01*
X208200Y145361D01*
X208159Y145400D01*
X208082Y145439D01*
X208011Y145487D01*
X207957Y145504D01*
X207906Y145530D01*
X207822Y145547D01*
X207740Y145573D01*
X207683Y145574D01*
X207627Y145585D01*
X207542Y145578D01*
X207456Y145580D01*
X207401Y145565D01*
X207344Y145561D01*
X207264Y145530D01*
X207181Y145508D01*
X207132Y145479D01*
X207079Y145459D01*
X207010Y145407D01*
X206936Y145363D01*
X206897Y145321D01*
X206852Y145287D01*
X206800Y145218D01*
X206742Y145155D01*
X206716Y145105D01*
X206682Y145059D01*
X206651Y144979D01*
X206612Y144902D01*
X206604Y144854D01*
X206581Y144793D01*
X206570Y144649D01*
X206557Y144571D01*
X206557Y142894D01*
X206569Y142807D01*
X206572Y142720D01*
X206589Y142667D01*
X206597Y142612D01*
X206632Y142532D01*
X206659Y142449D01*
X206687Y142410D01*
X206713Y142353D01*
X206809Y142240D01*
X206854Y142176D01*
X236176Y112854D01*
X236246Y112802D01*
X236310Y112742D01*
X236359Y112716D01*
X236403Y112683D01*
X236485Y112652D01*
X236563Y112612D01*
X236610Y112604D01*
X236669Y112582D01*
X236816Y112570D01*
X236894Y112557D01*
X310548Y112557D01*
X310635Y112569D01*
G37*
%LPC*%
G36*
X82792Y225927D02*
X82792Y225927D01*
X80560Y226852D01*
X78852Y228560D01*
X77927Y230792D01*
X77927Y231185D01*
X77915Y231272D01*
X77912Y231359D01*
X77895Y231412D01*
X77887Y231467D01*
X77852Y231547D01*
X77825Y231630D01*
X77797Y231669D01*
X77771Y231726D01*
X77675Y231840D01*
X77630Y231903D01*
X71427Y238106D01*
X71427Y275564D01*
X71415Y275651D01*
X71412Y275738D01*
X71395Y275791D01*
X71387Y275846D01*
X71352Y275925D01*
X71325Y276009D01*
X71297Y276048D01*
X71271Y276105D01*
X71175Y276218D01*
X71130Y276282D01*
X70852Y276560D01*
X69927Y278792D01*
X69927Y281208D01*
X70852Y283440D01*
X71130Y283718D01*
X71182Y283788D01*
X71242Y283852D01*
X71268Y283901D01*
X71301Y283945D01*
X71332Y284027D01*
X71372Y284105D01*
X71380Y284152D01*
X71402Y284211D01*
X71413Y284343D01*
X71413Y284344D01*
X71413Y284348D01*
X71414Y284359D01*
X71427Y284436D01*
X71427Y362894D01*
X73243Y364710D01*
X73261Y364734D01*
X73283Y364753D01*
X73346Y364847D01*
X73414Y364937D01*
X73425Y364965D01*
X73441Y364989D01*
X73475Y365097D01*
X73515Y365203D01*
X73518Y365232D01*
X73527Y365260D01*
X73530Y365374D01*
X73539Y365486D01*
X73533Y365515D01*
X73534Y365544D01*
X73505Y365654D01*
X73483Y365765D01*
X73470Y365791D01*
X73462Y365819D01*
X73404Y365917D01*
X73352Y366017D01*
X73332Y366039D01*
X73317Y366064D01*
X73234Y366141D01*
X73156Y366223D01*
X73131Y366238D01*
X73110Y366258D01*
X73009Y366310D01*
X72911Y366367D01*
X72883Y366374D01*
X72856Y366388D01*
X72779Y366401D01*
X72636Y366437D01*
X72573Y366435D01*
X72525Y366443D01*
X57527Y366443D01*
X27340Y396630D01*
X27270Y396682D01*
X27206Y396742D01*
X27157Y396768D01*
X27113Y396801D01*
X27031Y396832D01*
X26953Y396872D01*
X26906Y396880D01*
X26847Y396902D01*
X26700Y396914D01*
X26622Y396927D01*
X24792Y396927D01*
X22560Y397852D01*
X20852Y399560D01*
X19927Y401792D01*
X19927Y404208D01*
X20852Y406440D01*
X22560Y408148D01*
X24792Y409073D01*
X27208Y409073D01*
X29440Y408148D01*
X31148Y406440D01*
X32073Y404208D01*
X32073Y402378D01*
X32085Y402291D01*
X32088Y402204D01*
X32105Y402151D01*
X32113Y402096D01*
X32148Y402016D01*
X32175Y401933D01*
X32203Y401894D01*
X32229Y401837D01*
X32325Y401724D01*
X32370Y401660D01*
X60176Y373854D01*
X60246Y373802D01*
X60310Y373742D01*
X60359Y373716D01*
X60403Y373683D01*
X60485Y373652D01*
X60563Y373612D01*
X60610Y373604D01*
X60669Y373582D01*
X60816Y373570D01*
X60894Y373557D01*
X81669Y373557D01*
X81756Y373569D01*
X81843Y373572D01*
X81896Y373589D01*
X81951Y373597D01*
X82031Y373632D01*
X82114Y373659D01*
X82153Y373687D01*
X82210Y373713D01*
X82324Y373809D01*
X82387Y373854D01*
X84630Y376097D01*
X84682Y376167D01*
X84742Y376230D01*
X84768Y376280D01*
X84801Y376324D01*
X84832Y376406D01*
X84872Y376484D01*
X84880Y376531D01*
X84902Y376590D01*
X84914Y376737D01*
X84927Y376815D01*
X84927Y377208D01*
X85852Y379440D01*
X87560Y381148D01*
X89792Y382073D01*
X92208Y382073D01*
X94440Y381148D01*
X96148Y379440D01*
X97073Y377208D01*
X97073Y374792D01*
X96148Y372560D01*
X94440Y370852D01*
X92208Y369927D01*
X91815Y369927D01*
X91728Y369915D01*
X91641Y369912D01*
X91588Y369895D01*
X91533Y369887D01*
X91453Y369852D01*
X91370Y369825D01*
X91331Y369797D01*
X91274Y369771D01*
X91160Y369675D01*
X91097Y369630D01*
X80870Y359403D01*
X80818Y359333D01*
X80758Y359270D01*
X80732Y359220D01*
X80699Y359176D01*
X80668Y359094D01*
X80628Y359016D01*
X80620Y358969D01*
X80598Y358910D01*
X80589Y358799D01*
X80587Y358793D01*
X80586Y358767D01*
X80586Y358763D01*
X80573Y358685D01*
X80573Y284436D01*
X80585Y284349D01*
X80588Y284262D01*
X80605Y284209D01*
X80613Y284154D01*
X80648Y284075D01*
X80675Y283991D01*
X80703Y283952D01*
X80729Y283895D01*
X80825Y283782D01*
X80870Y283718D01*
X81148Y283440D01*
X82073Y281208D01*
X82073Y278792D01*
X81148Y276560D01*
X80870Y276282D01*
X80818Y276212D01*
X80758Y276148D01*
X80732Y276099D01*
X80699Y276055D01*
X80668Y275973D01*
X80628Y275895D01*
X80620Y275848D01*
X80598Y275789D01*
X80586Y275641D01*
X80573Y275564D01*
X80573Y242315D01*
X80585Y242228D01*
X80588Y242141D01*
X80605Y242088D01*
X80613Y242033D01*
X80648Y241953D01*
X80675Y241870D01*
X80703Y241831D01*
X80729Y241774D01*
X80825Y241660D01*
X80870Y241597D01*
X84097Y238370D01*
X84167Y238318D01*
X84230Y238258D01*
X84280Y238232D01*
X84324Y238199D01*
X84406Y238168D01*
X84484Y238128D01*
X84531Y238120D01*
X84590Y238098D01*
X84737Y238086D01*
X84815Y238073D01*
X85208Y238073D01*
X87440Y237148D01*
X89148Y235440D01*
X90073Y233208D01*
X90073Y230792D01*
X89148Y228560D01*
X87440Y226852D01*
X85208Y225927D01*
X82792Y225927D01*
G37*
%LPD*%
%LPC*%
G36*
X403792Y52927D02*
X403792Y52927D01*
X401560Y53852D01*
X399852Y55560D01*
X398927Y57792D01*
X398927Y60208D01*
X399852Y62440D01*
X401146Y63734D01*
X401198Y63804D01*
X401258Y63868D01*
X401284Y63917D01*
X401317Y63961D01*
X401348Y64043D01*
X401388Y64121D01*
X401396Y64168D01*
X401418Y64227D01*
X401430Y64375D01*
X401443Y64452D01*
X401443Y164106D01*
X401431Y164193D01*
X401428Y164280D01*
X401411Y164333D01*
X401403Y164388D01*
X401368Y164468D01*
X401341Y164551D01*
X401313Y164590D01*
X401287Y164647D01*
X401191Y164760D01*
X401146Y164824D01*
X367340Y198630D01*
X367270Y198682D01*
X367206Y198742D01*
X367157Y198768D01*
X367113Y198801D01*
X367031Y198832D01*
X366953Y198872D01*
X366906Y198880D01*
X366847Y198902D01*
X366700Y198914D01*
X366622Y198927D01*
X364792Y198927D01*
X362560Y199852D01*
X360852Y201560D01*
X359927Y203792D01*
X359927Y206208D01*
X360852Y208440D01*
X362560Y210148D01*
X364792Y211073D01*
X367208Y211073D01*
X369440Y210148D01*
X371148Y208440D01*
X372073Y206208D01*
X372073Y204378D01*
X372085Y204291D01*
X372088Y204204D01*
X372105Y204151D01*
X372113Y204096D01*
X372148Y204016D01*
X372175Y203933D01*
X372203Y203894D01*
X372229Y203837D01*
X372325Y203724D01*
X372370Y203660D01*
X408557Y167473D01*
X408557Y64452D01*
X408569Y64365D01*
X408572Y64278D01*
X408589Y64225D01*
X408597Y64170D01*
X408632Y64091D01*
X408659Y64007D01*
X408687Y63968D01*
X408713Y63911D01*
X408809Y63798D01*
X408854Y63734D01*
X410282Y62306D01*
X410329Y62271D01*
X410369Y62228D01*
X410442Y62186D01*
X410509Y62135D01*
X410564Y62114D01*
X410614Y62085D01*
X410696Y62064D01*
X410775Y62034D01*
X410833Y62029D01*
X410890Y62015D01*
X410974Y62017D01*
X411058Y62010D01*
X411116Y62022D01*
X411174Y62024D01*
X411254Y62050D01*
X411337Y62066D01*
X411389Y62093D01*
X411445Y62111D01*
X411501Y62151D01*
X411589Y62197D01*
X411662Y62266D01*
X411718Y62306D01*
X413560Y64148D01*
X415792Y65073D01*
X418208Y65073D01*
X420440Y64148D01*
X422148Y62440D01*
X423073Y60208D01*
X423073Y57792D01*
X422148Y55560D01*
X420440Y53852D01*
X418208Y52927D01*
X415792Y52927D01*
X413560Y53852D01*
X411718Y55694D01*
X411671Y55729D01*
X411631Y55772D01*
X411558Y55814D01*
X411491Y55865D01*
X411436Y55886D01*
X411386Y55915D01*
X411304Y55936D01*
X411225Y55966D01*
X411167Y55971D01*
X411110Y55985D01*
X411026Y55983D01*
X410942Y55990D01*
X410884Y55978D01*
X410826Y55976D01*
X410746Y55950D01*
X410663Y55934D01*
X410611Y55907D01*
X410555Y55889D01*
X410499Y55849D01*
X410411Y55803D01*
X410338Y55734D01*
X410282Y55694D01*
X408440Y53852D01*
X406208Y52927D01*
X403792Y52927D01*
G37*
%LPD*%
G36*
X120052Y440561D02*
X120052Y440561D01*
X120081Y440558D01*
X120192Y440581D01*
X120304Y440597D01*
X120331Y440609D01*
X120360Y440614D01*
X120461Y440667D01*
X120564Y440713D01*
X120586Y440732D01*
X120612Y440745D01*
X120694Y440823D01*
X120781Y440896D01*
X120797Y440921D01*
X120818Y440941D01*
X120875Y441039D01*
X120938Y441133D01*
X120947Y441161D01*
X120962Y441186D01*
X120990Y441296D01*
X121024Y441404D01*
X121025Y441434D01*
X121032Y441462D01*
X121028Y441575D01*
X121031Y441688D01*
X121024Y441717D01*
X121023Y441746D01*
X120988Y441854D01*
X120960Y441963D01*
X120945Y441989D01*
X120936Y442017D01*
X120890Y442081D01*
X120814Y442208D01*
X120769Y442251D01*
X120741Y442290D01*
X119386Y443644D01*
X117839Y447379D01*
X117839Y451421D01*
X118490Y452993D01*
X118491Y452995D01*
X118492Y452996D01*
X118526Y453132D01*
X118561Y453268D01*
X118561Y453270D01*
X118562Y453272D01*
X118557Y453413D01*
X118553Y453553D01*
X118553Y453554D01*
X118553Y453556D01*
X118508Y453693D01*
X118467Y453823D01*
X118466Y453825D01*
X118465Y453826D01*
X118456Y453839D01*
X118308Y454060D01*
X118285Y454079D01*
X118270Y454100D01*
X117624Y454746D01*
X115243Y457127D01*
X115243Y475797D01*
X115243Y475799D01*
X115243Y475800D01*
X115223Y475939D01*
X115203Y476078D01*
X115203Y476080D01*
X115203Y476081D01*
X115146Y476207D01*
X115087Y476338D01*
X115086Y476339D01*
X115085Y476341D01*
X114994Y476448D01*
X114904Y476555D01*
X114902Y476556D01*
X114901Y476557D01*
X114888Y476565D01*
X114667Y476712D01*
X114638Y476722D01*
X114617Y476735D01*
X113044Y477386D01*
X110186Y480244D01*
X108639Y483979D01*
X108639Y488021D01*
X110186Y491756D01*
X113044Y494614D01*
X115773Y495744D01*
X115847Y495788D01*
X115925Y495823D01*
X115969Y495860D01*
X116018Y495889D01*
X116077Y495951D01*
X116142Y496007D01*
X116174Y496054D01*
X116213Y496095D01*
X116252Y496172D01*
X116300Y496243D01*
X116317Y496297D01*
X116343Y496348D01*
X116360Y496432D01*
X116386Y496514D01*
X116387Y496571D01*
X116398Y496627D01*
X116391Y496712D01*
X116393Y496798D01*
X116379Y496853D01*
X116374Y496910D01*
X116343Y496990D01*
X116321Y497073D01*
X116292Y497122D01*
X116272Y497175D01*
X116220Y497244D01*
X116176Y497318D01*
X116134Y497357D01*
X116100Y497402D01*
X116031Y497454D01*
X115969Y497512D01*
X115918Y497538D01*
X115872Y497572D01*
X115792Y497603D01*
X115716Y497642D01*
X115667Y497650D01*
X115606Y497673D01*
X115462Y497684D01*
X115384Y497697D01*
X96816Y497697D01*
X96730Y497685D01*
X96645Y497683D01*
X96590Y497665D01*
X96534Y497657D01*
X96456Y497622D01*
X96374Y497596D01*
X96327Y497564D01*
X96275Y497541D01*
X96209Y497486D01*
X96138Y497438D01*
X96101Y497394D01*
X96058Y497358D01*
X96010Y497286D01*
X95955Y497220D01*
X95932Y497168D01*
X95900Y497121D01*
X95874Y497039D01*
X95839Y496960D01*
X95831Y496904D01*
X95814Y496850D01*
X95812Y496764D01*
X95800Y496679D01*
X95808Y496623D01*
X95807Y496566D01*
X95829Y496483D01*
X95841Y496398D01*
X95864Y496346D01*
X95879Y496291D01*
X95923Y496217D01*
X95958Y496138D01*
X95995Y496095D01*
X96024Y496046D01*
X96087Y495987D01*
X96142Y495922D01*
X96184Y495896D01*
X96231Y495852D01*
X96361Y495786D01*
X96427Y495744D01*
X99156Y494614D01*
X102014Y491756D01*
X103561Y488021D01*
X103561Y483979D01*
X102014Y480244D01*
X99156Y477386D01*
X95421Y475839D01*
X91379Y475839D01*
X89807Y476490D01*
X89805Y476491D01*
X89804Y476492D01*
X89672Y476525D01*
X89532Y476561D01*
X89530Y476561D01*
X89528Y476562D01*
X89387Y476557D01*
X89247Y476553D01*
X89246Y476553D01*
X89244Y476553D01*
X89108Y476509D01*
X88977Y476467D01*
X88975Y476466D01*
X88974Y476465D01*
X88961Y476456D01*
X88740Y476308D01*
X88721Y476285D01*
X88700Y476270D01*
X86854Y474424D01*
X86802Y474354D01*
X86742Y474290D01*
X86716Y474241D01*
X86683Y474197D01*
X86652Y474115D01*
X86612Y474037D01*
X86604Y473990D01*
X86582Y473931D01*
X86570Y473784D01*
X86557Y473706D01*
X86557Y454029D01*
X86564Y453975D01*
X86563Y453942D01*
X86569Y453919D01*
X86571Y453858D01*
X86589Y453804D01*
X86597Y453747D01*
X86632Y453669D01*
X86658Y453587D01*
X86690Y453540D01*
X86713Y453488D01*
X86768Y453422D01*
X86816Y453351D01*
X86860Y453314D01*
X86896Y453271D01*
X86968Y453223D01*
X87034Y453168D01*
X87086Y453145D01*
X87133Y453113D01*
X87215Y453087D01*
X87294Y453052D01*
X87350Y453045D01*
X87404Y453027D01*
X87490Y453025D01*
X87575Y453014D01*
X87631Y453022D01*
X87688Y453020D01*
X87771Y453042D01*
X87856Y453054D01*
X87908Y453078D01*
X87963Y453092D01*
X88037Y453136D01*
X88116Y453171D01*
X88159Y453208D01*
X88208Y453237D01*
X88267Y453300D01*
X88332Y453356D01*
X88358Y453398D01*
X88402Y453445D01*
X88465Y453568D01*
X88500Y453620D01*
X88503Y453629D01*
X88510Y453640D01*
X89386Y455756D01*
X92244Y458614D01*
X95979Y460161D01*
X100021Y460161D01*
X103756Y458614D01*
X106614Y455756D01*
X108161Y452021D01*
X108161Y447979D01*
X107510Y446407D01*
X107509Y446405D01*
X107508Y446404D01*
X107474Y446271D01*
X107439Y446132D01*
X107439Y446130D01*
X107438Y446128D01*
X107443Y445983D01*
X107447Y445847D01*
X107447Y445846D01*
X107447Y445844D01*
X107491Y445708D01*
X107533Y445577D01*
X107534Y445575D01*
X107535Y445574D01*
X107544Y445561D01*
X107692Y445340D01*
X107715Y445321D01*
X107730Y445300D01*
X112176Y440854D01*
X112246Y440802D01*
X112310Y440742D01*
X112359Y440716D01*
X112403Y440683D01*
X112485Y440652D01*
X112563Y440612D01*
X112610Y440604D01*
X112669Y440582D01*
X112816Y440570D01*
X112894Y440557D01*
X120023Y440557D01*
X120052Y440561D01*
G37*
G36*
X332591Y251048D02*
X332591Y251048D01*
X332704Y251045D01*
X332733Y251053D01*
X332762Y251054D01*
X332870Y251088D01*
X332979Y251117D01*
X333005Y251132D01*
X333033Y251141D01*
X333096Y251187D01*
X333224Y251262D01*
X333267Y251308D01*
X333306Y251336D01*
X338146Y256176D01*
X340527Y258557D01*
X372106Y258557D01*
X372193Y258569D01*
X372280Y258572D01*
X372333Y258589D01*
X372388Y258597D01*
X372468Y258632D01*
X372551Y258659D01*
X372590Y258687D01*
X372647Y258713D01*
X372760Y258809D01*
X372824Y258854D01*
X383190Y269220D01*
X383242Y269289D01*
X383301Y269351D01*
X383327Y269402D01*
X383361Y269447D01*
X383391Y269528D01*
X383431Y269604D01*
X383442Y269660D01*
X383462Y269713D01*
X383469Y269799D01*
X383486Y269883D01*
X383481Y269940D01*
X383486Y269996D01*
X383469Y270080D01*
X383461Y270166D01*
X383441Y270219D01*
X383430Y270275D01*
X383390Y270351D01*
X383359Y270432D01*
X383325Y270477D01*
X383299Y270527D01*
X383239Y270589D01*
X383187Y270658D01*
X383142Y270692D01*
X383103Y270733D01*
X383029Y270777D01*
X382960Y270828D01*
X382906Y270848D01*
X382858Y270877D01*
X382774Y270898D01*
X382694Y270929D01*
X382637Y270933D01*
X382582Y270947D01*
X382496Y270944D01*
X382410Y270951D01*
X382362Y270940D01*
X382298Y270938D01*
X382265Y270927D01*
X379792Y270927D01*
X377560Y271852D01*
X375852Y273560D01*
X374927Y275792D01*
X374927Y278208D01*
X375188Y278838D01*
X375210Y278921D01*
X375240Y279001D01*
X375245Y279058D01*
X375259Y279113D01*
X375257Y279199D01*
X375264Y279285D01*
X375253Y279340D01*
X375251Y279397D01*
X375225Y279479D01*
X375208Y279563D01*
X375182Y279614D01*
X375164Y279668D01*
X375116Y279739D01*
X375077Y279816D01*
X375038Y279857D01*
X375006Y279904D01*
X374940Y279959D01*
X374881Y280022D01*
X374832Y280051D01*
X374788Y280087D01*
X374710Y280122D01*
X374636Y280166D01*
X374581Y280180D01*
X374529Y280203D01*
X374444Y280214D01*
X374360Y280236D01*
X374303Y280234D01*
X374247Y280242D01*
X374162Y280229D01*
X374076Y280227D01*
X374022Y280209D01*
X373966Y280201D01*
X373887Y280165D01*
X373806Y280139D01*
X373765Y280110D01*
X373707Y280084D01*
X373596Y279990D01*
X373532Y279944D01*
X373440Y279852D01*
X371208Y278927D01*
X368792Y278927D01*
X366560Y279852D01*
X364852Y281560D01*
X363927Y283792D01*
X363927Y284428D01*
X363919Y284486D01*
X363921Y284544D01*
X363899Y284626D01*
X363887Y284710D01*
X363864Y284763D01*
X363849Y284819D01*
X363806Y284892D01*
X363771Y284969D01*
X363733Y285014D01*
X363704Y285064D01*
X363642Y285122D01*
X363588Y285186D01*
X363539Y285218D01*
X363496Y285258D01*
X363421Y285297D01*
X363351Y285344D01*
X363295Y285361D01*
X363243Y285388D01*
X363175Y285399D01*
X363080Y285429D01*
X362980Y285432D01*
X362912Y285443D01*
X359777Y285443D01*
X359748Y285439D01*
X359719Y285442D01*
X359608Y285419D01*
X359496Y285403D01*
X359469Y285391D01*
X359440Y285386D01*
X359339Y285333D01*
X359236Y285287D01*
X359214Y285268D01*
X359188Y285255D01*
X359106Y285177D01*
X359019Y285104D01*
X359003Y285079D01*
X358982Y285059D01*
X358925Y284961D01*
X358862Y284867D01*
X358853Y284839D01*
X358838Y284814D01*
X358810Y284704D01*
X358776Y284596D01*
X358775Y284566D01*
X358768Y284538D01*
X358772Y284425D01*
X358769Y284312D01*
X358776Y284283D01*
X358777Y284254D01*
X358812Y284146D01*
X358840Y284037D01*
X358855Y284011D01*
X358864Y283983D01*
X358910Y283920D01*
X358986Y283792D01*
X359031Y283749D01*
X359059Y283710D01*
X361014Y281756D01*
X362561Y278021D01*
X362561Y273979D01*
X361014Y270244D01*
X358156Y267386D01*
X354421Y265839D01*
X350379Y265839D01*
X346644Y267386D01*
X343786Y270244D01*
X342239Y273979D01*
X342239Y278021D01*
X343786Y281756D01*
X345741Y283710D01*
X345758Y283734D01*
X345781Y283753D01*
X345843Y283847D01*
X345912Y283937D01*
X345922Y283965D01*
X345938Y283989D01*
X345973Y284097D01*
X346013Y284203D01*
X346015Y284232D01*
X346024Y284260D01*
X346027Y284374D01*
X346036Y284486D01*
X346031Y284515D01*
X346031Y284544D01*
X346003Y284654D01*
X345980Y284765D01*
X345967Y284791D01*
X345960Y284819D01*
X345902Y284917D01*
X345849Y285017D01*
X345829Y285039D01*
X345814Y285064D01*
X345732Y285141D01*
X345654Y285223D01*
X345628Y285238D01*
X345607Y285258D01*
X345506Y285310D01*
X345408Y285367D01*
X345380Y285374D01*
X345354Y285388D01*
X345277Y285401D01*
X345133Y285437D01*
X345070Y285435D01*
X345023Y285443D01*
X334377Y285443D01*
X334348Y285439D01*
X334319Y285442D01*
X334208Y285419D01*
X334096Y285403D01*
X334069Y285391D01*
X334040Y285386D01*
X333939Y285333D01*
X333836Y285287D01*
X333814Y285268D01*
X333788Y285255D01*
X333706Y285177D01*
X333619Y285104D01*
X333603Y285079D01*
X333582Y285059D01*
X333525Y284961D01*
X333462Y284867D01*
X333453Y284839D01*
X333438Y284814D01*
X333410Y284704D01*
X333376Y284596D01*
X333375Y284566D01*
X333368Y284538D01*
X333372Y284425D01*
X333369Y284312D01*
X333376Y284283D01*
X333377Y284254D01*
X333412Y284146D01*
X333440Y284037D01*
X333455Y284011D01*
X333464Y283983D01*
X333510Y283920D01*
X333586Y283792D01*
X333631Y283749D01*
X333659Y283710D01*
X335614Y281756D01*
X337161Y278021D01*
X337161Y273979D01*
X335614Y270244D01*
X332756Y267386D01*
X332199Y267156D01*
X332198Y267155D01*
X332197Y267155D01*
X332113Y267105D01*
X332094Y267096D01*
X332083Y267087D01*
X332079Y267085D01*
X331955Y267011D01*
X331953Y267010D01*
X331952Y267009D01*
X331854Y266904D01*
X331759Y266805D01*
X331759Y266803D01*
X331758Y266802D01*
X331693Y266676D01*
X331629Y266552D01*
X331629Y266550D01*
X331628Y266549D01*
X331626Y266534D01*
X331574Y266273D01*
X331577Y266242D01*
X331573Y266218D01*
X331573Y252054D01*
X331577Y252025D01*
X331574Y251995D01*
X331597Y251884D01*
X331613Y251772D01*
X331625Y251746D01*
X331630Y251717D01*
X331682Y251616D01*
X331729Y251513D01*
X331748Y251490D01*
X331761Y251464D01*
X331839Y251382D01*
X331912Y251296D01*
X331937Y251280D01*
X331957Y251258D01*
X332055Y251201D01*
X332149Y251138D01*
X332177Y251129D01*
X332202Y251115D01*
X332312Y251087D01*
X332420Y251052D01*
X332450Y251052D01*
X332478Y251044D01*
X332591Y251048D01*
G37*
%LPC*%
G36*
X149406Y7959D02*
X149406Y7959D01*
X144613Y9945D01*
X140945Y13613D01*
X138959Y18406D01*
X138959Y23594D01*
X140945Y28387D01*
X144613Y32055D01*
X149406Y34041D01*
X154594Y34041D01*
X159387Y32055D01*
X163055Y28387D01*
X165041Y23594D01*
X165041Y18406D01*
X163055Y13613D01*
X159387Y9945D01*
X154594Y7959D01*
X149406Y7959D01*
G37*
%LPD*%
%LPC*%
G36*
X53406Y7959D02*
X53406Y7959D01*
X48613Y9945D01*
X44945Y13613D01*
X42959Y18406D01*
X42959Y23594D01*
X44945Y28387D01*
X48613Y32055D01*
X53406Y34041D01*
X58594Y34041D01*
X63387Y32055D01*
X67055Y28387D01*
X69041Y23594D01*
X69041Y18406D01*
X67055Y13613D01*
X63387Y9945D01*
X58594Y7959D01*
X53406Y7959D01*
G37*
%LPD*%
%LPC*%
G36*
X482506Y468459D02*
X482506Y468459D01*
X477896Y470369D01*
X474369Y473896D01*
X472459Y478506D01*
X472459Y483494D01*
X474369Y488104D01*
X477896Y491631D01*
X482506Y493541D01*
X487494Y493541D01*
X492104Y491631D01*
X495631Y488104D01*
X497541Y483494D01*
X497541Y478506D01*
X495631Y473896D01*
X492104Y470369D01*
X487494Y468459D01*
X482506Y468459D01*
G37*
%LPD*%
%LPC*%
G36*
X22506Y468459D02*
X22506Y468459D01*
X17896Y470369D01*
X14369Y473896D01*
X12459Y478506D01*
X12459Y483494D01*
X14369Y488104D01*
X17896Y491631D01*
X22506Y493541D01*
X27494Y493541D01*
X32104Y491631D01*
X35631Y488104D01*
X37541Y483494D01*
X37541Y478506D01*
X35631Y473896D01*
X32104Y470369D01*
X27494Y468459D01*
X22506Y468459D01*
G37*
%LPD*%
%LPC*%
G36*
X482506Y8459D02*
X482506Y8459D01*
X477896Y10369D01*
X474369Y13896D01*
X472459Y18506D01*
X472459Y23494D01*
X474369Y28104D01*
X477896Y31631D01*
X482506Y33541D01*
X487494Y33541D01*
X492104Y31631D01*
X495631Y28104D01*
X497541Y23494D01*
X497541Y18506D01*
X495631Y13896D01*
X492104Y10369D01*
X487494Y8459D01*
X482506Y8459D01*
G37*
%LPD*%
%LPC*%
G36*
X22506Y8459D02*
X22506Y8459D01*
X17896Y10369D01*
X14369Y13896D01*
X12459Y18506D01*
X12459Y23494D01*
X14369Y28104D01*
X17896Y31631D01*
X22506Y33541D01*
X27494Y33541D01*
X32104Y31631D01*
X35631Y28104D01*
X37541Y23494D01*
X37541Y18506D01*
X35631Y13896D01*
X32104Y10369D01*
X27494Y8459D01*
X22506Y8459D01*
G37*
%LPD*%
%LPC*%
G36*
X439979Y447839D02*
X439979Y447839D01*
X436244Y449386D01*
X433386Y452244D01*
X431839Y455979D01*
X431839Y460021D01*
X433386Y463756D01*
X436244Y466614D01*
X439979Y468161D01*
X444021Y468161D01*
X447756Y466614D01*
X450614Y463756D01*
X452161Y460021D01*
X452161Y455979D01*
X450614Y452244D01*
X447756Y449386D01*
X444021Y447839D01*
X439979Y447839D01*
G37*
%LPD*%
%LPC*%
G36*
X332379Y446839D02*
X332379Y446839D01*
X328644Y448386D01*
X325786Y451244D01*
X324239Y454979D01*
X324239Y459021D01*
X325786Y462756D01*
X328644Y465614D01*
X332379Y467161D01*
X336421Y467161D01*
X340156Y465614D01*
X343014Y462756D01*
X344561Y459021D01*
X344561Y454979D01*
X343014Y451244D01*
X340156Y448386D01*
X336421Y446839D01*
X332379Y446839D01*
G37*
%LPD*%
%LPC*%
G36*
X119379Y49839D02*
X119379Y49839D01*
X115644Y51386D01*
X112786Y54244D01*
X111239Y57979D01*
X111239Y62021D01*
X112786Y65756D01*
X115644Y68614D01*
X119379Y70161D01*
X123421Y70161D01*
X127156Y68614D01*
X130014Y65756D01*
X131561Y62021D01*
X131561Y57979D01*
X130014Y54244D01*
X127156Y51386D01*
X123421Y49839D01*
X119379Y49839D01*
G37*
%LPD*%
%LPC*%
G36*
X65979Y414839D02*
X65979Y414839D01*
X62244Y416386D01*
X59386Y419244D01*
X57839Y422979D01*
X57839Y427021D01*
X59386Y430756D01*
X62244Y433614D01*
X65979Y435161D01*
X70021Y435161D01*
X73756Y433614D01*
X76614Y430756D01*
X78161Y427021D01*
X78161Y422979D01*
X76614Y419244D01*
X73756Y416386D01*
X70021Y414839D01*
X65979Y414839D01*
G37*
%LPD*%
%LPC*%
G36*
X306979Y446839D02*
X306979Y446839D01*
X303244Y448386D01*
X300386Y451244D01*
X298839Y454979D01*
X298839Y459021D01*
X300386Y462756D01*
X303244Y465614D01*
X306979Y467161D01*
X311021Y467161D01*
X314756Y465614D01*
X317614Y462756D01*
X319161Y459021D01*
X319161Y454979D01*
X317614Y451244D01*
X314756Y448386D01*
X311021Y446839D01*
X306979Y446839D01*
G37*
%LPD*%
%LPC*%
G36*
X317379Y34839D02*
X317379Y34839D01*
X313644Y36386D01*
X310786Y39244D01*
X309239Y42979D01*
X309239Y47021D01*
X310786Y50756D01*
X313644Y53614D01*
X317379Y55161D01*
X321421Y55161D01*
X325156Y53614D01*
X328014Y50756D01*
X329561Y47021D01*
X329561Y42979D01*
X328014Y39244D01*
X325156Y36386D01*
X321421Y34839D01*
X317379Y34839D01*
G37*
%LPD*%
%LPC*%
G36*
X36079Y50839D02*
X36079Y50839D01*
X32344Y52386D01*
X29486Y55244D01*
X27939Y58979D01*
X27939Y63021D01*
X29486Y66756D01*
X32344Y69614D01*
X36079Y71161D01*
X40121Y71161D01*
X43856Y69614D01*
X46714Y66756D01*
X48261Y63021D01*
X48261Y58979D01*
X46714Y55244D01*
X43856Y52386D01*
X40121Y50839D01*
X36079Y50839D01*
G37*
%LPD*%
%LPC*%
G36*
X61479Y50839D02*
X61479Y50839D01*
X57744Y52386D01*
X54886Y55244D01*
X53339Y58979D01*
X53339Y63021D01*
X54886Y66756D01*
X57744Y69614D01*
X61479Y71161D01*
X65521Y71161D01*
X69256Y69614D01*
X72114Y66756D01*
X73661Y63021D01*
X73661Y58979D01*
X72114Y55244D01*
X69256Y52386D01*
X65521Y50839D01*
X61479Y50839D01*
G37*
%LPD*%
%LPC*%
G36*
X39995Y131919D02*
X39995Y131919D01*
X36290Y133454D01*
X33454Y136290D01*
X31919Y139995D01*
X31919Y144005D01*
X33454Y147710D01*
X36290Y150546D01*
X39995Y152081D01*
X44005Y152081D01*
X47710Y150546D01*
X50546Y147710D01*
X52081Y144005D01*
X52081Y139995D01*
X50546Y136290D01*
X47710Y133454D01*
X44005Y131919D01*
X39995Y131919D01*
G37*
%LPD*%
%LPC*%
G36*
X39995Y96919D02*
X39995Y96919D01*
X36290Y98454D01*
X33454Y101290D01*
X31919Y104995D01*
X31919Y109005D01*
X33454Y112710D01*
X36290Y115546D01*
X39995Y117081D01*
X44005Y117081D01*
X47710Y115546D01*
X50546Y112710D01*
X52081Y109005D01*
X52081Y104995D01*
X50546Y101290D01*
X47710Y98454D01*
X44005Y96919D01*
X39995Y96919D01*
G37*
%LPD*%
%LPC*%
G36*
X446792Y352927D02*
X446792Y352927D01*
X444560Y353852D01*
X442852Y355560D01*
X441927Y357792D01*
X441927Y360208D01*
X442852Y362440D01*
X444517Y364105D01*
X444552Y364152D01*
X444595Y364192D01*
X444637Y364265D01*
X444688Y364332D01*
X444709Y364387D01*
X444739Y364438D01*
X444759Y364519D01*
X444789Y364598D01*
X444794Y364656D01*
X444809Y364713D01*
X444806Y364797D01*
X444813Y364881D01*
X444801Y364939D01*
X444800Y364997D01*
X444774Y365078D01*
X444757Y365160D01*
X444730Y365212D01*
X444712Y365268D01*
X444672Y365324D01*
X444626Y365413D01*
X444557Y365485D01*
X444517Y365541D01*
X443640Y366418D01*
X442677Y368742D01*
X442677Y371258D01*
X443640Y373582D01*
X445418Y375360D01*
X447742Y376323D01*
X450258Y376323D01*
X452582Y375360D01*
X454360Y373582D01*
X455323Y371258D01*
X455323Y368742D01*
X454360Y366418D01*
X452483Y364541D01*
X452448Y364494D01*
X452405Y364454D01*
X452363Y364381D01*
X452312Y364314D01*
X452291Y364259D01*
X452261Y364209D01*
X452241Y364127D01*
X452211Y364048D01*
X452206Y363990D01*
X452191Y363933D01*
X452194Y363849D01*
X452187Y363765D01*
X452199Y363708D01*
X452200Y363649D01*
X452226Y363569D01*
X452243Y363486D01*
X452270Y363434D01*
X452288Y363379D01*
X452328Y363322D01*
X452374Y363234D01*
X452443Y363162D01*
X452483Y363105D01*
X453148Y362440D01*
X454073Y360208D01*
X454073Y357792D01*
X453148Y355560D01*
X451440Y353852D01*
X449208Y352927D01*
X446792Y352927D01*
G37*
%LPD*%
%LPC*%
G36*
X284792Y258927D02*
X284792Y258927D01*
X282560Y259852D01*
X280852Y261560D01*
X279927Y263792D01*
X279927Y266208D01*
X280852Y268440D01*
X282560Y270148D01*
X284792Y271073D01*
X287208Y271073D01*
X289586Y270088D01*
X289614Y270080D01*
X289640Y270067D01*
X289751Y270045D01*
X289861Y270017D01*
X289890Y270018D01*
X289919Y270012D01*
X290032Y270022D01*
X290145Y270025D01*
X290173Y270034D01*
X290202Y270036D01*
X290308Y270077D01*
X290416Y270112D01*
X290440Y270128D01*
X290468Y270139D01*
X290558Y270207D01*
X290652Y270270D01*
X290671Y270292D01*
X290694Y270310D01*
X290762Y270401D01*
X290835Y270488D01*
X290847Y270514D01*
X290865Y270538D01*
X290905Y270644D01*
X290951Y270747D01*
X290955Y270776D01*
X290965Y270804D01*
X290974Y270917D01*
X290989Y271029D01*
X290985Y271058D01*
X290988Y271087D01*
X290970Y271164D01*
X290949Y271310D01*
X290923Y271367D01*
X290912Y271414D01*
X289927Y273792D01*
X289927Y276208D01*
X290852Y278440D01*
X292560Y280148D01*
X294792Y281073D01*
X297208Y281073D01*
X299440Y280148D01*
X301148Y278440D01*
X302073Y276208D01*
X302073Y273792D01*
X301148Y271560D01*
X299440Y269852D01*
X297208Y268927D01*
X294792Y268927D01*
X292414Y269912D01*
X292386Y269920D01*
X292360Y269933D01*
X292249Y269955D01*
X292139Y269983D01*
X292110Y269982D01*
X292081Y269988D01*
X291968Y269978D01*
X291855Y269975D01*
X291827Y269966D01*
X291798Y269964D01*
X291692Y269923D01*
X291584Y269888D01*
X291560Y269872D01*
X291532Y269861D01*
X291442Y269793D01*
X291348Y269730D01*
X291329Y269708D01*
X291306Y269690D01*
X291238Y269599D01*
X291165Y269512D01*
X291153Y269486D01*
X291135Y269462D01*
X291095Y269356D01*
X291049Y269253D01*
X291045Y269224D01*
X291035Y269196D01*
X291026Y269083D01*
X291011Y268971D01*
X291015Y268942D01*
X291012Y268913D01*
X291030Y268836D01*
X291051Y268690D01*
X291077Y268633D01*
X291088Y268586D01*
X292073Y266208D01*
X292073Y263792D01*
X291148Y261560D01*
X289440Y259852D01*
X287208Y258927D01*
X284792Y258927D01*
G37*
%LPD*%
%LPC*%
G36*
X122293Y12419D02*
X122293Y12419D01*
X119139Y13726D01*
X116726Y16139D01*
X115419Y19293D01*
X115419Y22707D01*
X116726Y25861D01*
X119139Y28274D01*
X122293Y29581D01*
X125707Y29581D01*
X128861Y28274D01*
X131274Y25861D01*
X132581Y22707D01*
X132581Y19293D01*
X131274Y16139D01*
X128861Y13726D01*
X125707Y12419D01*
X122293Y12419D01*
G37*
%LPD*%
%LPC*%
G36*
X325742Y347677D02*
X325742Y347677D01*
X323418Y348640D01*
X321640Y350418D01*
X320677Y352742D01*
X320677Y355258D01*
X321640Y357582D01*
X323418Y359360D01*
X325742Y360323D01*
X328258Y360323D01*
X330582Y359360D01*
X332360Y357582D01*
X333323Y355258D01*
X333323Y352742D01*
X332360Y350418D01*
X330582Y348640D01*
X328258Y347677D01*
X325742Y347677D01*
G37*
%LPD*%
%LPC*%
G36*
X422742Y345677D02*
X422742Y345677D01*
X420418Y346640D01*
X418640Y348418D01*
X417677Y350742D01*
X417677Y353258D01*
X418640Y355582D01*
X420418Y357360D01*
X422742Y358323D01*
X425258Y358323D01*
X427582Y357360D01*
X429360Y355582D01*
X430323Y353258D01*
X430323Y350742D01*
X429360Y348418D01*
X427582Y346640D01*
X425258Y345677D01*
X422742Y345677D01*
G37*
%LPD*%
%LPC*%
G36*
X483742Y330677D02*
X483742Y330677D01*
X481418Y331640D01*
X479640Y333418D01*
X478677Y335742D01*
X478677Y338258D01*
X479640Y340582D01*
X481418Y342360D01*
X483742Y343323D01*
X486258Y343323D01*
X488582Y342360D01*
X490360Y340582D01*
X491323Y338258D01*
X491323Y335742D01*
X490360Y333418D01*
X488582Y331640D01*
X486258Y330677D01*
X483742Y330677D01*
G37*
%LPD*%
%LPC*%
G36*
X322742Y326677D02*
X322742Y326677D01*
X320418Y327640D01*
X318640Y329418D01*
X317677Y331742D01*
X317677Y334258D01*
X318640Y336582D01*
X320418Y338360D01*
X322742Y339323D01*
X325258Y339323D01*
X327582Y338360D01*
X329360Y336582D01*
X330323Y334258D01*
X330323Y331742D01*
X329360Y329418D01*
X327582Y327640D01*
X325258Y326677D01*
X322742Y326677D01*
G37*
%LPD*%
%LPC*%
G36*
X110792Y402927D02*
X110792Y402927D01*
X108560Y403852D01*
X106852Y405560D01*
X105927Y407792D01*
X105927Y410208D01*
X106852Y412440D01*
X108560Y414148D01*
X110792Y415073D01*
X113208Y415073D01*
X115440Y414148D01*
X117148Y412440D01*
X118073Y410208D01*
X118073Y407792D01*
X117148Y405560D01*
X115440Y403852D01*
X113208Y402927D01*
X110792Y402927D01*
G37*
%LPD*%
%LPC*%
G36*
X221792Y361927D02*
X221792Y361927D01*
X219560Y362852D01*
X217852Y364560D01*
X216927Y366792D01*
X216927Y369208D01*
X217852Y371440D01*
X219560Y373148D01*
X221792Y374073D01*
X224208Y374073D01*
X226440Y373148D01*
X228148Y371440D01*
X229073Y369208D01*
X229073Y366792D01*
X228148Y364560D01*
X226440Y362852D01*
X224208Y361927D01*
X221792Y361927D01*
G37*
%LPD*%
%LPC*%
G36*
X333792Y428927D02*
X333792Y428927D01*
X331560Y429852D01*
X329852Y431560D01*
X328927Y433792D01*
X328927Y436208D01*
X329852Y438440D01*
X331560Y440148D01*
X333792Y441073D01*
X336208Y441073D01*
X338440Y440148D01*
X340148Y438440D01*
X341073Y436208D01*
X341073Y433792D01*
X340148Y431560D01*
X338440Y429852D01*
X336208Y428927D01*
X333792Y428927D01*
G37*
%LPD*%
%LPC*%
G36*
X283792Y216927D02*
X283792Y216927D01*
X281560Y217852D01*
X279852Y219560D01*
X278927Y221792D01*
X278927Y224208D01*
X279852Y226440D01*
X281560Y228148D01*
X283792Y229073D01*
X286208Y229073D01*
X288440Y228148D01*
X290148Y226440D01*
X291073Y224208D01*
X291073Y221792D01*
X290148Y219560D01*
X288440Y217852D01*
X286208Y216927D01*
X283792Y216927D01*
G37*
%LPD*%
%LPC*%
G36*
X160792Y319927D02*
X160792Y319927D01*
X158560Y320852D01*
X156852Y322560D01*
X155927Y324792D01*
X155927Y327208D01*
X156852Y329440D01*
X158560Y331148D01*
X160792Y332073D01*
X163208Y332073D01*
X165440Y331148D01*
X167148Y329440D01*
X168073Y327208D01*
X168073Y324792D01*
X167148Y322560D01*
X165440Y320852D01*
X163208Y319927D01*
X160792Y319927D01*
G37*
%LPD*%
%LPC*%
G36*
X293792Y188927D02*
X293792Y188927D01*
X291560Y189852D01*
X289852Y191560D01*
X288927Y193792D01*
X288927Y196208D01*
X289852Y198440D01*
X291560Y200148D01*
X293792Y201073D01*
X296208Y201073D01*
X298440Y200148D01*
X300148Y198440D01*
X301073Y196208D01*
X301073Y193792D01*
X300148Y191560D01*
X298440Y189852D01*
X296208Y188927D01*
X293792Y188927D01*
G37*
%LPD*%
%LPC*%
G36*
X220792Y326927D02*
X220792Y326927D01*
X218560Y327852D01*
X216852Y329560D01*
X215927Y331792D01*
X215927Y334208D01*
X216852Y336440D01*
X218560Y338148D01*
X220792Y339073D01*
X223208Y339073D01*
X225440Y338148D01*
X227148Y336440D01*
X228073Y334208D01*
X228073Y331792D01*
X227148Y329560D01*
X225440Y327852D01*
X223208Y326927D01*
X220792Y326927D01*
G37*
%LPD*%
%LPC*%
G36*
X97792Y251927D02*
X97792Y251927D01*
X95560Y252852D01*
X93852Y254560D01*
X92927Y256792D01*
X92927Y259208D01*
X93852Y261440D01*
X95560Y263148D01*
X97792Y264073D01*
X100208Y264073D01*
X102440Y263148D01*
X104148Y261440D01*
X105073Y259208D01*
X105073Y256792D01*
X104148Y254560D01*
X102440Y252852D01*
X100208Y251927D01*
X97792Y251927D01*
G37*
%LPD*%
%LPC*%
G36*
X160792Y336927D02*
X160792Y336927D01*
X158560Y337852D01*
X156852Y339560D01*
X155927Y341792D01*
X155927Y344208D01*
X156852Y346440D01*
X158560Y348148D01*
X160792Y349073D01*
X163208Y349073D01*
X165440Y348148D01*
X167148Y346440D01*
X168073Y344208D01*
X168073Y341792D01*
X167148Y339560D01*
X165440Y337852D01*
X163208Y336927D01*
X160792Y336927D01*
G37*
%LPD*%
%LPC*%
G36*
X339792Y339927D02*
X339792Y339927D01*
X337560Y340852D01*
X335852Y342560D01*
X334927Y344792D01*
X334927Y347208D01*
X335852Y349440D01*
X337560Y351148D01*
X339792Y352073D01*
X342208Y352073D01*
X344440Y351148D01*
X346148Y349440D01*
X347073Y347208D01*
X347073Y344792D01*
X346148Y342560D01*
X344440Y340852D01*
X342208Y339927D01*
X339792Y339927D01*
G37*
%LPD*%
%LPC*%
G36*
X22031Y218031D02*
X22031Y218031D01*
X22031Y227363D01*
X22702Y227257D01*
X24430Y226695D01*
X26049Y225870D01*
X27518Y224803D01*
X28803Y223518D01*
X29870Y222049D01*
X30695Y220430D01*
X31257Y218702D01*
X31363Y218031D01*
X22031Y218031D01*
G37*
%LPD*%
%LPC*%
G36*
X22031Y288031D02*
X22031Y288031D01*
X22031Y297363D01*
X22702Y297257D01*
X24430Y296695D01*
X26049Y295870D01*
X27518Y294803D01*
X28803Y293518D01*
X29870Y292049D01*
X30695Y290430D01*
X31257Y288702D01*
X31363Y288031D01*
X22031Y288031D01*
G37*
%LPD*%
%LPC*%
G36*
X22031Y213969D02*
X22031Y213969D01*
X31363Y213969D01*
X31257Y213298D01*
X30695Y211570D01*
X29870Y209951D01*
X28803Y208482D01*
X27518Y207197D01*
X26049Y206130D01*
X24430Y205305D01*
X22702Y204743D01*
X22031Y204637D01*
X22031Y213969D01*
G37*
%LPD*%
%LPC*%
G36*
X22031Y283969D02*
X22031Y283969D01*
X31363Y283969D01*
X31257Y283298D01*
X30695Y281570D01*
X29870Y279951D01*
X28803Y278482D01*
X27518Y277197D01*
X26049Y276130D01*
X24430Y275305D01*
X22702Y274743D01*
X22031Y274637D01*
X22031Y283969D01*
G37*
%LPD*%
%LPC*%
G36*
X462031Y18031D02*
X462031Y18031D01*
X462031Y25966D01*
X462379Y25911D01*
X463900Y25416D01*
X465325Y24690D01*
X466619Y23750D01*
X467750Y22619D01*
X468690Y21325D01*
X469416Y19900D01*
X469911Y18379D01*
X469966Y18031D01*
X462031Y18031D01*
G37*
%LPD*%
%LPC*%
G36*
X178034Y176031D02*
X178034Y176031D01*
X178089Y176379D01*
X178584Y177900D01*
X179310Y179325D01*
X180250Y180619D01*
X181381Y181750D01*
X182675Y182690D01*
X184100Y183416D01*
X185621Y183911D01*
X185969Y183966D01*
X185969Y176031D01*
X178034Y176031D01*
G37*
%LPD*%
%LPC*%
G36*
X450034Y18031D02*
X450034Y18031D01*
X450089Y18379D01*
X450584Y19900D01*
X451310Y21325D01*
X452250Y22619D01*
X453381Y23750D01*
X454675Y24690D01*
X456100Y25416D01*
X457621Y25911D01*
X457969Y25966D01*
X457969Y18031D01*
X450034Y18031D01*
G37*
%LPD*%
%LPC*%
G36*
X185621Y164089D02*
X185621Y164089D01*
X184100Y164584D01*
X182675Y165310D01*
X181381Y166250D01*
X180250Y167381D01*
X179310Y168675D01*
X178584Y170100D01*
X178089Y171621D01*
X178034Y171969D01*
X185969Y171969D01*
X185969Y164034D01*
X185621Y164089D01*
G37*
%LPD*%
%LPC*%
G36*
X49031Y228031D02*
X49031Y228031D01*
X49031Y235378D01*
X49243Y235345D01*
X50678Y234879D01*
X52021Y234194D01*
X53242Y233308D01*
X54308Y232242D01*
X55194Y231021D01*
X55879Y229678D01*
X56345Y228243D01*
X56378Y228031D01*
X49031Y228031D01*
G37*
%LPD*%
%LPC*%
G36*
X37622Y278031D02*
X37622Y278031D01*
X37655Y278243D01*
X38121Y279678D01*
X38806Y281021D01*
X39692Y282242D01*
X40758Y283308D01*
X41979Y284194D01*
X43322Y284879D01*
X44757Y285345D01*
X44969Y285378D01*
X44969Y278031D01*
X37622Y278031D01*
G37*
%LPD*%
%LPC*%
G36*
X37622Y228031D02*
X37622Y228031D01*
X37655Y228243D01*
X38121Y229678D01*
X38806Y231021D01*
X39692Y232242D01*
X40758Y233308D01*
X41979Y234194D01*
X43322Y234879D01*
X44757Y235345D01*
X44969Y235378D01*
X44969Y228031D01*
X37622Y228031D01*
G37*
%LPD*%
%LPC*%
G36*
X49031Y223969D02*
X49031Y223969D01*
X56378Y223969D01*
X56345Y223757D01*
X55879Y222322D01*
X55194Y220979D01*
X54308Y219758D01*
X53242Y218692D01*
X52021Y217806D01*
X50678Y217121D01*
X49243Y216655D01*
X49031Y216622D01*
X49031Y223969D01*
G37*
%LPD*%
%LPC*%
G36*
X44757Y266655D02*
X44757Y266655D01*
X43322Y267121D01*
X41979Y267806D01*
X40758Y268692D01*
X39692Y269758D01*
X38806Y270979D01*
X38121Y272322D01*
X37655Y273757D01*
X37622Y273969D01*
X44969Y273969D01*
X44969Y266622D01*
X44757Y266655D01*
G37*
%LPD*%
%LPC*%
G36*
X44757Y216655D02*
X44757Y216655D01*
X43322Y217121D01*
X41979Y217806D01*
X40758Y218692D01*
X39692Y219758D01*
X38806Y220979D01*
X38121Y222322D01*
X37655Y223757D01*
X37622Y223969D01*
X44969Y223969D01*
X44969Y216622D01*
X44757Y216655D01*
G37*
%LPD*%
%LPC*%
G36*
X46999Y225999D02*
X46999Y225999D01*
X46999Y226001D01*
X47001Y226001D01*
X47001Y225999D01*
X46999Y225999D01*
G37*
%LPD*%
D10*
X42000Y142000D03*
X42000Y107000D03*
D11*
X309000Y457000D03*
X334400Y457000D03*
X442000Y458000D03*
X416600Y458000D03*
X363000Y457000D03*
X388400Y457000D03*
X68000Y425000D03*
X68000Y450400D03*
X98000Y450000D03*
X98000Y424600D03*
X327000Y276000D03*
X352400Y276000D03*
X194000Y46000D03*
X219400Y46000D03*
X294000Y45000D03*
X319400Y45000D03*
X128000Y424000D03*
X128000Y449400D03*
X96000Y60000D03*
X121400Y60000D03*
X218000Y174000D03*
X218000Y148600D03*
X63500Y61000D03*
X38100Y61000D03*
D12*
X104000Y21000D03*
D13*
X56000Y21000D03*
X152000Y21000D03*
D12*
X124000Y21000D03*
X85000Y21000D03*
D11*
X188000Y174000D03*
X188000Y148600D03*
D14*
X47000Y226000D03*
X47000Y276000D03*
D15*
X20000Y216000D03*
X20000Y286000D03*
D11*
X460000Y16000D03*
X434600Y16000D03*
X409200Y16000D03*
X383800Y16000D03*
X358400Y16000D03*
X333000Y16000D03*
X307600Y16000D03*
X282200Y16000D03*
X256800Y16000D03*
X231400Y16000D03*
X206000Y16000D03*
X180600Y16000D03*
X449000Y486000D03*
X423600Y486000D03*
X398200Y486000D03*
X372800Y486000D03*
X347400Y486000D03*
X322000Y486000D03*
X296600Y486000D03*
X271200Y486000D03*
X245800Y486000D03*
X220400Y486000D03*
X195000Y486000D03*
X169600Y486000D03*
X144200Y486000D03*
X118800Y486000D03*
X93400Y486000D03*
X68000Y486000D03*
D16*
X45000Y461000D03*
X52500Y406000D03*
X22500Y353500D03*
X40000Y296000D03*
X172500Y336000D03*
X147500Y296000D03*
X132500Y296000D03*
X132500Y281000D03*
X147500Y281000D03*
X160000Y316000D03*
X87500Y321000D03*
X160000Y466000D03*
X105000Y468500D03*
X82500Y408500D03*
X152500Y413500D03*
X190000Y421000D03*
X145000Y428500D03*
X185000Y396000D03*
X287500Y463500D03*
X207500Y466000D03*
X360000Y428500D03*
X382500Y431000D03*
X465000Y463500D03*
X287500Y343500D03*
X247500Y366000D03*
X307500Y351000D03*
X177500Y386000D03*
X297500Y263500D03*
X370000Y263500D03*
X432500Y286000D03*
X415000Y315500D03*
X447500Y281000D03*
X470000Y261000D03*
X480000Y261000D03*
X490000Y261000D03*
X500000Y261000D03*
X430000Y58500D03*
X315000Y158500D03*
X315000Y151000D03*
X335000Y171000D03*
X375000Y131000D03*
X347500Y183500D03*
X325000Y148500D03*
X280000Y161000D03*
X285000Y183500D03*
X280000Y133500D03*
X235000Y128500D03*
X202500Y128500D03*
X255000Y86000D03*
X172500Y46000D03*
X187500Y78500D03*
X212500Y66000D03*
X122500Y41000D03*
X92500Y38500D03*
X42500Y41000D03*
X18500Y77500D03*
X15000Y103500D03*
X15000Y123500D03*
X15000Y143500D03*
X30000Y171000D03*
X102500Y196000D03*
X130000Y196000D03*
X95000Y183500D03*
X142500Y128500D03*
X325000Y208500D03*
X140000Y241000D03*
X162500Y243500D03*
X210000Y343500D03*
X150000Y89500D03*
X237500Y253500D03*
X380500Y374000D03*
X443500Y405000D03*
X448500Y430000D03*
X485500Y416000D03*
X444500Y382000D03*
X480500Y300000D03*
X452500Y315000D03*
X328000Y305500D03*
X317000Y324500D03*
X287000Y353500D03*
X334000Y395500D03*
X426500Y383000D03*
X403500Y424000D03*
X428500Y425000D03*
X312000Y307000D03*
X417000Y59000D03*
X295000Y195000D03*
X160000Y200000D03*
X99000Y258000D03*
X221000Y224000D03*
X366000Y205000D03*
D17*
X405000Y166000D01*
X405000Y59000D01*
D16*
X405000Y59000D03*
X187000Y289000D03*
D17*
X366000Y289000D01*
X370000Y285000D01*
D16*
X370000Y285000D03*
X187000Y298000D03*
D17*
X372000Y298000D01*
X381000Y289000D02*
X381000Y277000D01*
X381000Y289000D02*
X372000Y298000D01*
D16*
X381000Y277000D03*
X212000Y281000D03*
X162000Y326000D03*
D18*
X81000Y25000D02*
X85000Y21000D01*
X63000Y330000D02*
X50000Y343000D01*
D16*
X50000Y343000D03*
D18*
X81000Y212000D02*
X81000Y25000D01*
X81000Y212000D02*
X63000Y230000D01*
X63000Y330000D01*
D16*
X84000Y232000D03*
X76000Y280000D03*
D18*
X76000Y240000D02*
X84000Y232000D01*
X76000Y240000D02*
X76000Y280000D01*
X76000Y361000D01*
X85000Y370000D01*
D16*
X91000Y376000D03*
D18*
X85000Y370000D01*
D17*
X59000Y370000D01*
X26000Y403000D01*
D16*
X26000Y403000D03*
X162000Y343000D03*
X112000Y409000D03*
X129000Y224000D03*
D17*
X152000Y224000D01*
X213000Y203000D02*
X255000Y245000D01*
D16*
X255000Y245000D03*
D17*
X173000Y203000D02*
X152000Y224000D01*
X173000Y203000D02*
X213000Y203000D01*
D16*
X121000Y251000D03*
X140000Y251000D03*
X167000Y307000D03*
D17*
X180000Y294000D01*
X180000Y210000D01*
D16*
X180000Y210000D03*
X169000Y281000D03*
D17*
X169000Y262000D01*
X151000Y244000D01*
D16*
X151000Y244000D03*
D17*
X219400Y46000D02*
X226800Y46000D01*
X256800Y16000D01*
D16*
X285000Y223000D03*
X328000Y230000D03*
D17*
X328000Y241000D01*
X374000Y255000D02*
X391000Y272000D01*
X391000Y454400D01*
X388400Y457000D01*
X342000Y255000D02*
X328000Y241000D01*
X342000Y255000D02*
X374000Y255000D01*
D16*
X335000Y435000D03*
X298000Y360000D03*
D17*
X298000Y336000D01*
X269000Y307000D01*
D16*
X269000Y307000D03*
X286000Y265000D03*
X384928Y332002D03*
D17*
X336374Y380556D01*
X297473Y380556D01*
X225073Y452956D01*
X157044Y452956D01*
X144200Y465800D02*
X144200Y486000D01*
X144200Y465800D02*
X157044Y452956D01*
X128000Y449400D02*
X223600Y449400D01*
X331000Y377000D02*
X358500Y349500D01*
X331000Y377000D02*
X296000Y377000D01*
X223600Y449400D01*
X128000Y449400D02*
X118800Y458600D01*
X118800Y486000D01*
D19*
X359994Y347995D03*
D20*
X358500Y349489D01*
X358500Y349500D01*
D16*
X304000Y208000D03*
D17*
X98000Y424600D02*
X83000Y439600D01*
X83000Y475600D02*
X93400Y486000D01*
X83000Y475600D02*
X83000Y439600D01*
D16*
X338000Y100000D03*
D17*
X289400Y148600D01*
X218000Y148600D01*
D16*
X341000Y230000D03*
D17*
X341000Y248971D01*
X343473Y251444D01*
X375473Y251444D01*
X394556Y435956D02*
X416600Y458000D01*
X394556Y270527D02*
X375473Y251444D01*
X394556Y270527D02*
X394556Y435956D01*
D16*
X296000Y275000D03*
D17*
X68000Y450400D02*
X68000Y486000D01*
D16*
X316000Y109000D03*
D17*
X235000Y109000D01*
X203000Y141000D02*
X203000Y183000D01*
D16*
X203000Y183000D03*
D17*
X203000Y141000D02*
X235000Y109000D01*
D16*
X223000Y368000D03*
D19*
X328000Y403000D03*
X449000Y370000D03*
D16*
X222000Y333000D03*
D19*
X324000Y333000D03*
X485000Y337000D03*
D16*
X341000Y346000D03*
X448000Y359000D03*
X307000Y387022D03*
D17*
X347022Y387022D01*
X376000Y444000D02*
X363000Y457000D01*
X376000Y444000D02*
X376000Y416000D01*
X347022Y387022D01*
D16*
X192000Y355000D03*
D17*
X158000Y355000D01*
X128000Y385000D01*
D16*
X128000Y385000D03*
D17*
X111000Y437000D02*
X98000Y450000D01*
X284000Y383971D02*
X284000Y369000D01*
D16*
X284000Y369000D03*
D17*
X230971Y437000D02*
X111000Y437000D01*
X230971Y437000D02*
X284000Y383971D01*
D19*
X327000Y354000D03*
X424000Y352000D03*
D16*
X165000Y156000D03*
D17*
X165000Y75000D01*
X194000Y46000D01*
D16*
X159000Y168000D03*
D17*
X167000Y168000D01*
X174000Y161000D02*
X174000Y138000D01*
X267000Y45000D01*
X294000Y45000D01*
X174000Y161000D02*
X167000Y168000D01*
D16*
X142000Y196000D03*
D17*
X112000Y226000D01*
X128000Y399000D02*
X128000Y424000D01*
X112000Y383000D02*
X112000Y226000D01*
X112000Y383000D02*
X128000Y399000D01*
D16*
X225000Y69000D03*
D18*
X200000Y94000D01*
X173000Y94000D01*
D16*
X173000Y94000D03*
X360000Y413000D03*
D18*
X315000Y413000D01*
X271000Y457000D01*
D16*
X271000Y457000D03*
D17*
X311000Y174000D02*
X218000Y174000D01*
X311000Y174000D02*
X356000Y219000D01*
D16*
X356000Y219000D03*
D18*
X96000Y124000D02*
X96000Y60000D01*
X327000Y247000D02*
X327000Y276000D01*
X327000Y247000D02*
X272000Y192000D01*
X164000Y192000D02*
X96000Y124000D01*
X164000Y192000D02*
X272000Y192000D01*
M02*
