G04 EAGLE Gerber RS-274X export*
G75*
%MOMM*%
%FSLAX34Y34*%
%LPD*%
%INSolderpaste Bottom*%
%IPPOS*%
%AMOC8*
5,1,8,0,0,1.08239X$1,22.5*%
G01*
%ADD10C,0.254000*%
%ADD11C,0.222250*%
%ADD12R,1.200000X0.550000*%
%ADD13R,1.400000X1.400000*%
%ADD14R,4.600000X1.000000*%
%ADD15R,3.400000X1.600000*%
%ADD16R,0.550000X1.200000*%
%ADD17R,1.200000X1.200000*%
%ADD18R,0.900000X0.900000*%
%ADD19C,0.140000*%
%ADD20R,0.600000X0.600000*%
%ADD21R,0.900000X0.800000*%
%ADD22R,0.635000X1.016000*%
%ADD23R,0.900000X0.450000*%
%ADD24R,0.900000X2.000000*%
%ADD25R,2.000000X0.900000*%
%ADD26R,5.000000X5.000000*%
%ADD27R,2.032000X0.660400*%
%ADD28R,0.800000X0.280000*%
%ADD29R,0.280000X0.800000*%
%ADD30R,1.240000X1.500000*%
%ADD31R,1.350000X0.450000*%
%ADD32R,1.550000X1.500000*%
%ADD33R,1.750000X0.700000*%
%ADD34R,1.550000X1.000000*%
%ADD35R,1.000000X1.450000*%
%ADD36R,1.500000X1.500000*%
%ADD37R,1.500000X1.300000*%
%ADD38R,1.400000X0.800000*%
%ADD39R,1.500000X0.800000*%

G36*
X148145Y123297D02*
X148145Y123297D01*
X148211Y123299D01*
X148254Y123317D01*
X148301Y123325D01*
X148358Y123359D01*
X148418Y123384D01*
X148453Y123415D01*
X148494Y123440D01*
X148536Y123491D01*
X148584Y123535D01*
X148606Y123577D01*
X148635Y123614D01*
X148656Y123676D01*
X148687Y123735D01*
X148695Y123789D01*
X148707Y123826D01*
X148706Y123866D01*
X148714Y123920D01*
X148714Y134080D01*
X148703Y134145D01*
X148701Y134211D01*
X148683Y134254D01*
X148675Y134301D01*
X148641Y134358D01*
X148616Y134418D01*
X148585Y134453D01*
X148560Y134494D01*
X148509Y134536D01*
X148465Y134584D01*
X148423Y134606D01*
X148386Y134635D01*
X148324Y134656D01*
X148265Y134687D01*
X148211Y134695D01*
X148174Y134707D01*
X148134Y134706D01*
X148080Y134714D01*
X137920Y134714D01*
X137855Y134703D01*
X137789Y134701D01*
X137746Y134683D01*
X137699Y134675D01*
X137642Y134641D01*
X137582Y134616D01*
X137547Y134585D01*
X137506Y134560D01*
X137465Y134509D01*
X137416Y134465D01*
X137394Y134423D01*
X137365Y134386D01*
X137344Y134324D01*
X137313Y134265D01*
X137305Y134211D01*
X137293Y134174D01*
X137293Y134163D01*
X137293Y134162D01*
X137294Y134132D01*
X137286Y134080D01*
X137286Y123920D01*
X137297Y123855D01*
X137299Y123789D01*
X137317Y123746D01*
X137325Y123699D01*
X137359Y123642D01*
X137384Y123582D01*
X137415Y123547D01*
X137440Y123506D01*
X137491Y123465D01*
X137535Y123416D01*
X137577Y123394D01*
X137614Y123365D01*
X137676Y123344D01*
X137735Y123313D01*
X137789Y123305D01*
X137826Y123293D01*
X137866Y123294D01*
X137920Y123286D01*
X148080Y123286D01*
X148145Y123297D01*
G37*
D10*
X254920Y281285D02*
X247300Y281285D01*
X247300Y292715D01*
X254920Y292715D01*
X254920Y281285D01*
X254920Y283698D02*
X247300Y283698D01*
X247300Y286111D02*
X254920Y286111D01*
X254920Y288524D02*
X247300Y288524D01*
X247300Y290937D02*
X254920Y290937D01*
X265080Y281285D02*
X272700Y281285D01*
X265080Y281285D02*
X265080Y292715D01*
X272700Y292715D01*
X272700Y281285D01*
X272700Y283698D02*
X265080Y283698D01*
X265080Y286111D02*
X272700Y286111D01*
X272700Y288524D02*
X265080Y288524D01*
X265080Y290937D02*
X272700Y290937D01*
D11*
X298286Y290334D02*
X304954Y290334D01*
X304954Y283666D01*
X298286Y283666D01*
X298286Y290334D01*
X298286Y285778D02*
X304954Y285778D01*
X304954Y287890D02*
X298286Y287890D01*
X298286Y290002D02*
X304954Y290002D01*
X289714Y290334D02*
X283046Y290334D01*
X289714Y290334D02*
X289714Y283666D01*
X283046Y283666D01*
X283046Y290334D01*
X283046Y285778D02*
X289714Y285778D01*
X289714Y287890D02*
X283046Y287890D01*
X283046Y290002D02*
X289714Y290002D01*
D10*
X305715Y303300D02*
X305715Y310920D01*
X305715Y303300D02*
X294285Y303300D01*
X294285Y310920D01*
X305715Y310920D01*
X305715Y305713D02*
X294285Y305713D01*
X294285Y308126D02*
X305715Y308126D01*
X305715Y310539D02*
X294285Y310539D01*
X305715Y321080D02*
X305715Y328700D01*
X305715Y321080D02*
X294285Y321080D01*
X294285Y328700D01*
X305715Y328700D01*
X305715Y323493D02*
X294285Y323493D01*
X294285Y325906D02*
X305715Y325906D01*
X305715Y328319D02*
X294285Y328319D01*
D12*
X255999Y306500D03*
X255999Y316000D03*
X255999Y325500D03*
X282001Y325500D03*
X282001Y306500D03*
D13*
X217500Y312000D03*
X180500Y312000D03*
D14*
X78000Y363000D03*
X78000Y343000D03*
D15*
X26000Y387000D03*
X26000Y319000D03*
D16*
X152500Y342999D03*
X143000Y342999D03*
X133500Y342999D03*
X133500Y369001D03*
X152500Y369001D03*
D17*
X17000Y432500D03*
X17000Y411500D03*
D11*
X34666Y428286D02*
X34666Y434954D01*
X41334Y434954D01*
X41334Y428286D01*
X34666Y428286D01*
X34666Y430398D02*
X41334Y430398D01*
X41334Y432510D02*
X34666Y432510D01*
X34666Y434622D02*
X41334Y434622D01*
X34666Y419714D02*
X34666Y413046D01*
X34666Y419714D02*
X41334Y419714D01*
X41334Y413046D01*
X34666Y413046D01*
X34666Y415158D02*
X41334Y415158D01*
X41334Y417270D02*
X34666Y417270D01*
X34666Y419382D02*
X41334Y419382D01*
D10*
X127080Y331715D02*
X134700Y331715D01*
X134700Y320285D01*
X127080Y320285D01*
X127080Y331715D01*
X127080Y322698D02*
X134700Y322698D01*
X134700Y325111D02*
X127080Y325111D01*
X127080Y327524D02*
X134700Y327524D01*
X134700Y329937D02*
X127080Y329937D01*
X116920Y331715D02*
X109300Y331715D01*
X116920Y331715D02*
X116920Y320285D01*
X109300Y320285D01*
X109300Y331715D01*
X109300Y322698D02*
X116920Y322698D01*
X116920Y325111D02*
X109300Y325111D01*
X109300Y327524D02*
X116920Y327524D01*
X116920Y329937D02*
X109300Y329937D01*
D18*
X173500Y266000D03*
X173500Y250000D03*
X214500Y250000D03*
X214500Y266000D03*
D19*
X151800Y265200D02*
X151800Y271800D01*
X153200Y271800D01*
X153200Y265200D01*
X151800Y265200D01*
X151800Y266530D02*
X153200Y266530D01*
X153200Y267860D02*
X151800Y267860D01*
X151800Y269190D02*
X153200Y269190D01*
X153200Y270520D02*
X151800Y270520D01*
X146800Y271800D02*
X146800Y265200D01*
X146800Y271800D02*
X148200Y271800D01*
X148200Y265200D01*
X146800Y265200D01*
X146800Y266530D02*
X148200Y266530D01*
X148200Y267860D02*
X146800Y267860D01*
X146800Y269190D02*
X148200Y269190D01*
X148200Y270520D02*
X146800Y270520D01*
X141800Y271800D02*
X141800Y265200D01*
X141800Y271800D02*
X143200Y271800D01*
X143200Y265200D01*
X141800Y265200D01*
X141800Y266530D02*
X143200Y266530D01*
X143200Y267860D02*
X141800Y267860D01*
X141800Y269190D02*
X143200Y269190D01*
X143200Y270520D02*
X141800Y270520D01*
X136800Y271800D02*
X136800Y265200D01*
X136800Y271800D02*
X138200Y271800D01*
X138200Y265200D01*
X136800Y265200D01*
X136800Y266530D02*
X138200Y266530D01*
X138200Y267860D02*
X136800Y267860D01*
X136800Y269190D02*
X138200Y269190D01*
X138200Y270520D02*
X136800Y270520D01*
X131800Y271800D02*
X131800Y265200D01*
X131800Y271800D02*
X133200Y271800D01*
X133200Y265200D01*
X131800Y265200D01*
X131800Y266530D02*
X133200Y266530D01*
X133200Y267860D02*
X131800Y267860D01*
X131800Y269190D02*
X133200Y269190D01*
X133200Y270520D02*
X131800Y270520D01*
X126800Y271800D02*
X126800Y265200D01*
X126800Y271800D02*
X128200Y271800D01*
X128200Y265200D01*
X126800Y265200D01*
X126800Y266530D02*
X128200Y266530D01*
X128200Y267860D02*
X126800Y267860D01*
X126800Y269190D02*
X128200Y269190D01*
X128200Y270520D02*
X126800Y270520D01*
X123300Y275300D02*
X116700Y275300D01*
X116700Y276700D01*
X123300Y276700D01*
X123300Y275300D01*
X123300Y276630D02*
X116700Y276630D01*
X116700Y280300D02*
X123300Y280300D01*
X116700Y280300D02*
X116700Y281700D01*
X123300Y281700D01*
X123300Y280300D01*
X123300Y281630D02*
X116700Y281630D01*
X116700Y285300D02*
X123300Y285300D01*
X116700Y285300D02*
X116700Y286700D01*
X123300Y286700D01*
X123300Y285300D01*
X123300Y286630D02*
X116700Y286630D01*
X116700Y290300D02*
X123300Y290300D01*
X116700Y290300D02*
X116700Y291700D01*
X123300Y291700D01*
X123300Y290300D01*
X123300Y291630D02*
X116700Y291630D01*
X116700Y295300D02*
X123300Y295300D01*
X116700Y295300D02*
X116700Y296700D01*
X123300Y296700D01*
X123300Y295300D01*
X123300Y296630D02*
X116700Y296630D01*
X116700Y300300D02*
X123300Y300300D01*
X116700Y300300D02*
X116700Y301700D01*
X123300Y301700D01*
X123300Y300300D01*
X123300Y301630D02*
X116700Y301630D01*
X128200Y305200D02*
X128200Y311800D01*
X128200Y305200D02*
X126800Y305200D01*
X126800Y311800D01*
X128200Y311800D01*
X128200Y306530D02*
X126800Y306530D01*
X126800Y307860D02*
X128200Y307860D01*
X128200Y309190D02*
X126800Y309190D01*
X126800Y310520D02*
X128200Y310520D01*
X133200Y311800D02*
X133200Y305200D01*
X131800Y305200D01*
X131800Y311800D01*
X133200Y311800D01*
X133200Y306530D02*
X131800Y306530D01*
X131800Y307860D02*
X133200Y307860D01*
X133200Y309190D02*
X131800Y309190D01*
X131800Y310520D02*
X133200Y310520D01*
X138200Y311800D02*
X138200Y305200D01*
X136800Y305200D01*
X136800Y311800D01*
X138200Y311800D01*
X138200Y306530D02*
X136800Y306530D01*
X136800Y307860D02*
X138200Y307860D01*
X138200Y309190D02*
X136800Y309190D01*
X136800Y310520D02*
X138200Y310520D01*
X143200Y311800D02*
X143200Y305200D01*
X141800Y305200D01*
X141800Y311800D01*
X143200Y311800D01*
X143200Y306530D02*
X141800Y306530D01*
X141800Y307860D02*
X143200Y307860D01*
X143200Y309190D02*
X141800Y309190D01*
X141800Y310520D02*
X143200Y310520D01*
X148200Y311800D02*
X148200Y305200D01*
X146800Y305200D01*
X146800Y311800D01*
X148200Y311800D01*
X148200Y306530D02*
X146800Y306530D01*
X146800Y307860D02*
X148200Y307860D01*
X148200Y309190D02*
X146800Y309190D01*
X146800Y310520D02*
X148200Y310520D01*
X153200Y311800D02*
X153200Y305200D01*
X151800Y305200D01*
X151800Y311800D01*
X153200Y311800D01*
X153200Y306530D02*
X151800Y306530D01*
X151800Y307860D02*
X153200Y307860D01*
X153200Y309190D02*
X151800Y309190D01*
X151800Y310520D02*
X153200Y310520D01*
X156700Y301700D02*
X163300Y301700D01*
X163300Y300300D01*
X156700Y300300D01*
X156700Y301700D01*
X156700Y301630D02*
X163300Y301630D01*
X163300Y296700D02*
X156700Y296700D01*
X163300Y296700D02*
X163300Y295300D01*
X156700Y295300D01*
X156700Y296700D01*
X156700Y296630D02*
X163300Y296630D01*
X163300Y291700D02*
X156700Y291700D01*
X163300Y291700D02*
X163300Y290300D01*
X156700Y290300D01*
X156700Y291700D01*
X156700Y291630D02*
X163300Y291630D01*
X163300Y286700D02*
X156700Y286700D01*
X163300Y286700D02*
X163300Y285300D01*
X156700Y285300D01*
X156700Y286700D01*
X156700Y286630D02*
X163300Y286630D01*
X163300Y281700D02*
X156700Y281700D01*
X163300Y281700D02*
X163300Y280300D01*
X156700Y280300D01*
X156700Y281700D01*
X156700Y281630D02*
X163300Y281630D01*
X163300Y276700D02*
X156700Y276700D01*
X163300Y276700D02*
X163300Y275300D01*
X156700Y275300D01*
X156700Y276700D01*
X156700Y276630D02*
X163300Y276630D01*
D20*
X131000Y279500D03*
X140000Y288500D03*
X140000Y279500D03*
X149000Y279500D03*
X149000Y297500D03*
X131000Y297500D03*
X140000Y297500D03*
X149000Y288500D03*
X131000Y288500D03*
D10*
X104200Y271715D02*
X96580Y271715D01*
X104200Y271715D02*
X104200Y260285D01*
X96580Y260285D01*
X96580Y271715D01*
X96580Y262698D02*
X104200Y262698D01*
X104200Y265111D02*
X96580Y265111D01*
X96580Y267524D02*
X104200Y267524D01*
X104200Y269937D02*
X96580Y269937D01*
X86420Y271715D02*
X78800Y271715D01*
X86420Y271715D02*
X86420Y260285D01*
X78800Y260285D01*
X78800Y271715D01*
X78800Y262698D02*
X86420Y262698D01*
X86420Y265111D02*
X78800Y265111D01*
X78800Y267524D02*
X86420Y267524D01*
X86420Y269937D02*
X78800Y269937D01*
D21*
X182000Y224000D03*
X203000Y214500D03*
X203000Y233500D03*
X137000Y224000D03*
X116000Y233500D03*
X116000Y214500D03*
D11*
X234666Y320286D02*
X234666Y326954D01*
X241334Y326954D01*
X241334Y320286D01*
X234666Y320286D01*
X234666Y322398D02*
X241334Y322398D01*
X241334Y324510D02*
X234666Y324510D01*
X234666Y326622D02*
X241334Y326622D01*
X234666Y311714D02*
X234666Y305046D01*
X234666Y311714D02*
X241334Y311714D01*
X241334Y305046D01*
X234666Y305046D01*
X234666Y307158D02*
X241334Y307158D01*
X241334Y309270D02*
X234666Y309270D01*
X234666Y311382D02*
X241334Y311382D01*
D22*
X224000Y275000D03*
X233500Y295000D03*
X214500Y295000D03*
D11*
X209954Y335334D02*
X203286Y335334D01*
X209954Y335334D02*
X209954Y328666D01*
X203286Y328666D01*
X203286Y335334D01*
X203286Y330778D02*
X209954Y330778D01*
X209954Y332890D02*
X203286Y332890D01*
X203286Y335002D02*
X209954Y335002D01*
X194714Y335334D02*
X188046Y335334D01*
X194714Y335334D02*
X194714Y328666D01*
X188046Y328666D01*
X188046Y335334D01*
X188046Y330778D02*
X194714Y330778D01*
X194714Y332890D02*
X188046Y332890D01*
X188046Y335002D02*
X194714Y335002D01*
D23*
X168000Y207000D03*
X151000Y207000D03*
X168000Y216000D03*
X168000Y224000D03*
X168000Y233000D03*
X151000Y233000D03*
X151000Y216000D03*
X151000Y224000D03*
D11*
X197286Y201334D02*
X203954Y201334D01*
X203954Y194666D01*
X197286Y194666D01*
X197286Y201334D01*
X197286Y196778D02*
X203954Y196778D01*
X203954Y198890D02*
X197286Y198890D01*
X197286Y201002D02*
X203954Y201002D01*
X188714Y201334D02*
X182046Y201334D01*
X188714Y201334D02*
X188714Y194666D01*
X182046Y194666D01*
X182046Y201334D01*
X182046Y196778D02*
X188714Y196778D01*
X188714Y198890D02*
X182046Y198890D01*
X182046Y201002D02*
X188714Y201002D01*
X149666Y396286D02*
X149666Y402954D01*
X156334Y402954D01*
X156334Y396286D01*
X149666Y396286D01*
X149666Y398398D02*
X156334Y398398D01*
X156334Y400510D02*
X149666Y400510D01*
X149666Y402622D02*
X156334Y402622D01*
X149666Y387714D02*
X149666Y381046D01*
X149666Y387714D02*
X156334Y387714D01*
X156334Y381046D01*
X149666Y381046D01*
X149666Y383158D02*
X156334Y383158D01*
X156334Y385270D02*
X149666Y385270D01*
X149666Y387382D02*
X156334Y387382D01*
D24*
X430000Y76000D03*
X417300Y76000D03*
X404600Y76000D03*
X391900Y76000D03*
X379200Y76000D03*
X366500Y76000D03*
X353800Y76000D03*
X341100Y76000D03*
X328400Y76000D03*
X315700Y76000D03*
X303000Y76000D03*
X290300Y76000D03*
X277600Y76000D03*
X264900Y76000D03*
D25*
X255000Y104000D03*
X255000Y116700D03*
X255000Y129400D03*
X255000Y142100D03*
X255000Y154800D03*
X255000Y167500D03*
X255000Y180200D03*
X255000Y192900D03*
X255000Y205600D03*
X255000Y218300D03*
D24*
X264900Y246000D03*
X277600Y246000D03*
X290300Y246000D03*
X303000Y246000D03*
X315700Y246000D03*
X328400Y246000D03*
X341100Y246000D03*
X353800Y246000D03*
X366500Y246000D03*
X379200Y246000D03*
X391900Y246000D03*
X404600Y246000D03*
X417300Y246000D03*
X430000Y246000D03*
D26*
X355100Y151000D03*
D27*
X268734Y444450D03*
X207266Y444450D03*
X268734Y431750D03*
X268734Y419050D03*
X207266Y431750D03*
X207266Y419050D03*
X268734Y406350D03*
X207266Y406350D03*
X268734Y393650D03*
X207266Y393650D03*
X268734Y380950D03*
X268734Y368250D03*
X207266Y380950D03*
X207266Y368250D03*
X268734Y355550D03*
X207266Y355550D03*
D28*
X158000Y136500D03*
X158000Y131500D03*
X158000Y126500D03*
X158000Y121500D03*
D29*
X150500Y114000D03*
X145500Y114000D03*
X140500Y114000D03*
X135500Y114000D03*
D28*
X128000Y121500D03*
X128000Y126500D03*
X128000Y131500D03*
X128000Y136500D03*
D29*
X135500Y144000D03*
X140500Y144000D03*
X145500Y144000D03*
X150500Y144000D03*
D11*
X170046Y111666D02*
X176714Y111666D01*
X170046Y111666D02*
X170046Y118334D01*
X176714Y118334D01*
X176714Y111666D01*
X176714Y113778D02*
X170046Y113778D01*
X170046Y115890D02*
X176714Y115890D01*
X176714Y118002D02*
X170046Y118002D01*
X185286Y111666D02*
X191954Y111666D01*
X185286Y111666D02*
X185286Y118334D01*
X191954Y118334D01*
X191954Y111666D01*
X191954Y113778D02*
X185286Y113778D01*
X185286Y115890D02*
X191954Y115890D01*
X191954Y118002D02*
X185286Y118002D01*
X143714Y96666D02*
X137046Y96666D01*
X137046Y103334D01*
X143714Y103334D01*
X143714Y96666D01*
X143714Y98778D02*
X137046Y98778D01*
X137046Y100890D02*
X143714Y100890D01*
X143714Y103002D02*
X137046Y103002D01*
X152286Y96666D02*
X158954Y96666D01*
X152286Y96666D02*
X152286Y103334D01*
X158954Y103334D01*
X158954Y96666D01*
X158954Y98778D02*
X152286Y98778D01*
X152286Y100890D02*
X158954Y100890D01*
X158954Y103002D02*
X152286Y103002D01*
D30*
X106500Y107000D03*
X87500Y107000D03*
X106500Y142000D03*
X87500Y142000D03*
D11*
X86046Y156666D02*
X92714Y156666D01*
X86046Y156666D02*
X86046Y163334D01*
X92714Y163334D01*
X92714Y156666D01*
X92714Y158778D02*
X86046Y158778D01*
X86046Y160890D02*
X92714Y160890D01*
X92714Y163002D02*
X86046Y163002D01*
X101286Y156666D02*
X107954Y156666D01*
X101286Y156666D02*
X101286Y163334D01*
X107954Y163334D01*
X107954Y156666D01*
X107954Y158778D02*
X101286Y158778D01*
X101286Y160890D02*
X107954Y160890D01*
X107954Y163002D02*
X101286Y163002D01*
X92714Y85666D02*
X86046Y85666D01*
X86046Y92334D01*
X92714Y92334D01*
X92714Y85666D01*
X92714Y87778D02*
X86046Y87778D01*
X86046Y89890D02*
X92714Y89890D01*
X92714Y92002D02*
X86046Y92002D01*
X101286Y85666D02*
X107954Y85666D01*
X101286Y85666D02*
X101286Y92334D01*
X107954Y92334D01*
X107954Y85666D01*
X107954Y87778D02*
X101286Y87778D01*
X101286Y89890D02*
X107954Y89890D01*
X107954Y92002D02*
X101286Y92002D01*
D31*
X46750Y238000D03*
X46750Y244500D03*
X46750Y251000D03*
X46750Y257500D03*
X46750Y264000D03*
D32*
X20000Y241000D03*
X20000Y261000D03*
X20000Y220500D03*
X20000Y281500D03*
D11*
X243314Y464665D02*
X249982Y464665D01*
X249982Y457997D01*
X243314Y457997D01*
X243314Y464665D01*
X243314Y460109D02*
X249982Y460109D01*
X249982Y462221D02*
X243314Y462221D01*
X243314Y464333D02*
X249982Y464333D01*
X234742Y464665D02*
X228074Y464665D01*
X234742Y464665D02*
X234742Y457997D01*
X228074Y457997D01*
X228074Y464665D01*
X228074Y460109D02*
X234742Y460109D01*
X234742Y462221D02*
X228074Y462221D01*
X228074Y464333D02*
X234742Y464333D01*
D33*
X464750Y326000D03*
X464750Y337000D03*
X464750Y348000D03*
X464750Y359000D03*
X464750Y370000D03*
X464750Y381000D03*
X464750Y392000D03*
X464750Y403000D03*
D34*
X356750Y302250D03*
D35*
X372500Y414250D03*
D36*
X463500Y301500D03*
D37*
X463500Y415000D03*
D38*
X381000Y298250D03*
D39*
X387500Y417500D03*
M02*
